<svg width="95" height="95" viewBox="0 0 95 95" fill="none" xmlns="http://www.w3.org/2000/svg">
<g clip-path="url(#clip0_5494_2484)">
<path d="M46.849 83.5365C56.1177 83.5365 63.6313 76.0224 63.6313 66.7534C63.6313 57.4844 56.1177 49.9704 46.849 49.9704C37.5804 49.9704 30.0664 57.4844 30.0664 66.7534C30.0664 76.0224 37.5804 83.5365 46.849 83.5365Z" stroke="#7EAB9F" stroke-width="3.5625" stroke-linecap="round" stroke-linejoin="round"/>
<path d="M68.7239 76.0391C70.6497 73.4254 71.6813 70.1926 71.6813 66.9598C71.6813 63.727 70.6497 60.4943 68.7239 57.8805C68.1049 59.1186 67.4858 60.4255 66.9355 61.6636" stroke="#7EAB9F" stroke-width="3.5625" stroke-linecap="round" stroke-linejoin="round"/>
<path d="M62.7382 79.547L66.9338 79.2719C59.987 94.8168 33.3003 94.7481 26.3535 79.2719L30.5492 79.547" stroke="#7EAB9F" stroke-width="3.5625" stroke-linecap="round" stroke-linejoin="round"/>
<path d="M25.0453 76.0391C23.1195 73.4254 22.0879 70.1926 22.0879 66.9598C22.0879 63.727 23.1195 60.4943 25.0453 57.8805C25.6643 59.1186 26.2834 60.4255 26.8337 61.6636" stroke="#7EAB9F" stroke-width="3.5625" stroke-linecap="round" stroke-linejoin="round"/>
<path d="M27.3164 55.542C28.2105 52.4467 30.0678 49.6266 32.6815 47.6319C35.2951 45.6372 38.4591 44.4678 41.6917 44.399V39.378" stroke="#7EAB9F" stroke-width="3.5625" stroke-linecap="round" stroke-linejoin="round"/>
<path d="M66.4549 55.5418C65.5607 52.4466 63.7035 49.6265 61.0898 47.6318C58.4762 45.6371 55.3122 44.4676 52.0795 44.3989V39.3778H41.694L26.6309 0.721741H39.3552L45.2015 15.6478" stroke="#7EAB9F" stroke-width="3.5625" stroke-linecap="round" stroke-linejoin="round"/>
<path d="M43.6875 28.3726L54.4173 0.653076H67.1416L52.0785 39.309" stroke="#7EAB9F" stroke-width="3.5625" stroke-linecap="round" stroke-linejoin="round"/>
<path d="M46.8496 59.5312V72.9439" stroke="#7EAB9F" stroke-width="3.5625" stroke-linecap="round" stroke-linejoin="round"/>
<path d="M41.5625 61.7512L46.3124 59.3761" stroke="#7EAB9F" stroke-width="3.5625" stroke-linecap="round" stroke-linejoin="round"/>
<path d="M43.6875 72.9438H50.0839" stroke="#7EAB9F" stroke-width="3.5625" stroke-linecap="round" stroke-linejoin="round"/>
<path d="M57.2358 4.78015L50.9082 21.2192H54.6911L61.0875 4.78015H57.2358Z" fill="#E01F8B"/>
</g>
<defs>
<clipPath id="clip0_5494_2484">
<rect width="95" height="95" fill="white"/>
</clipPath>
</defs>
</svg>
