<svg width="80" height="80" viewBox="0 0 80 80" fill="none" xmlns="http://www.w3.org/2000/svg">
<g clip-path="url(#clip0_5651_2360)">
<path d="M52.1392 48.1368H26.8242V69.5699H52.1392V48.1368Z" stroke="#D4E3DF" stroke-width="2.5" stroke-linecap="round" stroke-linejoin="round"/>
<path d="M31.7458 51.9094L30.1055 51.4174H48.8593V66.2893C45.4694 59.2908 39.2364 54.0418 31.7458 51.9094Z" fill="#FF6B2B"/>
<path d="M26.8251 69.5699H1.45508V53.6044H6.32148" stroke="#D4E3DF" stroke-width="2.5" stroke-linecap="round" stroke-linejoin="round"/>
<path d="M52.1406 69.5699H77.4556V58.0878H71.988" stroke="#D4E3DF" stroke-width="2.5" stroke-linecap="round" stroke-linejoin="round"/>
<path d="M40.6036 18.0988C42.9839 17.5361 44.4575 15.1502 43.8948 12.7699C43.3321 10.3895 40.9463 8.91611 38.5659 9.4788C36.1856 10.0415 34.712 12.4272 35.2747 14.8076C35.8374 17.1879 38.2232 18.6615 40.6036 18.0988Z" stroke="#D4E3DF" stroke-width="2.5" stroke-linecap="round" stroke-linejoin="round"/>
<path d="M48.8054 48.1368L45.689 37.6935C45.0329 35.1784 44.65 32.6086 44.65 30.0388V26.8677C44.65 25.6102 45.2516 24.4619 46.2358 23.7511L51.7034 19.7051C52.1409 19.377 52.4141 18.8302 52.4141 18.2834C52.4141 16.8072 50.7737 15.9871 49.5709 16.8619L43.4473 21.3454" stroke="#D4E3DF" stroke-width="2.5" stroke-linecap="round" stroke-linejoin="round"/>
<path d="M34.918 48.1368L38.308 34.9597C38.4174 34.4676 38.8547 34.1943 39.3468 34.1943C39.8389 34.1943 40.2762 34.5223 40.3856 34.9597L43.7209 48.1368" stroke="#D4E3DF" stroke-width="2.5" stroke-linecap="round" stroke-linejoin="round"/>
<path d="M35.1909 21.3454L29.4499 16.7526C28.6844 16.1512 27.5909 16.2057 26.9347 16.9165C26.2786 17.682 26.3879 18.8302 27.1534 19.4317L32.4571 23.6965C33.3866 24.4619 33.9335 25.5554 33.9335 26.7583V30.3669C33.9335 32.9367 33.6053 35.4519 32.9491 37.9123L30.0514 48.1367" stroke="#D4E3DF" stroke-width="2.5" stroke-linecap="round" stroke-linejoin="round"/>
<path d="M66.088 26.7666C68.4683 26.204 69.9416 23.8183 69.3789 21.4379C68.8162 19.0576 66.4306 17.584 64.0503 18.1467C61.6699 18.7094 60.1964 21.0952 60.7591 23.4756C61.3218 25.8559 63.7076 27.3293 66.088 26.7666Z" stroke="#D4E3DF" stroke-width="2.5" stroke-linecap="round" stroke-linejoin="round"/>
<path d="M69.5813 36.6V55.6821C69.5813 56.9943 68.4878 58.0878 67.1756 58.0878H66.3555" stroke="#D4E3DF" stroke-width="2.5" stroke-linecap="round" stroke-linejoin="round"/>
<path d="M64.8253 45.9497V55.6821C64.8253 56.9943 63.7316 58.0878 62.4194 58.0878C61.1071 58.0878 60.0137 56.9943 60.0137 55.6821V36.6" stroke="#D4E3DF" stroke-width="2.5" stroke-linecap="round" stroke-linejoin="round"/>
<path d="M69.1992 29.6561C71.4409 29.6561 73.1905 31.4605 73.1905 33.6475V39.8806C73.1905 41.7943 71.6049 43.3799 69.6913 43.3799" stroke="#D4E3DF" stroke-width="2.5" stroke-linecap="round" stroke-linejoin="round"/>
<path d="M59.9038 43.4345C57.9901 43.4345 56.4043 41.849 56.4043 39.9353V33.7023C56.4043 31.4605 58.2088 29.7109 60.3958 29.7109" stroke="#D4E3DF" stroke-width="2.5" stroke-linecap="round" stroke-linejoin="round"/>
<path d="M14.338 22.3285C16.7183 21.7658 18.1918 19.3799 17.6292 16.9996C17.0665 14.6192 14.6806 13.1458 12.3003 13.7085C9.91994 14.2712 8.44637 16.6569 9.00906 19.0373C9.57175 21.4176 11.9576 22.8912 14.338 22.3285Z" stroke="#D4E3DF" stroke-width="2.5" stroke-linecap="round" stroke-linejoin="round"/>
<path d="M17.8567 32.1166V51.1987C17.8567 52.511 16.7632 53.6044 15.451 53.6044H14.6309" stroke="#D4E3DF" stroke-width="2.5" stroke-linecap="round" stroke-linejoin="round"/>
<path d="M13.1007 41.4663V51.1987C13.1007 52.511 12.0073 53.6044 10.695 53.6044C9.3828 53.6044 8.28906 52.511 8.28906 51.1987V32.1166" stroke="#D4E3DF" stroke-width="2.5" stroke-linecap="round" stroke-linejoin="round"/>
<path d="M17.4766 25.1727C19.7183 25.1727 21.4678 26.9771 21.4678 29.1641V35.3972C21.4678 37.3108 19.8823 38.8965 17.9686 38.8965" stroke="#D4E3DF" stroke-width="2.5" stroke-linecap="round" stroke-linejoin="round"/>
<path d="M8.18087 38.9511C6.2672 38.9511 4.68164 37.3655 4.68164 35.4519V29.2187C4.68164 26.977 6.48585 25.2274 8.6729 25.2274" stroke="#D4E3DF" stroke-width="2.5" stroke-linecap="round" stroke-linejoin="round"/>
<path d="M26.825 53.6044H20.0449" stroke="#D4E3DF" stroke-width="2.5" stroke-linecap="round" stroke-linejoin="round"/>
<path d="M52.1406 58.0878H57.3896" stroke="#D4E3DF" stroke-width="2.5" stroke-linecap="round" stroke-linejoin="round"/>
</g>
<defs>
<clipPath id="clip0_5651_2360">
<rect width="80" height="80" fill="white"/>
</clipPath>
</defs>
</svg>
