<svg width="120" height="120" viewBox="0 0 120 120" fill="none" xmlns="http://www.w3.org/2000/svg">
  <circle cx="60" cy="60" r="55" fill="#0B1F17"/>
  <circle cx="60" cy="60" r="55" fill="none" stroke="#2A5D4B" stroke-width="2"/>
  <circle cx="60" cy="60" r="50" fill="none" stroke="#2A5D4B" stroke-width="1" opacity="0.5"/>
  <g><line x1="79.7" y1="63.2" x2="103.4" y2="67.0" stroke="#E019C3" stroke-width="1.4" stroke-linecap="round" opacity="0.55"/>
<line x1="77.0" y1="70.5" x2="97.4" y2="83.1" stroke="#E019C3" stroke-width="1.4" stroke-linecap="round" opacity="0.55"/>
<line x1="71.7" y1="76.2" x2="85.8" y2="95.7" stroke="#E019C3" stroke-width="1.4" stroke-linecap="round" opacity="0.55"/>
<line x1="64.6" y1="79.5" x2="70.1" y2="102.8" stroke="#E019C3" stroke-width="1.4" stroke-linecap="round" opacity="0.55"/>
<line x1="56.8" y1="79.7" x2="53.0" y2="103.4" stroke="#E019C3" stroke-width="1.4" stroke-linecap="round" opacity="0.55"/>
<line x1="49.5" y1="77.0" x2="36.9" y2="97.4" stroke="#E019C3" stroke-width="1.4" stroke-linecap="round" opacity="0.55"/>
<line x1="43.8" y1="71.7" x2="24.3" y2="85.8" stroke="#E019C3" stroke-width="1.4" stroke-linecap="round" opacity="0.55"/>
<line x1="40.5" y1="64.6" x2="17.2" y2="70.1" stroke="#E019C3" stroke-width="1.4" stroke-linecap="round" opacity="0.55"/>
<line x1="40.3" y1="56.8" x2="16.6" y2="53.0" stroke="#E019C3" stroke-width="1.4" stroke-linecap="round" opacity="0.55"/>
<line x1="43.0" y1="49.5" x2="22.6" y2="36.9" stroke="#E019C3" stroke-width="1.4" stroke-linecap="round" opacity="0.55"/>
<line x1="48.3" y1="43.8" x2="34.2" y2="24.3" stroke="#E019C3" stroke-width="1.4" stroke-linecap="round" opacity="0.55"/>
<line x1="55.4" y1="40.5" x2="49.9" y2="17.2" stroke="#E019C3" stroke-width="1.4" stroke-linecap="round" opacity="0.55"/>
<line x1="63.2" y1="40.3" x2="67.0" y2="16.6" stroke="#E019C3" stroke-width="1.4" stroke-linecap="round" opacity="0.55"/>
<line x1="70.5" y1="43.0" x2="83.1" y2="22.6" stroke="#E019C3" stroke-width="1.4" stroke-linecap="round" opacity="0.55"/>
<line x1="76.2" y1="48.3" x2="95.7" y2="34.2" stroke="#E019C3" stroke-width="1.4" stroke-linecap="round" opacity="0.55"/>
<line x1="79.5" y1="55.4" x2="102.8" y2="49.9" stroke="#E019C3" stroke-width="1.4" stroke-linecap="round" opacity="0.55"/></g>
  <g stroke="#0B1F17" stroke-width="2.4" stroke-linejoin="round" stroke-linecap="round">

    <rect x="30" y="62" width="16" height="26" rx="2" fill="#DB4FDB"/>
    <rect x="52" y="44" width="16" height="44" rx="2" fill="#E019C3"/>
    <rect x="74" y="70" width="16" height="18" rx="2" fill="#19AA4B"/>
    <path d="M60 30 l3.2 6.5 7.2 1 -5.2 5.1 1.2 7.1 -6.4 -3.4 -6.4 3.4 1.2 -7.1 -5.2 -5.1 7.2 -1z" fill="#F6C031"/>
  </g>
  <path d="M30 31 C 30.54 33.46 30.54 33.46 33 34 C 30.54 34.54 30.54 34.54 30 37 C 29.46 34.54 29.46 34.54 27 34 C 29.46 33.46 29.46 33.46 30 31 Z" fill="#E019C3"/>
<path d="M90 37.6 C 90.432 39.568 90.432 39.568 92.4 40 C 90.432 40.432 90.432 40.432 90 42.4 C 89.568 40.432 89.568 40.432 87.6 40 C 89.568 39.568 89.568 39.568 90 37.6 Z" fill="#B6E63E"/>
<path d="M86 81.4 C 86.468 83.532 86.468 83.532 88.6 84 C 86.468 84.468 86.468 84.468 86 86.6 C 85.532 84.468 85.532 84.468 83.4 84 C 85.532 83.532 85.532 83.532 86 81.4 Z" fill="#19AA4B"/>
<path d="M26 77.8 C 26.396 79.604 26.396 79.604 28.2 80 C 26.396 80.396 26.396 80.396 26 82.2 C 25.604 80.396 25.604 80.396 23.8 80 C 25.604 79.604 25.604 79.604 26 77.8 Z" fill="#DB4FDB"/>
<path d="M60 20 C 60.36 21.64 60.36 21.64 62 22 C 60.36 22.36 60.36 22.36 60 24 C 59.64 22.36 59.64 22.36 58 22 C 59.64 21.64 59.64 21.64 60 20 Z" fill="#F6C031"/>
</svg>
