<svg width="80" height="80" viewBox="0 0 80 80" fill="none" xmlns="http://www.w3.org/2000/svg">
<g clip-path="url(#clip0_5494_3667)">
<path d="M47.9253 11.8908C47.9253 16.5437 44.1558 20.372 39.444 20.372C34.7323 20.372 30.9629 16.6026 30.9629 11.8908C30.9629 7.17902 34.7323 3.40958 39.444 3.40958C44.1558 3.40958 47.9253 7.17902 47.9253 11.8908Z" stroke="#D4E3DF" stroke-width="3" stroke-miterlimit="10" stroke-linecap="round"/>
<path d="M31.5527 24.7893L20.5388 15.9547C19.0664 14.7768 16.9461 14.8946 15.7093 16.3081C14.4724 17.7805 14.6491 19.9598 16.1804 21.1377L26.3697 29.3244C28.1366 30.7379 29.1968 32.9171 29.1968 35.1552V42.1052C29.1968 46.9936 28.5489 51.8821 27.312 56.5939L23.4837 70.7881C22.8947 73.0262 24.1905 75.3232 26.4286 75.9711C28.6667 76.5601 30.9636 75.2644 31.6115 73.0263L37.6191 50.9986C37.8547 50.1152 38.6792 49.4673 39.6216 49.4673C40.5639 49.4673 41.3884 50.1152 41.624 50.9986L47.6317 73.0263C48.2206 75.2644 50.5764 76.619 52.8145 75.9711C55.0526 75.3821 56.4072 73.0262 55.7594 70.7881L51.7545 56.1227C50.4587 51.352 49.8108 46.4047 49.8108 41.4573V35.332C49.8108 32.9761 50.9299 30.7379 52.8735 29.3244L63.3572 21.6089C64.2407 20.961 64.7119 19.9598 64.7119 18.8996C64.7119 16.1314 61.5313 14.4823 59.2932 16.1903L47.5727 24.8482" stroke="#D4E3DF" stroke-width="3" stroke-miterlimit="10" stroke-linecap="round"/>
<path d="M59.1763 46.1691C59.0586 46.1691 58.9408 46.169 58.8231 46.1101C58.2341 45.8745 57.8807 45.2267 58.0574 44.6377C59.1175 41.575 59.7064 38.3357 59.8831 35.0964C59.8831 34.4485 60.4721 33.9773 61.12 33.9773C61.7679 33.9773 62.239 34.5663 62.239 35.2141C62.0623 38.6891 61.4145 42.1052 60.2955 45.3445C60.1188 45.8157 59.6475 46.1691 59.1763 46.1691Z" fill="#FF6B2B"/>
<path d="M64.536 51.8232C64.4182 51.8232 64.2416 51.8232 64.1238 51.7643C63.5348 51.5287 63.2403 50.8219 63.4759 50.2329C63.7703 49.5851 64.006 48.8783 64.2415 48.1715C65.5373 44.3432 66.3029 40.3382 66.5385 36.2743C66.7152 33.5061 66.5385 30.7379 66.244 28.0287C66.1851 27.3808 66.5974 26.7918 67.2452 26.7329C67.8931 26.6152 68.4822 27.0863 68.5411 27.7342C68.8945 30.6201 69.0122 33.565 68.8944 36.451C68.6588 40.6916 67.8343 44.9322 66.4797 48.9372C66.2441 49.644 65.9496 50.4096 65.714 51.1164C65.5373 51.5876 65.066 51.8821 64.5948 51.8821L64.536 51.8232Z" fill="#FF6B2B"/>
<path d="M21.5998 46.1691C21.1286 46.1691 20.6574 45.8746 20.4807 45.3445C19.3617 42.0463 18.7138 38.6302 18.5371 35.2141C18.5371 34.5663 19.0083 34.0362 19.6562 33.9773C20.304 33.9773 20.8341 34.4485 20.893 35.0964C21.0697 38.3357 21.6587 41.575 22.7189 44.6377C22.9545 45.2267 22.6011 45.9334 21.9532 46.1101C21.8354 46.1101 21.7176 46.1691 21.5998 46.1691Z" fill="#FF6B2B"/>
<path d="M16.2399 51.8232C15.7688 51.8232 15.2976 51.5287 15.1209 51.0575C14.8264 50.3507 14.5908 49.644 14.3552 48.8783C13.0006 44.8144 12.176 40.6327 11.9404 36.392C11.7637 33.5061 11.9404 30.5613 12.2938 27.6753C12.3527 27.0274 12.9417 26.5562 13.5896 26.674C14.2374 26.7329 14.7086 27.3219 14.5908 27.9698C14.2374 30.679 14.1196 33.5061 14.2963 36.2154C14.5319 40.2793 15.2976 44.2843 16.5933 48.1126C16.8289 48.8194 17.0645 49.4673 17.3589 50.174C17.5945 50.763 17.359 51.4698 16.7111 51.7054C16.5933 51.7054 16.4166 51.7643 16.2988 51.7643L16.2399 51.8232Z" fill="#FF6B2B"/>
<path d="M55.9954 13.4811C54.9941 11.7141 55.642 9.24039 57.3501 8.12134C59.0581 7.00229 61.5906 7.47351 62.7686 9.12264C63.122 7.41461 64.5354 6.00108 66.2435 5.5888C67.9515 5.23541 69.8362 5.94219 70.8375 7.29683C71.8387 8.71037 72.0154 10.7128 71.132 12.1853C73.4879 11.3607 76.315 12.7154 77.3751 14.9535C78.4353 17.1916 77.6696 20.1364 75.8438 21.7267C74.0179 23.3169 71.132 23.6703 68.835 22.7279" stroke="#D4E3DF" stroke-width="3" stroke-miterlimit="10" stroke-linecap="round"/>
<path d="M23.7195 13.4811C24.7208 11.7141 24.0729 9.24039 22.3649 8.12134C20.6568 7.00229 18.1243 7.47351 16.9463 9.12264C16.593 7.41461 15.1794 6.00108 13.4714 5.5888C11.7634 5.23541 9.87869 5.94219 8.87744 7.29683C7.87618 8.71037 7.69949 10.7128 8.58295 12.1853C6.22706 11.3607 3.39993 12.7154 2.33978 14.9535C1.27963 17.1916 2.04535 20.1364 3.87117 21.7267C5.69698 23.3169 8.58289 23.6703 10.8799 22.7279" stroke="#D4E3DF" stroke-width="3" stroke-miterlimit="10" stroke-linecap="round"/>
</g>
<defs>
<clipPath id="clip0_5494_3667">
<rect width="80" height="80" fill="white"/>
</clipPath>
</defs>
</svg>
