<svg width="64" height="64" viewBox="0 0 64 64" fill="none" xmlns="http://www.w3.org/2000/svg">
<g clip-path="url(#clip0_5494_2504)">
<path d="M31.5623 56.2762C37.8065 56.2762 42.8685 51.2141 42.8685 44.9699C42.8685 38.7256 37.8065 33.6637 31.5623 33.6637C25.318 33.6637 20.2559 38.7256 20.2559 44.9699C20.2559 51.2141 25.318 56.2762 31.5623 56.2762Z" stroke="#7EAB9F" stroke-width="2.4" stroke-linecap="round" stroke-linejoin="round"/>
<path d="M46.2986 51.2254C47.596 49.4646 48.291 47.2867 48.291 45.1089C48.291 42.9311 47.596 40.7532 46.2986 38.9924C45.8815 39.8265 45.4644 40.7069 45.0938 41.541" stroke="#7EAB9F" stroke-width="2.4" stroke-linecap="round" stroke-linejoin="round"/>
<path d="M42.2661 53.5885L45.0928 53.4032C40.4127 63.8754 22.4339 63.829 17.7539 53.4032L20.5805 53.5885" stroke="#7EAB9F" stroke-width="2.4" stroke-linecap="round" stroke-linejoin="round"/>
<path d="M16.8733 51.2254C15.5758 49.4646 14.8809 47.2867 14.8809 45.1089C14.8809 42.9311 15.5758 40.7532 16.8733 38.9924C17.2903 39.8265 17.7074 40.7069 18.0781 41.541" stroke="#7EAB9F" stroke-width="2.4" stroke-linecap="round" stroke-linejoin="round"/>
<path d="M18.4023 37.417C19.0047 35.3319 20.256 33.4321 22.0168 32.0883C23.7776 30.7445 25.9091 29.9567 28.087 29.9103V26.5278" stroke="#7EAB9F" stroke-width="2.4" stroke-linecap="round" stroke-linejoin="round"/>
<path d="M44.7707 37.4169C44.1683 35.3318 42.9171 33.432 41.1563 32.0882C39.3955 30.7444 37.2639 29.9566 35.0861 29.9103V26.5277H28.0894L17.9414 0.486237H26.5138L30.4524 10.5415" stroke="#7EAB9F" stroke-width="2.4" stroke-linecap="round" stroke-linejoin="round"/>
<path d="M29.4316 19.1138L36.6603 0.439972H45.2326L35.0846 26.4814" stroke="#7EAB9F" stroke-width="2.4" stroke-linecap="round" stroke-linejoin="round"/>
<path d="M38.5597 3.22025L34.2969 14.2948H36.8454L41.1547 3.22025H38.5597Z" fill="#FFD166"/>
<path d="M27.7182 50V48.3381L31.6014 44.7425C31.9316 44.4229 32.2086 44.1353 32.4324 43.8796C32.6596 43.6239 32.8319 43.3736 32.949 43.1286C33.0662 42.88 33.1248 42.6119 33.1248 42.3242C33.1248 42.0046 33.052 41.7294 32.9064 41.4986C32.7608 41.2642 32.562 41.0849 32.3098 40.9606C32.0577 40.8327 31.7718 40.7688 31.4522 40.7688C31.1184 40.7688 30.8272 40.8363 30.5787 40.9712C30.3301 41.1062 30.1383 41.2997 30.0034 41.5518C29.8684 41.804 29.801 42.104 29.801 42.4521H27.6117C27.6117 41.7383 27.7733 41.1186 28.0964 40.593C28.4196 40.0675 28.8723 39.6609 29.4547 39.3732C30.0371 39.0856 30.7083 38.9418 31.4682 38.9418C32.2495 38.9418 32.9295 39.0803 33.5083 39.3572C34.0907 39.6307 34.5435 40.0107 34.8667 40.4972C35.1898 40.9837 35.3514 41.5412 35.3514 42.1697C35.3514 42.5817 35.2697 42.9883 35.1064 43.3896C34.9466 43.7908 34.6607 44.2365 34.2488 44.7266C33.8368 45.2131 33.2562 45.7972 32.5069 46.479L30.9142 48.0398V48.1143H35.4952V50H27.7182Z" fill="#7EAB9F"/>
</g>
<defs>
<clipPath id="clip0_5494_2504">
<rect width="64" height="64" fill="white"/>
</clipPath>
</defs>
</svg>
