<svg width="64" height="64" viewBox="0 0 64 64" fill="none" xmlns="http://www.w3.org/2000/svg">
<g clip-path="url(#clip0_5494_2545)">
<path d="M31.5623 56.2762C37.8065 56.2762 42.8685 51.2141 42.8685 44.9699C42.8685 38.7256 37.8065 33.6637 31.5623 33.6637C25.318 33.6637 20.2559 38.7256 20.2559 44.9699C20.2559 51.2141 25.318 56.2762 31.5623 56.2762Z" stroke="#7EAB9F" stroke-width="2.4" stroke-linecap="round" stroke-linejoin="round"/>
<path d="M46.2986 51.2254C47.596 49.4646 48.291 47.2867 48.291 45.1089C48.291 42.9311 47.596 40.7532 46.2986 38.9924C45.8815 39.8265 45.4644 40.7069 45.0938 41.541" stroke="#7EAB9F" stroke-width="2.4" stroke-linecap="round" stroke-linejoin="round"/>
<path d="M42.2661 53.5885L45.0928 53.4032C40.4127 63.8754 22.4339 63.829 17.7539 53.4032L20.5805 53.5885" stroke="#7EAB9F" stroke-width="2.4" stroke-linecap="round" stroke-linejoin="round"/>
<path d="M16.8733 51.2254C15.5758 49.4646 14.8809 47.2867 14.8809 45.1089C14.8809 42.9311 15.5758 40.7532 16.8733 38.9924C17.2903 39.8265 17.7074 40.7069 18.0781 41.541" stroke="#7EAB9F" stroke-width="2.4" stroke-linecap="round" stroke-linejoin="round"/>
<path d="M18.4023 37.417C19.0047 35.3319 20.256 33.4321 22.0168 32.0883C23.7776 30.7445 25.9091 29.9567 28.087 29.9103V26.5278" stroke="#7EAB9F" stroke-width="2.4" stroke-linecap="round" stroke-linejoin="round"/>
<path d="M44.7707 37.4169C44.1683 35.3318 42.9171 33.432 41.1563 32.0882C39.3955 30.7444 37.2639 29.9566 35.0861 29.9103V26.5277H28.0894L17.9414 0.486237H26.5138L30.4524 10.5415" stroke="#7EAB9F" stroke-width="2.4" stroke-linecap="round" stroke-linejoin="round"/>
<path d="M29.4316 19.1138L36.6603 0.439972H45.2326L35.0846 26.4814" stroke="#7EAB9F" stroke-width="2.4" stroke-linecap="round" stroke-linejoin="round"/>
<path d="M38.5597 3.22025L34.2969 14.2948H36.8454L41.1547 3.22025H38.5597Z" fill="#FF6B2B"/>
<path d="M31.7505 50.1491C30.9551 50.1491 30.2466 50.0124 29.6252 49.739C29.0073 49.462 28.519 49.082 28.1603 48.5991C27.8052 48.1126 27.6223 47.5515 27.6117 46.9158H29.9341C29.9483 47.1822 30.0353 47.4165 30.1951 47.619C30.3585 47.8178 30.5751 47.9723 30.845 48.0824C31.1149 48.1925 31.4185 48.2475 31.7559 48.2475C32.1074 48.2475 32.4181 48.1854 32.688 48.0611C32.9579 47.9368 33.1692 47.7646 33.3219 47.5444C33.4746 47.3242 33.551 47.0703 33.551 46.7827C33.551 46.4915 33.4693 46.234 33.3059 46.0103C33.1461 45.783 32.9153 45.6055 32.6135 45.4776C32.3152 45.3498 31.96 45.2859 31.5481 45.2859H30.5307V43.592H31.5481C31.8961 43.592 32.2033 43.5316 32.4696 43.4109C32.7395 43.2901 32.949 43.1232 33.0982 42.9102C33.2473 42.6935 33.3219 42.4414 33.3219 42.1538C33.3219 41.8803 33.2562 41.6406 33.1248 41.4347C32.997 41.2251 32.8159 41.0618 32.5815 40.9446C32.3507 40.8274 32.0808 40.7688 31.7718 40.7688C31.4593 40.7688 31.1735 40.8256 30.9142 40.9393C30.655 41.0494 30.4473 41.2074 30.291 41.4134C30.1348 41.6193 30.0513 41.8608 30.0407 42.1378H27.8301C27.8407 41.5092 28.0201 40.9553 28.3681 40.4759C28.7161 39.9964 29.1848 39.6218 29.7743 39.3519C30.3674 39.0785 31.0368 38.9418 31.7825 38.9418C32.5353 38.9418 33.1941 39.0785 33.7587 39.3519C34.3233 39.6254 34.7619 39.9947 35.0744 40.4599C35.3904 40.9215 35.5467 41.44 35.5431 42.0153C35.5467 42.6261 35.3567 43.1357 34.9732 43.544C34.5932 43.9524 34.0978 44.2116 33.487 44.3217V44.407C34.2896 44.5099 34.9004 44.7887 35.3194 45.2433C35.742 45.6942 35.9515 46.2589 35.948 46.9371C35.9515 47.5586 35.7722 48.1108 35.41 48.5938C35.0513 49.0767 34.5559 49.4567 33.9238 49.7337C33.2917 50.0107 32.5673 50.1491 31.7505 50.1491Z" fill="#7EAB9F"/>
</g>
<defs>
<clipPath id="clip0_5494_2545">
<rect width="64" height="64" fill="white"/>
</clipPath>
</defs>
</svg>
