<svg width="80" height="80" viewBox="0 0 80 80" fill="none" xmlns="http://www.w3.org/2000/svg">
<path d="M40.0052 73.3335C58.4147 73.3335 73.3385 58.4097 73.3385 40.0002C73.3385 21.5907 58.4147 6.66687 40.0052 6.66687C21.5957 6.66687 6.67188 21.5907 6.67188 40.0002C6.67188 58.4097 21.5957 73.3335 40.0052 73.3335Z" stroke="#D4E3DF" stroke-width="3" stroke-linecap="round" stroke-linejoin="round"/>
<path d="M39.75 62.673C52.1764 62.673 62.25 52.5994 62.25 40.173C62.25 27.7466 52.1764 17.673 39.75 17.673C27.3236 17.673 17.25 27.7466 17.25 40.173C17.25 52.5994 27.3236 62.673 39.75 62.673Z" stroke="#D4E3DF" stroke-width="3" stroke-linecap="round" stroke-linejoin="round"/>
<path d="M40.0065 46.6666C43.6884 46.6666 46.6732 43.6818 46.6732 39.9999C46.6732 36.318 43.6884 33.3333 40.0065 33.3333C36.3246 33.3333 33.3398 36.318 33.3398 39.9999C33.3398 43.6818 36.3246 46.6666 40.0065 46.6666Z" fill="#FF6B2B"/>
<path d="M40.25 50.673C45.7728 50.673 50.25 45.972 50.25 40.173C50.25 34.374 45.7728 29.673 40.25 29.673C34.7272 29.673 30.25 34.374 30.25 40.173C30.25 45.972 34.7272 50.673 40.25 50.673Z" stroke="#D4E3DF" stroke-width="3" stroke-linecap="round" stroke-linejoin="round"/>
</svg>
