<svg width="40" height="40" viewBox="0 0 40 40" fill="none" xmlns="http://www.w3.org/2000/svg">
<g clip-path="url(#clip0_5134_380351)">
<path d="M19.7259 35.1726C23.6286 35.1726 26.7923 32.0088 26.7923 28.1062C26.7923 24.2035 23.6286 21.0398 19.7259 21.0398C15.8233 21.0398 12.6594 24.2035 12.6594 28.1062C12.6594 32.0088 15.8233 35.1726 19.7259 35.1726Z" stroke="#538F7F" stroke-width="1.5" stroke-linecap="round" stroke-linejoin="round"/>
<path d="M28.9355 32.0159C29.7464 30.9154 30.1808 29.5542 30.1808 28.1931C30.1808 26.8319 29.7464 25.4708 28.9355 24.3703C28.6749 24.8916 28.4142 25.4418 28.1825 25.9631" stroke="#538F7F" stroke-width="1.5" stroke-linecap="round" stroke-linejoin="round"/>
<path d="M26.416 33.4928L28.1826 33.377C25.2576 39.9221 14.0209 39.8932 11.0958 33.377L12.8625 33.4928" stroke="#538F7F" stroke-width="1.5" stroke-linecap="round" stroke-linejoin="round"/>
<path d="M10.5454 32.0159C9.73452 30.9154 9.30017 29.5542 9.30017 28.1931C9.30017 26.8319 9.73452 25.4708 10.5454 24.3703C10.8061 24.8916 11.0667 25.4418 11.2984 25.9631" stroke="#538F7F" stroke-width="1.5" stroke-linecap="round" stroke-linejoin="round"/>
<path d="M11.501 23.3856C11.8775 22.0824 12.6595 20.895 13.76 20.0552C14.8605 19.2153 16.1927 18.7229 17.5539 18.694V16.5799" stroke="#538F7F" stroke-width="1.5" stroke-linecap="round" stroke-linejoin="round"/>
<path d="M27.9798 23.3856C27.6033 22.0824 26.8212 20.895 25.7207 20.0551C24.6202 19.2153 23.288 18.7229 21.9269 18.6939V16.5798H17.5539L11.2114 0.303902H16.5691L19.0308 6.58842" stroke="#538F7F" stroke-width="1.5" stroke-linecap="round" stroke-linejoin="round"/>
<path d="M18.3936 11.9461L22.9114 0.274994H28.2692L21.9267 16.5509" stroke="#538F7F" stroke-width="1.5" stroke-linecap="round" stroke-linejoin="round"/>
<path d="M19.726 25.0653V30.7126" stroke="#538F7F" stroke-width="1.5" stroke-linecap="round" stroke-linejoin="round"/>
<path d="M18.3936 25.0653H21.0868" stroke="#538F7F" stroke-width="1.5" stroke-linecap="round" stroke-linejoin="round"/>
<path d="M18.3936 30.7126H21.0868" stroke="#538F7F" stroke-width="1.5" stroke-linecap="round" stroke-linejoin="round"/>
<path d="M24.0987 2.01266L21.4344 8.93422H23.0273L25.7206 2.01266H24.0987Z" fill="#FF6B2B"/>
</g>
<defs>
<clipPath id="clip0_5134_380351">
<rect width="40" height="40" fill="white"/>
</clipPath>
</defs>
</svg>
