<svg width="40" height="40" viewBox="0 0 40 40" fill="none" xmlns="http://www.w3.org/2000/svg">
<g clip-path="url(#clip0_5134_380353)">
<path d="M7.98181 19.9999H38.6375" stroke="#538F7F" stroke-width="1.5" stroke-miterlimit="10" stroke-linecap="round"/>
<path d="M3.75942 19.9703L2.06458 21.4272C6.16786 23.4789 7.98164 19.9703 7.98164 19.9703C7.98164 19.9703 6.13813 16.4616 2.06458 18.5133L3.75942 19.9703Z" stroke="#538F7F" stroke-width="1.5" stroke-miterlimit="10" stroke-linecap="round"/>
<path d="M13.4825 2.99213C14.2854 5.34112 14.4935 9.92016 9.64685 17.651H12.65C17.794 9.41468 17.2587 4.74644 16.337 2.54612C15.9505 1.59463 15.0287 0.999969 13.988 0.999969H12.3527" stroke="#538F7F" stroke-width="1.5" stroke-miterlimit="10" stroke-linecap="round"/>
<path d="M13.4825 37.0077C14.2854 34.6587 14.4935 30.0798 9.64685 22.3489H12.65C17.794 30.5852 17.2587 35.2534 16.337 37.4537C15.9505 38.4052 15.0287 39 13.988 39H12.3527" stroke="#538F7F" stroke-width="1.5" stroke-miterlimit="10" stroke-linecap="round"/>
<path d="M36.7047 18.097L38.6374 19.9999L36.7047 21.9029" stroke="#538F7F" stroke-width="1.5" stroke-miterlimit="10" stroke-linecap="round"/>
<path d="M34.0584 23.687C32.3636 31.2989 25.495 37.0078 17.2884 37.0078H16.4856" stroke="#538F7F" stroke-width="1.5" stroke-miterlimit="10" stroke-linecap="round"/>
<path d="M16.4856 2.99212H17.2884C25.495 2.99212 32.3338 8.67129 34.0584 16.2832" stroke="#538F7F" stroke-width="1.5" stroke-miterlimit="10" stroke-linecap="round"/>
<path d="M18.686 35.1642C22.6406 34.8074 26.2385 32.9342 28.8253 30.0798C26.4169 31.0313 23.8597 31.5665 21.2729 31.6259C20.2619 29.7229 18.805 28.1173 17.0507 26.8685C18.5076 30.3474 18.8644 33.0829 18.686 35.1642Z" fill="#FF6B2B"/>
</g>
<defs>
<clipPath id="clip0_5134_380353">
<rect width="40" height="40" fill="white"/>
</clipPath>
</defs>
</svg>
