<svg width="40" height="40" viewBox="0 0 40 40" fill="none" xmlns="http://www.w3.org/2000/svg">
<path d="M26.7644 8.29681C24.044 5.57644 20.2752 3.87619 16.1097 3.87619C7.77854 3.87619 1.0343 10.6205 1.0343 18.9516C1.0343 27.2827 7.77854 34.0269 16.1097 34.0269C24.4408 34.0269 31.185 27.2827 31.185 18.9516C31.185 10.6205 31.0716 16.7413 30.8166 15.6928" stroke="#538F7F" stroke-width="1.5" stroke-miterlimit="10" stroke-linecap="round"/>
<path d="M22.0886 12.7457C20.5301 11.2438 18.4331 10.3087 16.1095 10.3087C11.3488 10.3087 7.495 14.1626 7.495 18.9232C7.495 23.6838 11.3488 27.5377 16.1095 27.5377C20.8701 27.5377 24.724 23.6838 24.724 18.9232C24.724 14.1626 24.6673 17.7047 24.5256 17.1379" stroke="#538F7F" stroke-width="1.5" stroke-miterlimit="10" stroke-linecap="round"/>
<path d="M8.0618 31.7882L5.34143 36.1238" stroke="#538F7F" stroke-width="1.5" stroke-miterlimit="10" stroke-linecap="round"/>
<path d="M24.1572 31.7882L26.8776 36.1238" stroke="#538F7F" stroke-width="1.5" stroke-miterlimit="10" stroke-linecap="round"/>
<path d="M16.1095 18.9516L29.2863 11.7256" stroke="#538F7F" stroke-width="1.5" stroke-miterlimit="10" stroke-linecap="round"/>
<path d="M33.055 12.7174L29.2861 11.7256L30.2779 7.95676" stroke="#538F7F" stroke-width="1.5" stroke-miterlimit="10" stroke-linecap="round"/>
<path d="M36.0589 11.0172L32.29 10.0254L33.2818 6.25653" stroke="#538F7F" stroke-width="1.5" stroke-miterlimit="10" stroke-linecap="round"/>
<path d="M39.0343 9.31694L35.2655 8.32514L36.2856 4.55629" stroke="#538F7F" stroke-width="1.5" stroke-miterlimit="10" stroke-linecap="round"/>
<path d="M16.6762 15.9762L15.9961 18.9799L19.0848 19.8866" stroke="#538F7F" stroke-width="1.5" stroke-miterlimit="10" stroke-linecap="round"/>
<path d="M16.1095 23.3438C13.6725 23.3438 11.7172 21.3602 11.7172 18.9516C11.7172 16.5429 13.2191 15.0693 15.231 14.6443L15.5144 13.4541C12.7374 13.7658 10.5837 16.0895 10.5837 18.9516C10.5837 21.8136 13.0774 24.4773 16.1095 24.4773C19.1416 24.4773 19.6516 23.5421 20.6434 22.0969L19.5099 21.7285C18.7165 22.7203 17.4697 23.3438 16.1095 23.3438Z" fill="#FF6B2B"/>
</svg>
