<svg width="40" height="40" viewBox="0 0 40 40" fill="none" xmlns="http://www.w3.org/2000/svg">
<path d="M25.5178 4.65764C27.2428 3.64643 29.4437 4.24127 30.4251 5.96627C31.4364 7.69127 30.8416 9.89214 29.1166 10.8736C27.3915 11.8848 25.1907 11.29 24.2092 9.56498C23.198 7.83997 23.7928 5.63911 25.5178 4.65764Z" stroke="#538F7F" stroke-width="1.5" stroke-miterlimit="10" stroke-linecap="round"/>
<path d="M27.3321 9.56496C26.6778 9.56496 26.0829 9.20806 25.7558 8.67272C25.5178 8.25634 25.4583 7.78048 25.5773 7.30462C25.6963 6.82876 25.9937 6.4421 26.4101 6.20416C26.6777 6.05546 27.0049 5.96626 27.3023 5.96626C27.9566 5.96626 28.5515 6.32315 28.8786 6.8585C29.1166 7.27488 29.1761 7.75073 29.0571 8.2266C28.9381 8.70246 28.6407 9.08908 28.2243 9.32702C27.9567 9.47572 27.6295 9.56496 27.3321 9.56496Z" fill="#FF6B2B"/>
<path d="M32.6559 6.32314C32.5964 5.25245 32.0016 4.2115 31.0796 3.64641" stroke="#538F7F" stroke-width="1.5" stroke-miterlimit="10" stroke-linecap="round"/>
<path d="M34.8569 6.59081C34.8569 5.52012 34.5891 4.41968 34.0538 3.49769C33.4887 2.57571 32.6857 1.80242 31.734 1.32655" stroke="#538F7F" stroke-width="1.5" stroke-miterlimit="10" stroke-linecap="round"/>
<path d="M16.3873 6.23388C17.0714 4.21146 16.0007 2.0106 13.9485 1.29681C11.9261 0.612757 9.72522 1.68347 9.01143 3.73563C8.32738 5.75805 9.39805 7.95891 11.4502 8.6727C13.4726 9.35675 15.6735 8.28604 16.3873 6.23388Z" stroke="#538F7F" stroke-width="1.5" stroke-miterlimit="10"/>
<path d="M11.9558 10.6059C10.2308 10.13 8.4463 11.0818 7.88121 12.7473L5.44239 20.5693C5.0855 21.6995 5.32345 22.9486 6.09673 23.8706L9.63597 28.1236C9.93338 28.4805 9.99283 29.0158 9.7549 29.4322L5.94802 36.0051C5.35319 37.0163 5.73981 38.3249 6.78076 38.8603C7.73248 39.3659 8.92217 39.009 9.48726 38.087L14.6028 29.6999C15.0489 28.9564 15.0192 28.0046 14.4838 27.2908L11.6881 23.6326C11.1825 22.9783 11.0635 22.0861 11.3907 21.3128L13.6511 16.0486" stroke="#538F7F" stroke-width="1.5" stroke-miterlimit="10" stroke-linecap="round"/>
<path d="M11.2717 14.2938L17.5174 15.3645C18.8855 15.6025 20.1941 14.6507 20.4023 13.2826L21.1459 8.19685C21.2351 7.5128 20.789 6.85848 20.1049 6.73952C19.3911 6.62055 18.7071 7.09641 18.6178 7.8102L17.9932 12.0335C17.9338 12.4499 17.5472 12.7176 17.1308 12.6581L11.9855 10.6059" stroke="#538F7F" stroke-width="1.5" stroke-miterlimit="10" stroke-linecap="round"/>
</svg>
