<svg width="40" height="40" viewBox="0 0 40 40" fill="none" xmlns="http://www.w3.org/2000/svg">
<path d="M15.9892 18.5904C19.7658 17.8458 22.585 14.4415 22.3988 10.4255C22.2126 6.30319 18.835 2.97873 14.7126 2.84575C10.2179 2.71277 6.52112 6.3298 6.52112 10.7979C6.52112 15.266 9.23389 17.8458 12.8775 18.5904H12.9573C13.9679 18.7766 15.0052 18.7766 16.0158 18.5904H15.9892Z" stroke="#538F7F" stroke-width="1.5" stroke-miterlimit="10" stroke-linecap="round"/>
<path d="M17.186 9.12236C17.4786 9.84045 17.9573 10.6915 18.6488 11.6223C19.7392 13.1117 20.4041 14.4415 20.5903 15.8245" stroke="#538F7F" stroke-width="1.5" stroke-miterlimit="10" stroke-linecap="round"/>
<path d="M19.0742 4.3085C19.0742 4.3085 17.5849 4.65426 16.9998 5.98405" stroke="#538F7F" stroke-width="1.5" stroke-miterlimit="10" stroke-linecap="round"/>
<path d="M11.7339 9.09573C11.4413 9.84041 10.9626 10.6649 10.2711 11.649C9.18067 13.1383 8.51576 14.4681 8.32959 15.8511" stroke="#538F7F" stroke-width="1.5" stroke-miterlimit="10" stroke-linecap="round"/>
<path d="M9.81897 4.3085C9.81897 4.3085 11.3083 4.65426 11.8935 5.98405" stroke="#538F7F" stroke-width="1.5" stroke-miterlimit="10" stroke-linecap="round"/>
<path d="M14.4465 9.14894V17.2341" stroke="#538F7F" stroke-width="1.5" stroke-miterlimit="10" stroke-linecap="round"/>
<path d="M14.4465 2.84573V5.79789" stroke="#538F7F" stroke-width="1.5" stroke-miterlimit="10" stroke-linecap="round"/>
<path d="M8.32959 8.61703C12.2126 6.83512 16.7072 6.83512 20.5902 8.61703" stroke="#538F7F" stroke-width="1.5" stroke-miterlimit="10" stroke-linecap="round"/>
<path d="M23.6753 6.38298C24.1806 7.60638 24.5264 8.90958 24.6859 10.2394" stroke="#538F7F" stroke-width="1.5" stroke-miterlimit="10" stroke-linecap="round"/>
<path d="M24.6594 2.65958C25.2711 3.61702 25.803 4.60108 26.2286 5.66491C26.8669 7.18087 27.2924 8.80321 27.4786 10.4521C27.5052 10.7447 27.5318 11.0372 27.5584 11.3298" stroke="#538F7F" stroke-width="1.5" stroke-miterlimit="10" stroke-linecap="round"/>
<path d="M22.8774 25.984C22.2391 28.2447 21.3083 31.9415 21.0955 35.6117C21.0423 36.5692 20.2445 37.3404 19.2604 37.3404H14.8987H10.537C9.57959 37.3404 8.78171 36.5958 8.70192 35.6117C8.32958 29.7872 5.98914 23.8298 5.98914 23.8298" stroke="#538F7F" stroke-width="1.5" stroke-miterlimit="10" stroke-linecap="round"/>
<path d="M24.7658 23.3777C25.0052 23.1383 25.1381 22.8192 25.1381 22.4468C25.1381 21.7021 24.5265 21.0904 23.7818 21.0904H6.01583C5.27115 21.0904 4.65942 21.7021 4.65942 22.4468C4.65942 23.1915 5.27115 23.8032 6.01583 23.8032H17.7977C17.7977 23.8032 31.5477 23.4309 31.5477 34.1489" stroke="#538F7F" stroke-width="1.5" stroke-miterlimit="10" stroke-linecap="round"/>
<path d="M31.5477 34.1489H35.5371V2.84573C33.3296 2.84573 31.5477 4.62765 31.5477 6.8351V26.8351" stroke="#538F7F" stroke-width="1.5" stroke-miterlimit="10" stroke-linecap="round"/>
<path d="M10.5637 35.7181H18.4626C17.8509 34.7872 16.8934 34.0691 15.803 33.8032C14.8722 33.5904 13.8349 33.6436 13.0903 33.0851C12.5317 32.6596 12.2392 31.9681 11.8669 31.3564C11.2286 30.2394 10.2977 29.3085 9.18066 28.6436C9.68598 30.6915 10.1647 33.0851 10.3243 35.5053C10.3243 35.6383 10.4307 35.7181 10.5637 35.7181Z" fill="#FF6B2B"/>
</svg>
