<svg width="40" height="40" viewBox="0 0 40 40" fill="none" xmlns="http://www.w3.org/2000/svg">
<g clip-path="url(#clip0_5134_380392)">
<path d="M20.0002 39C30.4936 39 39.0001 30.4934 39.0001 20C39.0001 9.50661 30.4936 1.00002 20.0002 1.00002C9.50675 1.00002 1.00012 9.50661 1.00012 20C1.00012 30.4934 9.50675 39 20.0002 39Z" stroke="#538F7F" stroke-width="1.5" stroke-miterlimit="10" stroke-linecap="round"/>
<path d="M31.0224 4.56254C31.0224 4.56254 19.2692 7.21158 30.0176 22.0705C32.6057 25.633 34.2195 28.7693 34.6458 32.1186" stroke="#538F7F" stroke-width="1.5" stroke-miterlimit="10" stroke-linecap="round"/>
<path d="M8.97753 4.56254C8.97753 4.56254 20.7307 7.21158 9.98231 22.0705C7.39417 25.633 5.78041 28.7693 5.35413 32.1186" stroke="#538F7F" stroke-width="1.5" stroke-miterlimit="10" stroke-linecap="round"/>
<path d="M20.0001 1.03049V39" stroke="#538F7F" stroke-width="1.5" stroke-miterlimit="10" stroke-linecap="round"/>
<path d="M1.24353 17.0465C12.6922 9.76925 27.3381 9.76925 38.7868 17.0465" stroke="#538F7F" stroke-width="1.5" stroke-miterlimit="10" stroke-linecap="round"/>
<path d="M31.4792 20.9744C33.2452 23.4103 34.4935 25.6026 35.3156 27.6731C36.4727 25.359 37.1426 22.7708 37.1426 20C37.1426 17.2292 37.1122 18.7516 37.0513 18.1427C34.1587 16.4071 31.0528 15.1587 27.8557 14.3974C28.4951 16.3157 29.7131 18.5385 31.4792 20.9744Z" fill="#FF6B2B"/>
<path d="M8.49039 20.9744C6.72437 23.4103 5.47594 25.6026 4.65383 27.6731C3.49678 25.359 2.8269 22.7708 2.8269 20C2.8269 17.2292 2.85737 18.7516 2.91827 18.1427C5.81089 16.4071 8.91665 15.1587 12.1138 14.3974C11.4743 16.3157 10.2564 18.5385 8.49039 20.9744Z" fill="#FF6B2B"/>
</g>
<defs>
<clipPath id="clip0_5134_380392">
<rect width="40" height="40" fill="white"/>
</clipPath>
</defs>
</svg>
