<svg width="40" height="40" viewBox="0 0 40 40" fill="none" xmlns="http://www.w3.org/2000/svg">
<path d="M25.8588 28.7009V31.9666H33.6299L32.3427 29.9881L33.6299 27.9857H29.5298" stroke="#538F7F" stroke-width="1.5" stroke-linecap="round" stroke-linejoin="round"/>
<path d="M29.5298 29.9881L27.8373 30.8939" stroke="#538F7F" stroke-width="1.5" stroke-linecap="round" stroke-linejoin="round"/>
<path d="M19.9946 23.9333C14.0113 23.9333 10.4833 25.8641 10.4833 25.8641V30.012C13.2008 28.2003 19.9946 28.0811 19.9946 28.0811C19.9946 28.0811 26.8122 28.2003 29.5059 30.012V25.8641C29.5059 25.8641 25.8349 23.9333 19.9946 23.9333Z" stroke="#538F7F" stroke-width="1.5" stroke-linecap="round" stroke-linejoin="round"/>
<path d="M28.4333 28.2718C25.239 27.1037 20.6144 27.0083 20.0185 26.9845H19.9708C19.351 26.9845 14.7503 27.1037 11.556 28.2718V26.5316C12.7479 26.031 15.7277 25.006 19.9947 25.006C24.2616 25.006 27.2175 26.0549 28.4333 26.5555V28.2718Z" fill="#FF6B2B"/>
<path d="M14.1543 28.7009V31.9666H6.38318L7.67043 29.9881L6.38318 27.9857H10.4833" stroke="#538F7F" stroke-width="1.5" stroke-linecap="round" stroke-linejoin="round"/>
<path d="M10.4833 29.9881L12.1758 30.9178" stroke="#538F7F" stroke-width="1.5" stroke-linecap="round" stroke-linejoin="round"/>
<path d="M22.4263 22.6937C22.4979 22.2408 22.5694 21.8355 22.617 21.5018C22.8077 20.143 22.9269 18.7605 22.9269 17.3779V4.43387C22.9269 3.31349 22.0211 2.38379 20.8769 2.38379H19.1605C18.0402 2.38379 17.1105 3.28965 17.1105 4.43387V17.3779C17.1105 18.7605 17.2058 20.143 17.4204 21.5018C17.4681 21.8593 17.5396 22.2408 17.6111 22.6937" stroke="#538F7F" stroke-width="1.5" stroke-miterlimit="10" stroke-linecap="round"/>
<path d="M18.4451 29.3921C18.5882 31.1562 18.6835 33.1347 18.6835 35.3278C18.1591 35.3278 17.6823 35.6854 17.5631 36.1859C17.3724 36.9488 17.9445 37.6162 18.6835 37.6162H21.3295C21.9493 37.6162 22.4737 37.1633 22.5214 36.5435C22.5691 35.8761 22.0447 35.3039 21.3772 35.3039C21.3772 33.087 21.4726 31.1085 21.6156 29.3683" stroke="#538F7F" stroke-width="1.5" stroke-miterlimit="10" stroke-linecap="round"/>
<path d="M18.6836 35.3278H19.9947" stroke="#538F7F" stroke-width="1.5" stroke-miterlimit="10" stroke-linecap="round"/>
</svg>
