<svg width="40" height="40" viewBox="0 0 40 40" fill="none" xmlns="http://www.w3.org/2000/svg">
<path d="M23.1065 10.0838C23.5458 8.22568 22.3955 6.36331 20.5374 5.92408C18.6793 5.48484 16.8169 6.63505 16.3777 8.49316C15.9385 10.3513 17.0887 12.2136 18.9468 12.6529C20.8049 13.0921 22.6673 11.9419 23.1065 10.0838Z" stroke="#538F7F" stroke-width="1.5" stroke-miterlimit="10" stroke-linecap="round"/>
<path d="M19.7974 10.8035C18.7981 10.8035 17.9608 9.99324 17.9608 8.9669C17.9608 7.94057 18.7711 7.13029 19.7974 7.13029C20.8237 7.13029 21.634 7.94057 21.634 8.9669C21.634 9.99324 20.8237 10.8035 19.7974 10.8035Z" fill="#FF6B2B"/>
<path d="M22.9304 20.3646L26.2525 26.3605" stroke="#538F7F" stroke-width="1.5" stroke-miterlimit="10" stroke-linecap="round"/>
<path d="M24.443 23.0925L19.1493 26.7117C18.6901 27.0358 18.42 27.549 18.42 28.0891V35.7866C18.42 36.6238 19.0953 37.2991 19.9325 37.2991C20.7698 37.2991 21.445 36.6238 21.445 35.7866V30.1418C21.445 29.5476 21.7691 29.0074 22.2823 28.6833L25.0912 27.0628" stroke="#538F7F" stroke-width="1.5" stroke-miterlimit="10" stroke-linecap="round"/>
<path d="M26.2526 26.3605L27.7651 31.5463C27.8461 31.8164 28.0082 32.0594 28.2512 32.1945L34.9224 36.4618C35.6246 36.9209 36.5699 36.7049 37.0021 36.0027L37.0831 35.8406C37.5153 35.1384 37.3262 34.2201 36.624 33.7609L31.4653 30.5199C31.1142 30.3039 30.9251 29.9257 30.9251 29.5206V24.9291C30.9251 24.1459 30.7361 23.3896 30.3579 22.7143L25.0642 13.2073C24.7671 12.6941 24.1189 12.5051 23.5787 12.7752L20.7968 14.3147C20.2837 14.6118 20.0946 15.26 20.3647 15.8001L21.0939 17.0966L20.3377 17.9068C20.2026 18.0689 19.9866 18.1229 19.7705 18.0689L14.6118 16.7995" stroke="#538F7F" stroke-width="1.5" stroke-miterlimit="10" stroke-linecap="round"/>
<path d="M24.9292 16.2863L21.364 20.0675C21.1209 20.3376 20.7428 20.4456 20.3917 20.3646L14.0717 18.7981" stroke="#538F7F" stroke-width="1.5" stroke-miterlimit="10" stroke-linecap="round"/>
<path d="M5.7353 3.67899L6.38678 3.35133C6.86935 3.10862 7.48584 3.31249 7.72855 3.79507L12.4493 13.1812C12.692 13.6638 12.4881 14.2803 12.0055 14.523L11.3541 14.8507C10.8715 15.0934 10.255 14.8894 10.0123 14.4069L5.29154 5.02076C5.04883 4.53818 5.25272 3.9217 5.7353 3.67899Z" stroke="#538F7F" stroke-width="1.5" stroke-miterlimit="10" stroke-linecap="round"/>
<path d="M11.938 14.5577L14.0717 18.7441" stroke="#538F7F" stroke-width="1.5" stroke-miterlimit="10" stroke-linecap="round"/>
<path d="M7.13034 15.8001C7.13034 16.7184 6.37409 17.4747 5.45579 17.4747C4.53749 17.4747 3.78125 16.7184 3.78125 15.8001C3.78125 14.8818 4.53749 14.1256 5.45579 14.1256C6.37409 14.1256 7.13034 14.8818 7.13034 15.8001Z" stroke="#538F7F" stroke-width="1.5" stroke-miterlimit="10" stroke-linecap="round"/>
<path d="M3.78125 19.2032C4.96964 19.7434 6.4011 19.6354 7.50846 18.9872" stroke="#538F7F" stroke-width="1.5" stroke-miterlimit="10" stroke-linecap="round"/>
<path d="M2.70093 21.1209C4.72659 22.1202 7.29242 21.9311 9.12902 20.6077" stroke="#538F7F" stroke-width="1.5" stroke-miterlimit="10" stroke-linecap="round"/>
</svg>
