<svg width="40" height="40" viewBox="0 0 40 40" fill="none" xmlns="http://www.w3.org/2000/svg">
<path d="M2.95853 4.42181L2.49975 5.16754C2.2319 5.60293 2.36766 6.17297 2.80305 6.44082L11.9862 12.0903C12.4216 12.3582 12.9917 12.2224 13.2595 11.787L13.7183 11.0413C13.9862 10.6059 13.8503 10.0358 13.4149 9.7679L4.23181 4.11841C3.79642 3.85056 3.22638 3.98643 2.95853 4.42181Z" stroke="#538F7F" stroke-width="1.5" stroke-miterlimit="10" stroke-linecap="round"/>
<path d="M27.4145 10.8318C29.2382 10.8318 30.7166 9.35341 30.7166 7.52973C30.7166 5.70605 29.2382 4.22774 27.4145 4.22774C25.5908 4.22774 24.1124 5.70605 24.1124 7.52973C24.1124 9.35341 25.5908 10.8318 27.4145 10.8318Z" stroke="#538F7F" stroke-width="1.5" stroke-miterlimit="10" stroke-linecap="round"/>
<path d="M27.4144 9.30586C26.4138 9.30586 25.6133 8.50531 25.6133 7.50469C25.6133 6.50406 26.4138 5.70364 27.4144 5.70364C28.415 5.70364 29.2155 6.50406 29.2155 7.50469C29.2155 8.50531 28.415 9.30586 27.4144 9.30586Z" fill="#FF6B2B"/>
<path d="M28.6652 16.1102L26.8891 19.7374C26.3888 20.7381 26.2887 21.9138 26.6139 22.9895L28.365 28.793L32.0423 34.7968C32.6427 35.7724 31.9423 37.0482 30.7915 37.0482C30.3162 37.0482 29.8409 36.798 29.5658 36.3978L25.063 29.8937L22.9867 25.366C22.6865 24.8907 22.0111 24.8656 21.6858 25.3159L19.1843 27.6423C18.9591 27.9425 18.8341 28.3178 18.8341 28.693V36.0476C18.8341 36.8481 18.1837 37.4985 17.3832 37.4985C16.5827 37.4985 15.9323 36.8481 15.9323 36.0476V27.6174C15.9323 27.3422 15.9823 27.067 16.1074 26.8168L18.3338 23.0895C19.3344 21.4135 20.1349 19.6373 20.7103 17.7861L21.0605 16.6354" stroke="#538F7F" stroke-width="1.5" stroke-miterlimit="10" stroke-linecap="round"/>
<path d="M16.908 13.1083C17.2332 12.558 17.9586 12.3829 18.534 12.7081L22.9868 15.4347C23.1869 15.5598 23.4621 15.5598 23.6622 15.4347L25.5634 14.184" stroke="#538F7F" stroke-width="1.5" stroke-miterlimit="10" stroke-linecap="round"/>
<path d="M21.6359 14.5842L22.1112 12.8582C22.3363 12.0577 23.1368 11.5823 23.9373 11.7574L28.9905 12.9332C29.5408 13.0582 29.866 13.6586 29.6409 14.1839L23.8623 17.8363C23.6621 17.9613 23.437 17.9613 23.2369 17.8363L13.2556 12.2577" stroke="#538F7F" stroke-width="1.5" stroke-miterlimit="10" stroke-linecap="round"/>
<path d="M20.5602 18.1614L17.6333 16.6354C16.9079 16.2602 16.7828 15.2847 17.3582 14.7343" stroke="#538F7F" stroke-width="1.5" stroke-miterlimit="10" stroke-linecap="round"/>
<path d="M12.4551 4.65293C12.4551 5.50346 11.7546 6.20395 10.9041 6.20395C10.0536 6.20395 9.35315 5.50346 9.35315 4.65293C9.35315 3.8024 10.0536 3.10204 10.9041 3.10204C11.7546 3.10204 12.4551 3.8024 12.4551 4.65293Z" stroke="#538F7F" stroke-width="1.5" stroke-miterlimit="10" stroke-linecap="round"/>
<path d="M14.2563 6.95442C15.0068 6.02884 15.282 4.72803 14.9818 3.57731" stroke="#538F7F" stroke-width="1.5" stroke-miterlimit="10" stroke-linecap="round"/>
<path d="M15.7074 8.38024C17.1083 6.82927 17.5586 4.4778 16.8331 2.50156" stroke="#538F7F" stroke-width="1.5" stroke-miterlimit="10" stroke-linecap="round"/>
</svg>
