<svg width="40" height="40" viewBox="0 0 40 40" fill="none" xmlns="http://www.w3.org/2000/svg">
<g clip-path="url(#clip0_5134_380406)">
<path d="M15.9756 31.359C15.9756 35.4324 12.6676 38.7131 8.62152 38.7131C4.57547 38.7131 1.26758 35.4051 1.26758 31.359C1.26758 27.313 4.57547 24.0051 8.62152 24.0051C12.6676 24.0051 10.8907 24.2785 11.8749 24.7706" stroke="#538F7F" stroke-width="1.5" stroke-linecap="round" stroke-linejoin="round"/>
<path d="M31.0661 24.0325C31.3395 24.0051 31.6129 23.9777 31.9136 23.9777C35.987 23.9777 39.2676 27.2857 39.2676 31.3317C39.2676 35.3778 35.9597 38.6857 31.9136 38.6857C27.8676 38.6857 24.5597 35.3778 24.5597 31.3317C24.5597 27.2857 25.9813 26.3562 28.0863 25.044" stroke="#538F7F" stroke-width="1.5" stroke-linecap="round" stroke-linejoin="round"/>
<path d="M15.9755 31.359H8.62146L14.1986 23.9777" stroke="#538F7F" stroke-width="1.5" stroke-linecap="round" stroke-linejoin="round"/>
<path d="M25.7352 20.6698L17.8071 22.3648" stroke="#538F7F" stroke-width="1.5" stroke-linecap="round" stroke-linejoin="round"/>
<path d="M31.9138 31.359L28.1957 20.8885L21.908 27.7778" stroke="#538F7F" stroke-width="1.5" stroke-linecap="round" stroke-linejoin="round"/>
<path d="M10.754 32.7533C10.2892 33.4368 9.49634 33.9015 8.62152 33.9015C7.19993 33.9015 6.05176 32.7533 6.05176 31.3317C6.05176 29.9101 7.19993 28.7619 8.62152 28.7619" stroke="#538F7F" stroke-width="1.5" stroke-linecap="round" stroke-linejoin="round"/>
<path d="M32.4604 28.8439C33.6086 29.09 34.4561 30.1288 34.4561 31.359C34.4561 32.5892 33.3079 33.9288 31.8863 33.9288C30.4647 33.9288 29.3165 32.7806 29.3165 31.359C29.3165 29.9374 29.5079 30.2108 29.8633 29.8008" stroke="#538F7F" stroke-width="1.5" stroke-linecap="round" stroke-linejoin="round"/>
<path d="M24.4503 8.06688C26.3226 8.06688 27.8403 6.54919 27.8403 4.67698C27.8403 2.80477 26.3226 1.287 24.4503 1.287C22.5781 1.287 21.0603 2.80477 21.0603 4.67698C21.0603 6.54919 22.5781 8.06688 24.4503 8.06688Z" stroke="#538F7F" stroke-width="1.5" stroke-linecap="round" stroke-linejoin="round"/>
<path d="M24.4504 6.42661C25.4167 6.42661 26.2001 5.64329 26.2001 4.67699C26.2001 3.71069 25.4167 2.92731 24.4504 2.92731C23.4841 2.92731 22.7007 3.71069 22.7007 4.67699C22.7007 5.64329 23.4841 6.42661 24.4504 6.42661Z" fill="#FF6B2B"/>
<path d="M19.6663 6.86404L12.4216 11.8942C10.8087 13.0151 10.2072 15.1202 11.0274 16.9245L17.4245 31.2497C17.7252 31.9605 18.436 32.3979 19.2015 32.3979C20.5957 32.3979 21.5525 30.949 20.9784 29.6641L15.7842 17.7447C15.5928 17.3072 15.7295 16.7878 16.1395 16.5144L22.1813 12.3863L26.3094 18.9749C26.7741 19.713 27.7309 19.9044 28.4691 19.4396C29.1525 18.9749 29.3439 18.1 28.9339 17.3892L24.5598 9.98057" stroke="#538F7F" stroke-width="1.5" stroke-linecap="round" stroke-linejoin="round"/>
<path d="M28.1956 20.8885H31.4761" stroke="#538F7F" stroke-width="1.5" stroke-linecap="round" stroke-linejoin="round"/>
</g>
<defs>
<clipPath id="clip0_5134_380406">
<rect width="40" height="40" fill="white"/>
</clipPath>
</defs>
</svg>
