<svg width="40" height="40" viewBox="0 0 40 40" fill="none" xmlns="http://www.w3.org/2000/svg">
<path d="M15.7026 32.2678C15.7026 36.0683 12.6359 39.135 8.83539 39.135C5.03484 39.135 1.96826 36.0683 1.96826 32.2678C1.96826 28.4672 5.03484 25.4006 8.83539 25.4006C12.6359 25.4006 10.9585 25.6627 11.8759 26.1082" stroke="#538F7F" stroke-width="1.5" stroke-linecap="round" stroke-linejoin="round"/>
<path d="M29.7778 25.4267C30.0399 25.4005 30.302 25.3743 30.5642 25.3743C34.3647 25.3743 37.4313 28.441 37.4313 32.2415C37.4313 36.0421 34.3647 39.1088 30.5642 39.1088C26.7636 39.1088 23.6969 36.0421 23.6969 32.2415C23.6969 28.441 25.0074 27.576 26.9732 26.3703" stroke="#538F7F" stroke-width="1.5" stroke-linecap="round" stroke-linejoin="round"/>
<path d="M15.2047 24.5094L13.8941 21.3379H11.8496V22.9105" stroke="#538F7F" stroke-width="1.5" stroke-linecap="round" stroke-linejoin="round"/>
<path d="M17.6684 23.9327L15.2046 24.5094L8.83533 32.2678H15.7026" stroke="#538F7F" stroke-width="1.5" stroke-linecap="round" stroke-linejoin="round"/>
<path d="M30.5642 32.2678L27.0257 21.7835L25.2958 23.9327" stroke="#538F7F" stroke-width="1.5" stroke-linecap="round" stroke-linejoin="round"/>
<path d="M27.0256 21.7835V19.8177L29.7778 18.8741" stroke="#538F7F" stroke-width="1.5" stroke-linecap="round" stroke-linejoin="round"/>
<path d="M10.8275 33.5783C10.4082 34.2336 9.67425 34.653 8.83551 34.653C7.52498 34.653 6.45044 33.5783 6.45044 32.2678C6.45044 30.9572 7.52498 29.8826 8.83551 29.8826" stroke="#538F7F" stroke-width="1.5" stroke-linecap="round" stroke-linejoin="round"/>
<path d="M31.0884 29.935C32.163 30.1709 32.9492 31.1407 32.9492 32.2678C32.9492 33.3948 31.8747 34.653 30.5642 34.653C29.2536 34.653 28.179 33.5783 28.179 32.2678C28.179 30.9572 28.3624 31.2193 28.6769 30.7999" stroke="#538F7F" stroke-width="1.5" stroke-linecap="round" stroke-linejoin="round"/>
<path d="M23.8801 4.90385C23.5131 6.58133 21.8618 7.62976 20.1843 7.26281C18.5068 6.89586 17.4584 5.24456 17.8254 3.56707C18.1923 1.88959 19.8436 0.841163 21.5211 1.20811C23.1986 1.57506 24.247 3.22636 23.8801 4.90385Z" stroke="#538F7F" stroke-width="1.5" stroke-linecap="round" stroke-linejoin="round"/>
<path d="M20.8658 5.74256C20.7609 5.74256 20.6298 5.74253 20.525 5.71632C20.1318 5.63769 19.791 5.40183 19.5813 5.03488C19.3717 4.69414 19.2931 4.27473 19.3717 3.88157C19.529 3.20009 20.1581 2.67592 20.8658 2.67592C21.5735 2.67592 21.1016 2.67588 21.2065 2.70209C22.019 2.88557 22.5432 3.69814 22.3597 4.51067C22.2024 5.19214 21.5735 5.71632 20.8658 5.71632V5.74256Z" fill="#FF6B2B"/>
<path d="M21.4949 8.78295L24.3781 13.3961C24.4829 13.5795 24.6402 13.7106 24.7975 13.8155L27.9165 15.8337C28.5456 16.253 28.7028 17.0917 28.231 17.6946C27.8116 18.2188 27.0777 18.3499 26.5273 17.9829L22.8055 15.5977C22.6744 15.5191 22.5433 15.4143 22.4646 15.2832L20.6038 12.8456L19.5554 17.5374C19.4505 18.0354 19.7388 18.5071 20.2106 18.6382L22.5696 19.3197C24.1684 19.6867 25.0071 21.4428 24.2994 22.9106L20.1057 31.796C19.7125 32.6609 18.6904 33.0279 17.8254 32.6085C16.9867 32.1891 16.6722 31.1669 17.0391 30.302L20.4203 22.8581C20.5251 22.596 20.394 22.3077 20.1057 22.2291L16.3314 21.3117C14.5753 20.8923 13.4744 19.11 13.8676 17.3539L15.7286 8.94024C15.912 8.07529 16.5149 7.34139 17.3275 6.97444" stroke="#538F7F" stroke-width="1.5" stroke-linecap="round" stroke-linejoin="round"/>
</svg>
