<svg width="40" height="40" viewBox="0 0 40 40" fill="none" xmlns="http://www.w3.org/2000/svg">
<path d="M31.9277 18.6652C32.1184 18.6652 32.3091 18.6652 32.4998 18.6652C36.1227 18.6652 39.0374 21.5799 39.0374 25.2028C39.0374 28.8258 36.1227 31.7405 32.4998 31.7405C28.8768 31.7405 25.9622 28.8258 25.9622 25.2028C25.9622 21.5799 27.1607 20.8717 28.9313 19.7276" stroke="#538F7F" stroke-width="1.5" stroke-linecap="round" stroke-linejoin="round"/>
<path d="M14.1126 25.1757C14.1126 28.7986 11.1979 31.7133 7.57498 31.7133C3.95204 31.7133 1.03735 28.7986 1.03735 25.1757C1.03735 21.5527 3.95204 18.638 7.57498 18.638C11.1979 18.638 9.89041 18.9649 10.8711 19.5369" stroke="#538F7F" stroke-width="1.5" stroke-linecap="round" stroke-linejoin="round"/>
<path d="M15.3384 18.0115L28.3318 13.5169" stroke="#538F7F" stroke-width="1.5" stroke-linecap="round" stroke-linejoin="round"/>
<path d="M27.7054 16.6222L18.253 25.1757H7.57495L13.8402 18.8832" stroke="#538F7F" stroke-width="1.5" stroke-linecap="round" stroke-linejoin="round"/>
<path d="M32.4996 25.1756L26.5885 8.25952H24.3549" stroke="#538F7F" stroke-width="1.5" stroke-linecap="round" stroke-linejoin="round"/>
<path d="M17.2996 23.1054L13.8402 14.6609" stroke="#538F7F" stroke-width="1.5" stroke-linecap="round" stroke-linejoin="round"/>
<path d="M15.6381 14.552H11.7427V15.3692" stroke="#538F7F" stroke-width="1.5" stroke-linecap="round" stroke-linejoin="round"/>
<path d="M18.2531 25.1756L19.0159 27.0552H20.5957" stroke="#538F7F" stroke-width="1.5" stroke-linecap="round" stroke-linejoin="round"/>
<path d="M33.4258 23.5412C33.9978 23.8681 34.3792 24.4674 34.3792 25.1756C34.3792 26.2108 33.5348 27.0552 32.4997 27.0552C31.4645 27.0552 30.6201 26.2108 30.6201 25.1756C30.6201 24.1405 30.6746 24.658 30.7563 24.4401" stroke="#538F7F" stroke-width="1.5" stroke-linecap="round" stroke-linejoin="round"/>
<path d="M8.88249 26.5104C8.55561 26.8373 8.06531 27.0552 7.54775 27.0552C6.51263 27.0552 5.66821 26.2108 5.66821 25.1756C5.66821 24.1405 6.51263 23.296 7.54775 23.296" stroke="#538F7F" stroke-width="1.5" stroke-linecap="round" stroke-linejoin="round"/>
<path d="M15.2295 23.5412L14.2488 20.8172L11.4976 23.5412H15.2295Z" fill="#FF6B2B"/>
</svg>
