<svg width="40" height="40" viewBox="0 0 40 40" fill="none" xmlns="http://www.w3.org/2000/svg">
<path d="M12.5247 9.817C14.2691 9.817 15.6832 8.40289 15.6832 6.6585C15.6832 4.91411 14.2691 3.5 12.5247 3.5C10.7803 3.5 9.36621 4.91411 9.36621 6.6585C9.36621 8.40289 10.7803 9.817 12.5247 9.817Z" stroke="#538F7F" stroke-width="1.5" stroke-linecap="round" stroke-linejoin="round"/>
<path d="M12.5247 8.30092C13.4318 8.30092 14.1672 7.56559 14.1672 6.6585C14.1672 5.75142 13.4318 5.01608 12.5247 5.01608C11.6177 5.01608 10.8823 5.75142 10.8823 6.6585C10.8823 7.56559 11.6177 8.30092 12.5247 8.30092Z" fill="#FF6B2B"/>
<path d="M8.68391 12.3438L10.0233 13.7588C10.3265 14.062 10.8319 14.0115 11.034 13.6577L11.7921 12.3943C12.0953 11.889 12.7015 11.6868 13.2321 11.9142C13.8891 12.1922 14.1671 13.0008 13.7881 13.6072L12.3226 15.9824C11.6151 17.1447 9.97277 17.3469 9.01259 16.3614L7.11749 14.4663C6.66267 14.0115 6.40979 13.3798 6.40979 12.7481C6.40979 11.4847 7.06696 10.3224 8.12821 9.69065L9.97272 8.57887" stroke="#538F7F" stroke-width="1.5" stroke-linecap="round" stroke-linejoin="round"/>
<path d="M22.5054 14.1884H18.1089L16.7443 13.7841C16.4158 13.683 16.062 13.8346 15.8851 14.1126L14.0406 17.1195C13.3584 18.2565 13.2573 19.6462 13.7879 20.8591L17.4012 28.9701C17.5023 29.2228 17.5781 29.5008 17.5781 29.7787V34.6554C17.5781 35.4893 16.8959 36.1715 16.062 36.1715C15.2282 36.1715 14.546 35.4893 14.546 34.6554V30.5368C14.546 30.2083 14.4701 29.8798 14.2933 29.5766L10.6042 22.7795C10.3516 22.2994 9.64406 22.3752 9.46719 22.8805L5.1968 35.4893C4.99465 36.0957 4.41344 36.5 3.75647 36.5H3.37745C2.34146 36.5 1.60889 35.4893 1.93737 34.5038L6.38444 20.8086L7.34458 14.6685" stroke="#538F7F" stroke-width="1.5" stroke-linecap="round" stroke-linejoin="round"/>
<path d="M14.7988 8.85683L18.7911 11.5352H21.5203" stroke="#538F7F" stroke-width="1.5" stroke-linecap="round" stroke-linejoin="round"/>
<path d="M28.9235 10.7014C30.6679 10.7014 32.082 9.28727 32.082 7.54288C32.082 5.79849 30.6679 4.38438 28.9235 4.38438C27.1791 4.38438 25.765 5.79849 25.765 7.54288C25.765 9.28727 27.1791 10.7014 28.9235 10.7014Z" stroke="#538F7F" stroke-width="1.5" stroke-linecap="round" stroke-linejoin="round"/>
<path d="M28.9235 9.21059C28.0139 9.21059 27.2811 8.47782 27.2811 7.56817C27.2811 6.65852 28.0139 5.92575 28.9235 5.92575C29.8332 5.92575 30.566 6.65852 30.566 7.56817C30.566 8.47782 29.8332 9.21059 28.9235 9.21059Z" fill="#FF6B2B"/>
<path d="M31.122 14.0368L29.4796 16.5636C28.8731 17.4985 27.5338 17.5995 26.801 16.7657L23.112 12.5712C22.7077 12.1164 22.7581 11.4089 23.2129 11.0046C23.6677 10.6003 24.3501 10.6256 24.7544 11.0551L27.4075 13.7841C27.6855 14.062 28.1403 13.9862 28.3425 13.6577L29.1257 12.4449" stroke="#538F7F" stroke-width="1.5" stroke-linecap="round" stroke-linejoin="round"/>
<path d="M28.7215 18.5597L26.6746 27.0498C26.6493 27.2014 26.624 27.353 26.624 27.5046V34.9839C26.624 35.742 27.2557 36.3737 28.0138 36.3737C28.7718 36.3737 29.4035 35.742 29.4035 34.9839V28.0858C29.4035 27.8331 29.4542 27.5804 29.5553 27.353L31.2228 23.1838C31.3492 22.8553 31.8545 22.9563 31.8545 23.3101V26.8476C31.8545 27.1508 31.9303 27.454 32.0566 27.732L35.8974 35.5145C36.2006 36.1462 36.9335 36.4495 37.5904 36.2221H37.6662C38.4495 35.9441 38.8286 35.0597 38.4748 34.3017L35.2151 27.1761C35.0888 26.9234 35.0385 26.6455 35.0385 26.3423V15.5023C34.6847 12.4954 32.9664 10.7519 32.9664 10.7519L31.5513 9.46326" stroke="#538F7F" stroke-width="1.5" stroke-linecap="round" stroke-linejoin="round"/>
</svg>
