<svg width="40" height="40" viewBox="0 0 40 40" fill="none" xmlns="http://www.w3.org/2000/svg">
<path d="M16.7634 11.9195C19.3095 14.0852 18.7242 20.7577 13.5442 26.8157C13.8075 27.84 13.9247 28.9228 13.8954 29.9179C13.8954 30.6495 13.7785 31.4104 13.6322 32.1128C13.5444 32.5225 13.1638 32.8444 12.7248 32.8444H3.03799C2.59901 32.8444 2.21839 32.5517 2.13059 32.142C1.955 31.4104 1.86737 30.6788 1.86737 29.9471C1.86737 28.9228 2.01353 27.8107 2.27692 26.845C1.57454 23.0405 0.872286 17.3044 1.07714 13.2072C1.07714 13.2072 1.07726 10.866 3.38924 9.40271C4.38427 8.78814 8.18873 7.23705 12.403 7.26631C15.6514 7.17852 16.4707 9.51977 15.7391 11.4513C15.7391 11.4513 15.1245 13.1487 13.3978 15.4607" stroke="#538F7F" stroke-width="1.5" stroke-miterlimit="10" stroke-linecap="round"/>
<path d="M23.3187 11.9195C20.7726 14.0852 21.3579 20.7577 26.5379 26.8157C26.2745 27.84 26.1574 28.9228 26.1867 29.9179C26.1867 30.6495 26.3038 31.4104 26.4502 32.1128C26.538 32.5225 26.9183 32.8444 27.3573 32.8444H37.0443C37.4833 32.8444 37.8637 32.5517 37.9515 32.142C38.1271 31.4104 38.215 30.6788 38.215 29.9471C38.215 28.9228 38.0685 27.8107 37.8051 26.845C38.5075 23.0405 39.2098 17.3044 39.0049 13.2072C39.0049 13.2072 39.0051 10.866 36.6931 9.40271C35.6981 8.78814 31.8936 7.23705 27.6794 7.26631C24.4309 7.17852 23.6113 9.51977 24.343 11.4513C24.343 11.4513 24.9576 13.1487 26.6842 15.4607" stroke="#538F7F" stroke-width="1.5" stroke-miterlimit="10" stroke-linecap="round"/>
<path d="M2.27661 26.7864H6.92995" stroke="#538F7F" stroke-width="1.5" stroke-miterlimit="10" stroke-linecap="round"/>
<path d="M37.8051 26.7864H32.8885" stroke="#538F7F" stroke-width="1.5" stroke-miterlimit="10" stroke-linecap="round"/>
<path d="M37.2783 13.2365V13.1487C37.2783 12.9438 37.1318 11.6854 35.7855 10.8367C35.0246 10.3685 31.6007 8.96373 27.8547 8.96373C24.1087 8.96373 27.7668 8.96373 27.7375 8.96373H27.7084C27.6791 8.96373 27.6205 8.96373 27.5912 8.96373C26.8596 8.96373 26.3329 9.13931 26.0988 9.46123C25.8939 9.75389 25.8646 10.2514 26.0988 10.7782C26.0988 10.7782 26.4499 11.6854 27.2694 13.0024C27.4157 12.7682 27.6207 12.5341 27.8255 12.3585C28.762 11.5976 30.108 11.6269 31.2494 11.9195C32.3029 12.1829 33.2981 12.6512 34.2054 13.295C35.5223 14.2315 36.488 15.4899 37.3074 16.8947C37.3659 15.5777 37.3952 14.3193 37.3074 13.2072L37.2783 13.2365Z" fill="#FF6B2B"/>
<path d="M3.00815 13.2365V13.1487C3.00815 12.9438 3.15465 11.6854 4.50086 10.8367C5.26177 10.3685 8.68572 8.96373 12.4317 8.96373C16.1777 8.96373 12.5196 8.96373 12.5489 8.96373H12.578C12.6073 8.96373 12.6659 8.96373 12.6952 8.96373C13.4269 8.96373 13.9535 9.13931 14.1876 9.46123C14.3925 9.75389 14.4218 10.2514 14.1876 10.7782C14.1876 10.7782 13.8365 11.6854 13.017 13.0024C12.8707 12.7682 12.666 12.5341 12.4611 12.3585C11.5246 11.5976 10.1784 11.6269 9.03702 11.9195C7.98346 12.1829 6.98826 12.6512 6.08103 13.295C4.76408 14.2315 3.79843 15.4899 2.979 16.8947C2.92046 15.5777 2.8912 14.3193 2.979 13.2072L3.00815 13.2365Z" fill="#FF6B2B"/>
</svg>
