<svg width="40" height="40" viewBox="0 0 40 40" fill="none" xmlns="http://www.w3.org/2000/svg">
<path d="M22.9447 7.99473C22.2851 6.06861 23.3141 3.95778 25.2666 3.29815C27.1927 2.63852 29.3036 3.66756 29.9632 5.62006C30.6228 7.54619 29.5938 9.65702 27.6413 10.3166C25.7152 10.9763 23.6044 9.94724 22.9447 7.99473Z" stroke="#538F7F" stroke-width="1.5" stroke-miterlimit="10"/>
<path d="M26.454 8.91822C25.5569 8.91822 24.7389 8.33775 24.4487 7.46704C24.0793 6.35886 24.6598 5.14515 25.768 4.77576C25.9791 4.6966 26.2165 4.67024 26.454 4.67024C27.3511 4.67024 28.169 5.25072 28.4593 6.12143C28.644 6.64913 28.5912 7.22957 28.3537 7.73089C28.0899 8.23221 27.6677 8.62801 27.14 8.81271C26.9289 8.89187 26.6914 8.91822 26.454 8.91822Z" fill="#FF6B2B"/>
<path d="M27.1663 12.1636C28.8021 11.6887 30.5172 12.6122 31.0713 14.2217L33.3932 21.6887C33.3932 21.7679 33.4459 21.847 33.4459 21.9262C33.7362 23.1926 33.2085 24.4855 32.1795 25.3035L29.3562 27.4935C29.066 27.8365 29.0132 28.3378 29.2507 28.7336L32.6016 34.1425C33.1557 35.1188 32.7863 36.3589 31.8101 36.8866C30.8866 37.3615 29.7784 37.0449 29.2243 36.1742L24.6069 28.9974C24.1583 28.285 24.2111 27.3615 24.7388 26.7019L26.9815 24.4855C27.3509 24.1161 27.6148 23.6148 27.6676 23.0871C27.6676 23.0871 27.6676 23.0871 27.6676 23.0607C27.694 22.6913 27.6412 22.3219 27.4829 21.9789L25.504 17.3615" stroke="#538F7F" stroke-width="1.5" stroke-miterlimit="10" stroke-linecap="round"/>
<path d="M27.8259 15.6992L21.8629 16.7019C20.5436 16.9129 19.3035 16.0159 19.1188 14.6966L18.4064 9.84171C18.3008 9.18208 18.7494 8.57521 19.409 8.44328C20.095 8.31135 20.7283 8.78633 20.8338 9.47234L21.4407 13.5093C21.4934 13.9051 21.8629 14.1689 22.2586 14.1161L27.1663 12.1372" stroke="#538F7F" stroke-width="1.5" stroke-miterlimit="10" stroke-linecap="round"/>
<path d="M13.2614 12.1372C14.1648 12.1372 14.8973 11.4048 14.8973 10.5013C14.8973 9.59786 14.1648 8.86546 13.2614 8.86546C12.3579 8.86546 11.6255 9.59786 11.6255 10.5013C11.6255 11.4048 12.3579 12.1372 13.2614 12.1372Z" stroke="#538F7F" stroke-width="1.5" stroke-miterlimit="10" stroke-linecap="round"/>
<path d="M9.96342 8.23224C9.19825 9.23488 8.98718 10.6333 9.38296 11.8206" stroke="#538F7F" stroke-width="1.5" stroke-miterlimit="10" stroke-linecap="round"/>
<path d="M8.38011 6.8074C6.98169 8.52244 6.63871 11.0026 7.48304 13.0607" stroke="#538F7F" stroke-width="1.5" stroke-miterlimit="10" stroke-linecap="round"/>
</svg>
