<svg width="40" height="40" viewBox="0 0 40 40" fill="none" xmlns="http://www.w3.org/2000/svg">
<path d="M23.9632 5.9454C23.9632 8.27185 22.0784 10.186 19.7225 10.186C17.3666 10.186 15.4819 8.30129 15.4819 5.9454C15.4819 3.58951 17.3666 1.70479 19.7225 1.70479C22.0784 1.70479 23.9632 3.58951 23.9632 5.9454Z" stroke="#538F7F" stroke-width="1.5" stroke-miterlimit="10" stroke-linecap="round"/>
<path d="M15.7765 12.3947L10.2695 7.97737C9.53332 7.38839 8.47318 7.44728 7.85476 8.15405C7.23634 8.89027 7.32466 9.97989 8.09033 10.5689L13.185 14.6622C14.0684 15.369 14.5985 16.4586 14.5985 17.5776V21.0526C14.5985 23.4968 14.2746 25.941 13.6561 28.2969L11.742 35.3941C11.4475 36.5131 12.0954 37.6616 13.2144 37.9856C14.3335 38.28 15.4819 37.6322 15.8059 36.5131L18.8097 25.4993C18.9275 25.0576 19.3397 24.7337 19.8109 24.7337C20.2821 24.7337 20.6943 25.0576 20.8121 25.4993L23.816 36.5131C24.1104 37.6322 25.2883 38.3095 26.4074 37.9856C27.5264 37.6911 28.2037 36.5131 27.8798 35.3941L25.8774 28.0613C25.2295 25.676 24.9055 23.2023 24.9055 20.7287V17.666C24.9055 16.488 25.465 15.369 26.4369 14.6622L31.6787 10.8044C32.1205 10.4805 32.3561 9.97988 32.3561 9.4498C32.3561 8.06571 30.7658 7.24116 29.6467 8.09517L23.7865 12.4241" stroke="#538F7F" stroke-width="1.5" stroke-miterlimit="10" stroke-linecap="round"/>
<path d="M29.5882 23.0845C29.5293 23.0845 29.4704 23.0845 29.4115 23.0551C29.117 22.9373 28.9403 22.6133 29.0287 22.3188C29.5588 20.7875 29.8532 19.1679 29.9415 17.5482C29.9415 17.2242 30.2361 16.9886 30.56 16.9886C30.8839 16.9886 31.1195 17.2831 31.1195 17.6071C31.0311 19.3445 30.7073 21.0526 30.1477 22.6723C30.0594 22.9078 29.8238 23.0845 29.5882 23.0845Z" fill="#FF6B2B"/>
<path d="M32.2679 25.9116C32.209 25.9116 32.1207 25.9116 32.0618 25.8822C31.7673 25.7644 31.62 25.4109 31.7378 25.1165C31.885 24.7925 32.0029 24.4391 32.1207 24.0858C32.7685 22.1716 33.1513 20.1691 33.2691 18.1371C33.3575 16.7531 33.2691 15.369 33.1219 14.0143C33.0924 13.6904 33.2986 13.3959 33.6225 13.3665C33.9464 13.3076 34.241 13.5432 34.2704 13.8671C34.4471 15.3101 34.506 16.7825 34.4471 18.2255C34.3293 20.3458 33.917 22.4661 33.2397 24.4686C33.1219 24.822 32.9747 25.2048 32.8569 25.5582C32.7685 25.7938 32.5329 25.941 32.2973 25.941L32.2679 25.9116Z" fill="#FF6B2B"/>
<path d="M10.7997 23.0845C10.5641 23.0845 10.3285 22.9373 10.2401 22.6723C9.68061 21.0231 9.35666 19.3151 9.26831 17.6071C9.26831 17.2831 9.50391 17.0181 9.82784 16.9886C10.1518 16.9886 10.4168 17.2242 10.4463 17.5482C10.5346 19.1679 10.8291 20.7875 11.3592 22.3188C11.477 22.6133 11.3003 22.9667 10.9763 23.0551C10.9174 23.0551 10.8586 23.0845 10.7997 23.0845Z" fill="#FF6B2B"/>
<path d="M8.11997 25.9116C7.88438 25.9116 7.64879 25.7643 7.56044 25.5287C7.4132 25.1754 7.29539 24.822 7.17759 24.4392C6.50028 22.4072 6.088 20.3163 5.97021 18.196C5.88186 16.753 5.9702 15.2806 6.14689 13.8376C6.17634 13.5137 6.47085 13.2781 6.79478 13.337C7.11872 13.3664 7.35429 13.661 7.2954 13.9849C7.1187 15.3395 7.05981 16.7531 7.14815 18.1077C7.26595 20.1397 7.64879 22.1422 8.29666 24.0563C8.41445 24.4097 8.53223 24.7336 8.67947 25.087C8.79726 25.3815 8.67948 25.7349 8.35554 25.8527C8.29664 25.8527 8.20831 25.8822 8.14941 25.8822L8.11997 25.9116Z" fill="#FF6B2B"/>
<path d="M27.9977 6.74053C27.4971 5.85707 27.821 4.62019 28.675 4.06067C29.529 3.50114 30.7953 3.73676 31.3843 4.56132C31.561 3.70731 32.2677 3.00054 33.1217 2.7944C33.9757 2.61771 34.9181 2.9711 35.4187 3.64842C35.9194 4.35518 36.0077 5.35642 35.566 6.09263C36.7439 5.68035 38.1575 6.35769 38.6876 7.47674C39.2176 8.59579 38.8348 10.0682 37.9219 10.8633C37.009 11.6585 35.566 11.8351 34.4175 11.364" stroke="#538F7F" stroke-width="1.5" stroke-miterlimit="10" stroke-linecap="round"/>
<path d="M11.8598 6.74053C12.3604 5.85707 12.0364 4.62019 11.1824 4.06067C10.3284 3.50114 9.06214 3.73676 8.47317 4.56132C8.29648 3.70731 7.5897 3.00054 6.73569 2.7944C5.88168 2.61771 4.93935 2.9711 4.43872 3.64842C3.93809 4.35518 3.84975 5.35642 4.29148 6.09263C3.11353 5.68035 1.69996 6.35769 1.16989 7.47674C0.639813 8.59579 1.02267 10.0682 1.93558 10.8633C2.84849 11.6585 4.29145 11.8351 5.43994 11.364" stroke="#538F7F" stroke-width="1.5" stroke-miterlimit="10" stroke-linecap="round"/>
</svg>
