<svg width="40" height="40" viewBox="0 0 40 40" fill="none" xmlns="http://www.w3.org/2000/svg">
<path d="M31.3168 9.57774C33.6854 9.57774 35.6057 7.65753 35.6057 5.28885C35.6057 2.92018 33.6854 0.999969 31.3168 0.999969C28.9481 0.999969 27.028 2.92018 27.028 5.28885C27.028 7.65753 28.9481 9.57774 31.3168 9.57774Z" stroke="#538F7F" stroke-width="1.5" stroke-linecap="round" stroke-linejoin="round"/>
<path d="M34.1578 6.25355C34.4741 4.9156 33.6459 3.57449 32.3079 3.25821C30.97 2.94193 29.6289 3.77024 29.3126 5.1082C28.9964 6.44615 29.8246 7.78711 31.1626 8.10339C32.5005 8.41967 33.8416 7.5915 34.1578 6.25355Z" fill="#FF6B2B"/>
<path d="M25.3183 7.29835L18.0902 4.89898C17.8202 4.80901 17.5204 4.77903 17.2504 4.83901L12.1818 5.79874C11.312 5.9487 10.7421 6.78847 10.8921 7.65824C11.042 8.558 11.9119 9.15789 12.8117 8.97793L16.6806 8.16816C16.9505 8.10818 17.2504 8.13813 17.5203 8.19811L23.0389 9.90764C23.3688 9.99762 23.4889 10.3875 23.3089 10.6574C22.859 11.3773 22.1092 12.577 22.0792 12.667L17.0404 21.4546L7.83295 36.2707C7.08315 37.4704 7.95292 39 9.33256 39H9.81246C10.4123 39 10.9822 38.7001 11.3121 38.1902L20.3097 24.5138C20.8196 23.7341 21.8393 23.4341 22.679 23.854L25.0484 24.9937L30.7169 28.1428C31.2867 28.5028 31.5866 29.1626 31.4366 29.8224L29.937 36.8406C29.6971 37.9503 30.537 39 31.6767 39C32.5164 39 33.2362 38.4001 33.4161 37.5904L35.5156 27.663C35.6356 27.0632 35.3956 26.4333 34.9158 26.0434L28.6775 21.4546C28.0476 20.9747 27.8677 20.105 28.2576 19.4152L31.2867 14.2265C31.4666 13.8966 31.9166 13.8967 32.1265 14.1666L33.1462 15.5162C33.5961 16.1461 33.5961 16.9858 33.0862 17.5856L31.8865 19.0253C31.3167 19.7151 31.4667 20.7348 32.2165 21.1847C32.8463 21.5746 33.6562 21.4246 34.1061 20.8548L36.7753 17.4957C37.2252 16.9258 37.2551 16.1161 36.8352 15.5162L33.686 10.9574" stroke="#538F7F" stroke-width="1.5" stroke-linecap="round" stroke-linejoin="round"/>
<path d="M17.5503 10.0575C16.8605 11.4672 14.821 12.4569 12.4217 12.4569C10.0223 12.4569 7.0531 10.9273 7.0531 9.00782C7.0531 7.08832 8.22282 6.51849 9.93237 5.94864" stroke="#538F7F" stroke-width="1.5" stroke-linecap="round" stroke-linejoin="round"/>
<path d="M5.58374 10.9274C5.79368 11.7972 6.36345 12.5469 7.14324 12.9968" stroke="#538F7F" stroke-width="1.5" stroke-linecap="round" stroke-linejoin="round"/>
<path d="M3.18433 10.4775C3.45425 12.457 4.80387 14.2265 6.60339 15.0663" stroke="#538F7F" stroke-width="1.5" stroke-linecap="round" stroke-linejoin="round"/>
</svg>
