<svg width="40" height="40" viewBox="0 0 40 40" fill="none" xmlns="http://www.w3.org/2000/svg">
<path d="M32.6578 6.5058C33.3695 4.37053 32.2426 2.05732 30.1073 1.34557C27.972 0.633813 25.6589 1.76077 24.9471 3.89603C24.2354 6.0313 25.3623 8.34449 27.4975 9.05625C29.6328 9.768 31.946 8.64106 32.6578 6.5058Z" stroke="#538F7F" stroke-width="1.5" stroke-miterlimit="10"/>
<path d="M15.6942 24.9818L13.7072 28.1847L7.06418 28.5702C6.05586 28.5109 5.19582 29.2523 5.13651 30.2606C5.07719 31.2689 5.84828 32.0993 6.85659 32.1586L15.6052 31.8917C16.1094 31.8917 16.6136 31.6545 16.8805 31.2096L18.3929 28.244" stroke="#538F7F" stroke-width="1.5" stroke-miterlimit="10" stroke-linecap="round"/>
<path d="M31.8866 32.1586C33.8684 32.1586 35.4751 30.552 35.4751 28.5702C35.4751 26.5884 33.8684 24.9818 31.8866 24.9818C29.9048 24.9818 28.2982 26.5884 28.2982 28.5702C28.2982 30.552 29.9048 32.1586 31.8866 32.1586Z" stroke="#538F7F" stroke-width="1.5" stroke-miterlimit="10" stroke-linecap="round"/>
<path d="M31.8866 30.3792C30.8783 30.3792 30.0776 29.5785 30.0776 28.5702C30.0776 27.5619 30.8783 26.7612 31.8866 26.7612C32.895 26.7612 33.6957 27.5619 33.6957 28.5702C33.6957 29.5785 32.895 30.3792 31.8866 30.3792Z" fill="#FF6B2B"/>
<path d="M30.4631 33.9084C31.4121 34.4125 32.6281 34.4125 33.5771 33.9084" stroke="#538F7F" stroke-width="1.5" stroke-miterlimit="10" stroke-linecap="round"/>
<path d="M29.1285 35.6581C30.0479 36.2216 31.1155 36.5181 32.1832 36.4884C33.2508 36.4884 34.3184 36.1622 35.2378 35.5691" stroke="#538F7F" stroke-width="1.5" stroke-miterlimit="10" stroke-linecap="round"/>
<path d="M24.4132 20.1477L21.5662 24.5666L24.6505 28.6591C24.9767 29.104 25.0953 29.6675 24.947 30.2309L22.8118 37.734C22.5152 38.7424 21.4773 39.3355 20.4393 39.0686C19.431 38.772 18.8378 37.734 19.1047 36.6961L20.6765 31.091L15.9018 25.308C15.1308 24.3886 14.8638 23.1134 15.1901 21.9568C15.279 21.6899 15.368 21.3933 15.5163 21.1561L20.8544 11.6957C21.8331 9.94593 24.0573 9.32314 25.8071 10.3018C26.1036 10.4797 26.3409 10.6873 26.6078 10.8949C27.0526 11.2805 27.2602 11.8143 27.3789 12.3481C27.5865 13.3564 27.3788 14.3944 26.845 15.3137V15.3731C26.8154 15.3731 29.1879 19.1988 29.1879 19.1988L32.5391 19.9402C33.2805 20.0884 33.7254 20.8299 33.5474 21.5713C33.3695 22.283 32.6577 22.7575 31.9459 22.5796L28.4168 21.7789C27.972 21.6602 27.5568 21.423 27.2603 21.0374L22.9007 15.3731" stroke="#538F7F" stroke-width="1.5" stroke-miterlimit="10" stroke-linecap="round"/>
</svg>
