<svg width="40" height="40" viewBox="0 0 40 40" fill="none" xmlns="http://www.w3.org/2000/svg">
<g clip-path="url(#clip0_5134_380378)">
<path d="M26.7562 10.0159C28.1071 8.66491 28.1071 6.47459 26.7562 5.12364C25.4052 3.77269 23.2149 3.77268 21.864 5.12364C20.513 6.47459 20.513 8.66491 21.864 10.0159C23.2149 11.3668 25.4052 11.3668 26.7562 10.0159Z" stroke="#538F7F" stroke-width="1.5" stroke-linecap="round" stroke-linejoin="round"/>
<path d="M24.3096 9.38682C23.3133 9.38682 22.5107 8.58426 22.5107 7.58797C22.5107 6.59169 23.3133 5.78912 24.3096 5.78912C25.3059 5.78912 26.1084 6.59169 26.1084 7.58797C26.1084 8.58426 25.3059 9.38682 24.3096 9.38682Z" fill="#FF6B2B"/>
<path d="M31.6156 28.4547L27.9626 23.1412C27.8519 22.9751 27.7688 22.7537 27.7688 22.5323V16.9144L30.2318 19.5712L31.2282 22.809C31.4496 23.5285 32.1691 23.9714 32.9163 23.833C33.7743 23.667 34.3001 22.7814 34.051 21.9512L32.9993 18.4088L28.433 12.8739H12.3264C11.5238 12.8739 10.8873 13.5104 10.8873 14.313C10.8873 15.1156 11.5238 15.752 12.3264 15.752H20.7948V22.0065C20.7948 22.5323 20.4351 22.9752 19.9093 23.0582L15.1216 23.8607C13.6825 24.1098 12.6585 25.3275 12.6585 26.7943V34.1003C12.6585 35.0136 13.4057 35.7608 14.319 35.7608H14.4297C15.343 35.7608 16.0902 35.0136 16.0902 34.1003V28.7038C16.0902 27.9842 16.616 27.3476 17.3355 27.2369L24.6969 26.0747L28.4884 31.1668C28.6268 31.3605 28.8205 31.5266 29.0419 31.6096L36.0712 34.9306C36.9568 35.3457 38.0362 34.9306 38.3406 33.962C38.5897 33.1871 38.2852 32.3568 37.5656 31.9693L32.0307 28.9251C31.837 28.8144 31.6433 28.6485 31.5326 28.4547H31.6156Z" stroke="#538F7F" stroke-width="1.5" stroke-linecap="round" stroke-linejoin="round"/>
<path d="M0.42627 14.2299H8.31353" stroke="#538F7F" stroke-width="1.5" stroke-linecap="round" stroke-linejoin="round"/>
<path d="M9.86328 15.8351H8.64556C8.45184 15.8351 8.31348 15.669 8.31348 15.5029V12.9845C8.31348 12.7908 8.47951 12.6525 8.64556 12.6525H9.86328" stroke="#538F7F" stroke-width="1.5" stroke-linecap="round" stroke-linejoin="round"/>
</g>
<defs>
<clipPath id="clip0_5134_380378">
<rect width="40" height="40" fill="white"/>
</clipPath>
</defs>
</svg>
