<svg width="40" height="40" viewBox="0 0 40 40" fill="none" xmlns="http://www.w3.org/2000/svg">
<g clip-path="url(#clip0_5134_380395)">
<path d="M27.1253 10.1582C29.0295 10.1582 30.5731 8.61457 30.5731 6.71038C30.5731 4.8062 29.0295 3.26257 27.1253 3.26257C25.2211 3.26257 23.6775 4.8062 23.6775 6.71038C23.6775 8.61457 25.2211 10.1582 27.1253 10.1582Z" stroke="#538F7F" stroke-width="1.5" stroke-linecap="round" stroke-linejoin="round"/>
<path d="M27.1253 8.64015C26.0704 8.64015 25.2213 7.79108 25.2213 6.73614C25.2213 5.68121 26.0704 4.83202 27.1253 4.83202C28.1802 4.83202 29.0293 5.68121 29.0293 6.73614C29.0293 7.79108 28.1802 8.64015 27.1253 8.64015Z" fill="#FF6B2B"/>
<path d="M23.6776 12.1909L18.1198 13.2716C17.8883 13.3231 17.6566 13.2973 17.4251 13.2458L13.6942 12.1395C12.8966 11.9079 12.0476 12.2938 11.7131 13.0657C11.3271 13.9662 11.816 15.0212 12.768 15.2785L17.1935 16.565C17.3994 16.6165 17.631 16.6422 17.8625 16.5908L22.108 15.8189C22.9314 15.6645 23.6776 16.3078 23.6776 17.1311V21.5052C23.6776 21.814 23.5746 22.0969 23.3945 22.3285L20.0238 26.6255C19.7408 26.9857 19.5865 27.4489 19.5865 27.912V34.8334C19.5865 35.8883 20.4356 36.7374 21.4905 36.7374C22.5454 36.7374 23.3945 35.8883 23.3945 34.8334V29.3014C23.3945 28.7868 23.5746 28.298 23.9349 27.912L26.1477 25.4161C26.688 24.8243 27.6142 24.8243 28.1288 25.4161L30.2387 27.912C30.5475 28.298 30.7276 28.761 30.7276 29.2756V34.8334C30.7276 35.8883 31.5767 36.7374 32.6316 36.7374C33.6865 36.7374 34.5356 35.8883 34.5356 34.8334V27.8862C34.5356 27.4231 34.3813 26.9857 34.124 26.6255L30.882 22.3029C30.7019 22.0713 30.6247 21.7883 30.6247 21.5052V16.5136C30.6247 15.9218 31.0107 15.4329 31.551 15.2527L38.318 13.1172C39.0127 12.8856 39.4501 12.1909 39.3214 11.4705L38.4724 6.73618C38.3437 5.99001 37.6232 5.47541 36.8513 5.57833C36.0794 5.68125 35.5391 6.40162 35.6421 7.17352L35.9251 9.38633C36.028 10.1068 35.5649 10.7758 34.8702 10.9816L30.6247 12.1909H23.7289H23.6776Z" stroke="#538F7F" stroke-width="1.5" stroke-linecap="round" stroke-linejoin="round"/>
<path d="M1.34375 9.02609L9.4231 12.1908" stroke="#538F7F" stroke-width="1.5" stroke-linecap="round" stroke-linejoin="round"/>
<path d="M10.2722 13.9405L9.34588 13.5802C9.1143 13.503 9.01138 13.2458 9.08857 13.0142L9.75758 11.316C9.83477 11.0844 10.0921 10.9815 10.3237 11.0587L11.2499 11.4189" stroke="#538F7F" stroke-width="1.5" stroke-linecap="round" stroke-linejoin="round"/>
</g>
<defs>
<clipPath id="clip0_5134_380395">
<rect width="40" height="40" fill="white"/>
</clipPath>
</defs>
</svg>
