<svg width="40" height="40" viewBox="0 0 40 40" fill="none" xmlns="http://www.w3.org/2000/svg">
<g clip-path="url(#clip0_5134_380387)">
<path d="M28.0843 9.96942C29.9463 9.96942 31.4557 8.45996 31.4557 6.59797C31.4557 4.73597 29.9463 3.22652 28.0843 3.22652C26.2223 3.22652 24.7129 4.73597 24.7129 6.59797C24.7129 8.45996 26.2223 9.96942 28.0843 9.96942Z" stroke="#538F7F" stroke-width="1.5" stroke-linecap="round" stroke-linejoin="round"/>
<path d="M28.0842 8.28364C27.1699 8.28364 26.4271 7.54077 26.4271 6.62648C26.4271 5.71219 27.1699 4.96939 28.0842 4.96939C28.9985 4.96939 29.7413 5.71219 29.7413 6.62648C29.7413 7.54077 28.9985 8.28364 28.0842 8.28364Z" fill="#FF6B2B"/>
<path d="M27.6557 12.1979H37.7414C38.6557 12.1979 39.3986 12.9408 39.3986 13.8551C39.3986 14.7694 38.6557 15.5123 37.7414 15.5123H27.6557L18.6557 22.0837V32.6838C18.6557 33.7695 17.7986 34.6266 16.7129 34.6266H16.5985C15.5127 34.6266 14.6557 33.7695 14.6557 32.6838V21.0266C14.6557 20.1694 14.2271 19.3409 13.4842 18.8837L7.68424 15.1408C7.05567 14.7408 6.65564 14.0265 6.65564 13.2837V4.71222C6.65564 3.62651 7.51273 2.76935 8.59845 2.76935C9.68416 2.76935 10.5414 3.62651 10.5414 4.71222V11.1123C10.5414 11.6551 10.8271 12.1694 11.2843 12.4551L13.1985 13.6265C14.1699 14.1979 15.2557 14.5123 16.37 14.5123C18.2271 14.5123 19.97 13.6837 21.1414 12.2265L21.5128 11.7408L14.1414 5.79796C13.4271 5.19795 13.3128 4.14079 13.9128 3.42651L14.0842 3.19792C14.6557 2.51221 15.6843 2.4265 16.3985 2.99793L23.2271 8.54085" stroke="#538F7F" stroke-width="1.5" stroke-linecap="round" stroke-linejoin="round"/>
<path d="M20.3986 30.8552C27.1986 31.198 32.2558 32.5695 32.2558 34.1695C32.2558 35.7695 25.3415 37.5695 16.8272 37.5695C8.31286 37.5695 1.39856 36.0552 1.39856 34.1695C1.39856 32.2838 6.17003 31.2838 12.7129 30.8838" stroke="#538F7F" stroke-width="1.5" stroke-linecap="round" stroke-linejoin="round"/>
</g>
<defs>
<clipPath id="clip0_5134_380387">
<rect width="40" height="40" fill="white"/>
</clipPath>
</defs>
</svg>
