<svg width="40" height="40" viewBox="0 0 40 40" fill="none" xmlns="http://www.w3.org/2000/svg">
<path d="M29.3903 17.3865C32.7211 18.9424 35.0307 22.3218 35.0307 26.2604C35.0307 30.199 30.6545 36.0339 25.2572 36.0339C19.8599 36.0339 15.4838 31.6577 15.4838 26.2604" stroke="#538F7F" stroke-width="1.5" stroke-miterlimit="10" stroke-linecap="round"/>
<path d="M22.3641 24.5828L25.233 22.9053L28.1018 24.5828V27.8893L25.233 29.5668L22.3641 27.8893V24.5828Z" stroke="#538F7F" stroke-width="1.5" stroke-miterlimit="10" stroke-linecap="round"/>
<path d="M15.7024 28.4241L16.602 27.8893L19.4708 29.5668V32.8733L18.5712 33.4081" stroke="#538F7F" stroke-width="1.5" stroke-miterlimit="10" stroke-linecap="round"/>
<path d="M22.3641 35.5962V34.5508L25.233 32.8733L28.1018 34.5508V35.5962" stroke="#538F7F" stroke-width="1.5" stroke-miterlimit="10" stroke-linecap="round"/>
<path d="M31.8944 33.4081L30.9949 32.8733V29.5668L33.8637 27.8893L34.7633 28.4241" stroke="#538F7F" stroke-width="1.5" stroke-miterlimit="10" stroke-linecap="round"/>
<path d="M34.7633 24.048L33.8637 24.5828L30.9949 22.9053V19.5988L31.8944 19.064" stroke="#538F7F" stroke-width="1.5" stroke-miterlimit="10" stroke-linecap="round"/>
<path d="M20.0786 23.27L22.364 24.5828" stroke="#538F7F" stroke-width="1.5" stroke-miterlimit="10" stroke-linecap="round"/>
<path d="M25.2328 22.9053V20.936" stroke="#538F7F" stroke-width="1.5" stroke-miterlimit="10" stroke-linecap="round"/>
<path d="M28.1017 24.5828L30.9949 22.9053" stroke="#538F7F" stroke-width="1.5" stroke-miterlimit="10" stroke-linecap="round"/>
<path d="M28.1017 27.8893L30.9949 29.5668" stroke="#538F7F" stroke-width="1.5" stroke-miterlimit="10" stroke-linecap="round"/>
<path d="M25.2328 29.5668V32.8733" stroke="#538F7F" stroke-width="1.5" stroke-miterlimit="10" stroke-linecap="round"/>
<path d="M22.364 27.8893L19.4708 29.5668" stroke="#538F7F" stroke-width="1.5" stroke-miterlimit="10" stroke-linecap="round"/>
<path d="M33.5476 16.414L36.538 13.4479" stroke="#538F7F" stroke-width="1.5" stroke-miterlimit="10" stroke-linecap="round"/>
<path d="M35.1766 18.0429L39.2125 16.8759" stroke="#538F7F" stroke-width="1.5" stroke-miterlimit="10" stroke-linecap="round"/>
<path d="M31.8458 14.6878L32.9885 10.652" stroke="#538F7F" stroke-width="1.5" stroke-miterlimit="10" stroke-linecap="round"/>
<path d="M16.5048 21.8599L17.9636 21.2521C18.5471 21.009 19.2035 21.1062 19.6898 21.4709C19.787 21.5439 19.9329 21.5682 20.0544 21.5195L21.3673 20.9603C21.5618 20.8874 21.6347 20.6686 21.5618 20.4741C21.4888 20.2796 21.5618 20.0608 21.7563 19.9879L22.9962 19.4773C23.1907 19.4043 23.4095 19.4773 23.4824 19.6718C23.5554 19.8663 23.7742 19.9392 23.9687 19.8663L25.1114 19.4044C25.2573 19.3315 25.3788 19.2099 25.4031 19.0397C25.476 18.7237 25.6462 18.2374 26.2054 17.9699C26.2054 17.9699 28.7582 16.8759 29.4389 14.3717C29.9008 12.6699 28.5394 11.1626 27.1536 11.4786L25.3788 11.8919C21.0512 12.8887 16.6021 12.6942 13.4658 11.8433C12.4933 12.3295 12.2016 13.7639 11.8855 14.4447C10.6699 16.9975 7.77681 16.803 7.77681 16.803C6.48827 16.6814 5.4185 17.3621 5.49144 18.5777C5.68593 22.3461 8.16577 24.2425 8.16577 24.2425L9.79473 25.6283C9.89198 25.7255 10.0621 25.7498 10.1837 25.7012L11.3021 25.2393C11.4966 25.1664 11.5695 24.9476 11.4966 24.7531C11.4236 24.5586 11.4965 24.3398 11.691 24.2668L12.931 23.7562C13.1255 23.6833 13.3443 23.7563 13.4172 23.9508C13.4902 24.1453 13.709 24.2182 13.9035 24.1453L15.2163 23.5861C15.3379 23.5374 15.4108 23.4159 15.4351 23.2943C15.5081 22.6865 15.9214 22.1516 16.4806 21.9085" stroke="#538F7F" stroke-width="1.5" stroke-miterlimit="10" stroke-linecap="round"/>
<path d="M16.9912 12.4267L16.4563 14.0557" stroke="#538F7F" stroke-width="1.5" stroke-miterlimit="10" stroke-linecap="round"/>
<path d="M18.6929 12.5483L18.1581 14.1773" stroke="#538F7F" stroke-width="1.5" stroke-miterlimit="10" stroke-linecap="round"/>
<path d="M20.6135 12.524L20.0786 14.1529" stroke="#538F7F" stroke-width="1.5" stroke-miterlimit="10" stroke-linecap="round"/>
<path d="M6.05049 17.1919C6.05049 17.1919 5.73446 13.9341 1.2124 6.83495" stroke="#538F7F" stroke-width="1.5" stroke-miterlimit="10" stroke-linecap="round"/>
<path d="M12.6636 12.6212C12.6636 12.6212 9.62458 8.92583 8.0686 3.96616" stroke="#538F7F" stroke-width="1.5" stroke-miterlimit="10" stroke-linecap="round"/>
<path d="M4.51892 12.6942C6.90151 12.3781 8.99237 11.3327 10.5483 9.50928" stroke="#538F7F" stroke-width="1.5" stroke-miterlimit="10" stroke-linecap="round"/>
<path d="M7.82544 23.9264L25.233 16.2194C25.233 16.2194 27.4454 15.174 27.7857 13.3506" stroke="#538F7F" stroke-width="1.5" stroke-miterlimit="10" stroke-linecap="round"/>
<path d="M9.86773 20.0365C10.4512 19.7933 11.0834 19.6232 11.5939 19.2099C12.0558 18.8452 12.3476 18.3103 12.5421 17.7511C12.7122 17.192 12.7609 16.6084 12.7609 16.025C12.7609 15.952 12.7609 15.9034 12.7609 15.8304C11.5453 17.5566 9.5517 18.1888 7.94709 18.1888C6.34249 18.1888 7.65536 18.1888 7.65536 18.1888C7.60674 18.1888 7.55812 18.1888 7.48519 18.1888C7.16913 18.1888 7.02323 18.286 6.97461 18.3346C6.97461 18.3346 6.97461 18.4319 6.97461 18.4562C7.04755 19.6961 7.38789 20.6686 7.8012 21.4222C8.409 20.8387 9.11408 20.3525 9.89207 20.0365H9.86773Z" fill="#FF6B2B"/>
</svg>
