<svg width="40" height="40" viewBox="0 0 40 40" fill="none" xmlns="http://www.w3.org/2000/svg">
<path d="M20.2473 1.02722C16.7626 1.02722 13.9417 3.84819 13.9417 7.33291C13.9417 10.8176 20.2473 19.1699 20.2473 19.1699C20.2473 19.1699 26.553 10.8176 26.553 7.33291C26.553 3.84819 23.732 1.02722 20.2473 1.02722Z" stroke="#538F7F" stroke-width="1.5" stroke-linecap="round" stroke-linejoin="round"/>
<path d="M11.3972 8.52214L4.09595 10.79V39.0272L12.1717 36.5105L20.2473 39.0272L28.3507 36.5105L36.4263 39.0272V10.79L29.0144 8.49446" stroke="#538F7F" stroke-width="1.5" stroke-linecap="round" stroke-linejoin="round"/>
<path d="M20.2473 9.739C21.6525 9.739 22.7918 8.59985 22.7918 7.19462C22.7918 5.78939 21.6525 4.65024 20.2473 4.65024C18.8421 4.65024 17.703 5.78939 17.703 7.19462C17.703 8.59985 18.8421 9.739 20.2473 9.739Z" stroke="#538F7F" stroke-width="1.5" stroke-linecap="round" stroke-linejoin="round"/>
<path d="M28.3507 36.5105V29.3475" stroke="#538F7F" stroke-width="1.5" stroke-linecap="round" stroke-linejoin="round"/>
<path d="M12.476 36.5105V29.3475" stroke="#538F7F" stroke-width="1.5" stroke-linecap="round" stroke-linejoin="round"/>
<path d="M7.52527 23.1801C7.77418 22.7929 8.16145 22.5163 8.57629 22.3227" stroke="#538F7F" stroke-width="1.5" stroke-linecap="round" stroke-linejoin="round"/>
<path d="M10.3186 22.0461C11.3695 22.1844 12.3099 22.7652 13.1396 23.4289C13.9693 24.0927 14.6607 24.8948 15.4627 25.6138C16.2648 26.3053 17.1774 26.9414 18.2007 27.1349C19.1963 27.3562 20.2749 27.1626 21.2152 26.7754C22.1555 26.3882 22.9853 25.7521 23.7873 25.0883C25.0872 23.9821 26.2487 22.6822 27.189 21.2441" stroke="#538F7F" stroke-width="1.5" stroke-linecap="round" stroke-linejoin="round" stroke-dasharray="2.54 1.8"/>
<path d="M27.6593 20.4974C27.9082 20.1102 28.1294 19.6953 28.323 19.2805" stroke="#538F7F" stroke-width="1.5" stroke-linecap="round" stroke-linejoin="round"/>
<path d="M27.0785 14.164L30.1761 17.2616" stroke="#538F7F" stroke-width="1.5" stroke-linecap="round" stroke-linejoin="round"/>
<path d="M27.0785 17.2616L30.1761 14.164" stroke="#538F7F" stroke-width="1.5" stroke-linecap="round" stroke-linejoin="round"/>
<path d="M34.767 36.7594V11.9792L32.8587 11.3984V30.7579C32.8587 32.2237 31.4206 33.2747 30.0101 32.8045V35.2936L34.767 36.7594Z" fill="#FF6B2B"/>
</svg>
