<svg width="40" height="40" viewBox="0 0 40 40" fill="none" xmlns="http://www.w3.org/2000/svg">
<path d="M22.8995 14.9682L14.5375 11.5897C13.7653 11.2777 12.8864 11.6508 12.5744 12.423L4.167 33.232C3.855 34.0042 4.22811 34.8832 5.00033 35.1952L13.3623 38.5736C14.1345 38.8856 15.0135 38.5125 15.3255 37.7403L23.7328 16.9314C24.0448 16.1591 23.6717 15.2802 22.8995 14.9682Z" stroke="#538F7F" stroke-width="1.5" stroke-miterlimit="10"/>
<path d="M21.3165 22.0707L24.303 23.283C25.1014 23.6083 25.4858 24.4954 25.1605 25.2938L21.7896 33.6619C21.4644 34.4603 20.5773 34.8447 19.7789 34.5194L16.7924 33.3071" stroke="#538F7F" stroke-width="1.5" stroke-miterlimit="10"/>
<path d="M21.3165 14.8853L23.3569 9.85851C23.6821 9.03056 24.6283 8.64616 25.4562 8.97142L27.674 9.85851C28.5019 10.1838 28.8863 11.13 28.561 11.9579L28.2949 12.6084C27.9697 13.4364 27.0234 13.8208 26.1955 13.4955C25.7815 13.3181 25.4267 12.9929 25.2493 12.5789L24.8649 11.6622" stroke="#538F7F" stroke-width="1.5" stroke-miterlimit="10" stroke-linecap="round"/>
<path d="M15.1958 12.4015L17.2361 7.37469C17.5614 6.54675 17.177 5.6301 16.349 5.27527L14.1313 4.38819C13.3034 4.06292 12.3868 4.44733 12.0319 5.27527L11.7658 5.92578C11.4405 6.75373 11.8249 7.67037 12.6528 8.0252C13.0668 8.20262 13.54 8.20262 13.9539 8.0252L14.8705 7.64082" stroke="#538F7F" stroke-width="1.5" stroke-miterlimit="10" stroke-linecap="round"/>
<path d="M18.3301 13.6729L23.002 2.14087C23.3273 1.31293 24.2735 0.928525 25.1014 1.25379L27.3192 2.14087C28.1471 2.46613 28.5315 3.41238 28.2062 4.24033L27.9401 4.89084C27.6149 5.71878 26.6686 6.10319 25.8407 5.77792C25.4267 5.60051 25.0719 5.27525 24.8945 4.86128L24.5101 3.94463" stroke="#538F7F" stroke-width="1.5" stroke-miterlimit="10" stroke-linecap="round"/>
<path d="M21.7896 39.0435H26.5502C27.5555 39.0435 28.0287 37.8312 27.3486 37.1511L22.4992 32.3017" stroke="#538F7F" stroke-width="1.5" stroke-miterlimit="10" stroke-linecap="round"/>
<path d="M24.4213 27.2158L34.2383 37.0328C34.948 37.7425 34.4453 38.9253 33.4399 38.9253H32.1093" stroke="#538F7F" stroke-width="1.5" stroke-miterlimit="10" stroke-linecap="round"/>
<path d="M5.43774 33.9872L10.4054 35.9979C9.60705 32.5974 9.07475 29.1378 8.80863 25.6486L5.43774 33.9872Z" fill="#FF6B2B"/>
</svg>
