<svg width="40" height="40" viewBox="0 0 40 40" fill="none" xmlns="http://www.w3.org/2000/svg">
<g clip-path="url(#clip0_5134_380372)">
<path d="M39.7395 6.32894L26.2601 30.4266C24.8443 32.9632 22.1308 34.5559 19.2403 34.5559H7.32414C5.28896 34.5559 3.40131 33.4646 2.42797 31.6654C1.15967 29.2763 1.83802 27.0936 2.89985 25.0584C3.51925 23.8786 4.19764 22.7283 5.25947 21.873C6.49827 20.8996 7.94354 20.6047 9.38881 21.342L20.3906 26.8872C21.7473 27.5951 23.4286 27.1231 24.1954 25.7663L35.7281 5.44408" stroke="#538F7F" stroke-width="1.5" stroke-linecap="round" stroke-linejoin="round"/>
<path d="M6.32119 23.2297C5.55432 23.8197 5.02336 24.7045 4.43345 25.8253C3.31263 27.9785 3.19469 29.3647 3.96157 30.81C4.61047 32.0193 5.87878 32.7567 7.29455 32.7567H9.7426C9.32967 32.2848 8.94629 31.7834 8.62184 31.2524C7.82547 29.9252 7.35354 28.3619 7.44203 26.7987C7.53051 25.4419 8.03188 24.1441 8.85774 23.0528L8.53334 22.9053C8.06141 22.6693 7.324 22.4334 6.29167 23.2592L6.32119 23.2297Z" fill="#FF6B2B"/>
</g>
<defs>
<clipPath id="clip0_5134_380372">
<rect width="40" height="40" fill="white"/>
</clipPath>
</defs>
</svg>
