<svg width="40" height="40" viewBox="0 0 40 40" fill="none" xmlns="http://www.w3.org/2000/svg">
<path d="M12.086 25.6436C6.66193 25.6436 3.27576 29.4687 3.27576 32.0396C3.27576 35.8961 11.2395 39 21.0531 39C30.8666 39 31.9012 37.934 35.1306 36.3036C35.8204 35.9588 35.6636 34.8927 34.8798 34.7673C32.4342 34.3597 27.9193 33.4192 26.3203 31.538C24.4078 29.2806 27.8567 27.8696 28.6405 27.4307C28.8286 27.3366 29.0481 27.2112 29.1735 27.0231C29.4557 26.6469 29.3302 26.0512 28.9227 25.8003C28.6718 25.6436 28.3897 25.6436 28.1075 25.6436H13.8731" stroke="#538F7F" stroke-width="1.5" stroke-linecap="round" stroke-linejoin="round"/>
<path d="M13.967 32.0396V1.00002" stroke="#538F7F" stroke-width="1.5" stroke-linecap="round" stroke-linejoin="round"/>
<path d="M13.967 4.26075C15.3466 2.91256 17.3845 2.75579 19.2971 3.10068C21.2096 3.44556 22.9654 4.29211 24.8153 4.91918C26.6651 5.54624 28.6717 5.92247 30.5215 5.26405V15.0462C28.703 15.6733 26.6651 15.2971 24.8153 14.7013C22.9654 14.0743 21.2096 13.2278 19.2971 12.8829C18.0743 12.6634 16.7888 12.6634 15.6601 13.0396" stroke="#538F7F" stroke-width="1.5" stroke-linecap="round" stroke-linejoin="round"/>
<path d="M16.6636 32.0397C16.6636 33.5133 15.4721 34.736 13.9672 34.736C12.4622 34.736 11.2708 33.5446 11.2708 32.0397" stroke="#538F7F" stroke-width="1.5" stroke-linecap="round" stroke-linejoin="round"/>
<path d="M28.4524 13.5099C28.5151 13.5099 28.5778 13.5099 28.6405 13.5099V7.49011C28.5778 7.49011 28.5151 7.49011 28.4838 7.49011C27.1983 7.49011 25.7874 7.23929 24.2197 6.70629C23.5926 6.48681 22.9969 6.26735 22.4326 6.04788C22.0563 5.89111 21.6801 5.7657 21.3038 5.64029C21.5233 6.26735 21.8369 6.86306 22.2131 7.36471C22.8402 8.1799 23.6554 8.86965 24.0002 9.8416C24.2511 10.6568 24.1257 11.5347 23.7808 12.3185C24.3451 12.538 24.8781 12.7261 25.4111 12.9142C26.5712 13.3218 27.5745 13.5099 28.4524 13.5099Z" fill="#FF6B2B"/>
</svg>
