<svg width="40" height="40" viewBox="0 0 40 40" fill="none" xmlns="http://www.w3.org/2000/svg">
<path d="M10.3289 36.0971C13.7617 35.0673 15.7096 31.4496 14.6797 28.0169C13.6499 24.5842 10.0322 22.6362 6.59944 23.6661C3.16671 24.696 1.21879 28.3136 2.24866 31.7464C3.27853 35.1791 6.89619 37.127 10.3289 36.0971Z" stroke="#538F7F" stroke-width="1.5" stroke-miterlimit="10"/>
<path d="M8.3746 32.9467C6.11748 32.9467 4.19384 31.4077 3.60391 29.3301C3.47566 29.7405 3.42432 30.2022 3.42432 30.6382C3.42432 33.357 5.63015 35.5885 8.3746 35.5885C11.1191 35.5885 13.3249 33.3827 13.3249 30.6382C13.3249 27.8938 13.248 29.7405 13.1454 29.3301C12.5554 31.4077 10.6574 32.9467 8.3746 32.9467Z" fill="#FF6B2B"/>
<path d="M8.65667 27.3808C8.65667 27.5346 8.5284 27.6629 8.37451 27.6629C8.22062 27.6629 8.09241 27.5346 8.09241 27.3808C8.09241 27.2269 8.22062 27.0986 8.37451 27.0986C8.5284 27.0986 8.65667 27.2269 8.65667 27.3808Z" stroke="#538F7F" stroke-width="1.5" stroke-miterlimit="10" stroke-linecap="round"/>
<path d="M10.5803 30.0739C10.5803 30.2278 10.452 30.3561 10.2981 30.3561C10.1442 30.3561 10.016 30.2278 10.016 30.0739C10.016 29.92 10.1442 29.7918 10.2981 29.7918C10.452 29.7918 10.5803 29.92 10.5803 30.0739Z" stroke="#538F7F" stroke-width="1.5" stroke-miterlimit="10" stroke-linecap="round"/>
<path d="M7.0152 30.0739C7.0152 30.2278 6.88699 30.3561 6.73309 30.3561C6.5792 30.3561 6.45093 30.2278 6.45093 30.0739C6.45093 29.92 6.5792 29.7918 6.73309 29.7918C6.88699 29.7918 7.0152 29.92 7.0152 30.0739Z" stroke="#538F7F" stroke-width="1.5" stroke-miterlimit="10" stroke-linecap="round"/>
<path d="M5.3479 23.0717C5.42485 21.9945 5.83527 20.9428 6.34825 19.9425C6.88688 18.9166 7.47681 17.9163 8.40018 17.1725C9.47744 16.326 10.7342 16.0695 11.9911 16.7108L21.5582 21.5328C22.738 22.1484 24.2 21.738 24.8669 20.5581L34.8957 2.88589" stroke="#538F7F" stroke-width="1.5" stroke-linecap="round" stroke-linejoin="round"/>
<path d="M38.3839 3.681L26.6623 24.6363C25.4312 26.8421 23.0714 28.2272 20.5578 28.2272H15.9667" stroke="#538F7F" stroke-width="1.5" stroke-linecap="round" stroke-linejoin="round"/>
</svg>
