<svg width="40" height="40" viewBox="0 0 40 40" fill="none" xmlns="http://www.w3.org/2000/svg">
<path d="M23.3284 15.6957C23.3284 17.2511 22.068 18.5115 20.5126 18.5115C18.9573 18.5115 17.6969 17.2511 17.6969 15.6957C17.6969 14.1404 18.9573 12.88 20.5126 12.88C22.068 12.88 23.3284 14.1404 23.3284 15.6957Z" stroke="#538F7F" stroke-width="1.49536" stroke-miterlimit="10" stroke-linecap="round"/>
<path d="M17.8579 19.9864L14.1841 17.0365C13.7014 16.6611 12.9773 16.688 12.5751 17.1439C12.146 17.6266 12.2264 18.3506 12.7359 18.7528L16.1416 21.4881C16.7316 21.9708 17.0802 22.6681 17.0802 23.4457V25.7519C17.0802 27.3877 16.8657 28.9967 16.4366 30.5789L15.1763 35.3255C14.9885 36.0763 15.4176 36.854 16.1685 37.0417C16.9193 37.2562 17.697 36.8004 17.8847 36.0495L19.8691 28.7017C19.9496 28.4068 20.2178 28.1923 20.5396 28.1923C20.8614 28.1923 21.1295 28.4068 21.21 28.7017L23.1944 36.0495C23.4089 36.8004 24.1598 37.2294 24.9107 37.0417C25.6615 36.8272 26.0906 36.0763 25.9029 35.3255L24.5888 30.4448C24.1598 28.8626 23.9452 27.2 23.9452 25.5642V23.5262C23.9452 22.7217 24.3207 21.9977 24.9643 21.515L28.4504 18.9406C28.7454 18.726 28.9063 18.3774 28.9063 18.0288C28.9063 17.0902 27.8605 16.5539 27.1096 17.117L23.1944 19.9864" stroke="#538F7F" stroke-width="1.49536" stroke-miterlimit="10" stroke-linecap="round"/>
<path d="M33.2238 6.3904C33.2238 7.94576 31.9634 9.20613 30.408 9.20613C28.8527 9.20613 27.5923 7.94576 27.5923 6.3904C27.5923 4.83504 28.8527 3.57466 30.408 3.57466C31.9634 3.57466 33.2238 4.83504 33.2238 6.3904Z" stroke="#538F7F" stroke-width="1.49536" stroke-miterlimit="10" stroke-linecap="round"/>
<path d="M26.0637 27.7364C26.8146 27.9509 27.5923 27.4951 27.78 26.7442L29.7644 19.3964C29.8449 19.1015 30.113 18.887 30.4348 18.887C30.7566 18.887 31.0248 19.1015 31.1052 19.3964L33.0897 26.7442C33.3042 27.4951 34.0551 27.9241 34.8059 27.7364C35.5568 27.5219 35.9859 26.771 35.7981 26.0201L34.4842 21.1395C34.0551 19.5573 33.8405 17.8947 33.8405 16.2589V14.2208C33.8405 13.4163 34.216 12.6923 34.8596 12.2096L38.3457 9.63525C38.6407 9.42072 38.8016 9.07207 38.8016 8.72345C38.8016 7.78487 37.7557 7.24857 37.0049 7.81172L33.0897 10.6811" stroke="#538F7F" stroke-width="1.49536" stroke-miterlimit="10" stroke-linecap="round"/>
<path d="M27.7799 10.681L24.106 7.73122C23.6234 7.35579 22.8993 7.38265 22.4971 7.83853C22.068 8.32122 22.1484 9.04527 22.6579 9.44752L26.0636 12.1828C26.6536 12.6655 27.0022 13.3627 27.0022 14.1404V15.1594" stroke="#538F7F" stroke-width="1.49536" stroke-miterlimit="10" stroke-linecap="round"/>
<path d="M13.4063 6.3904C13.4063 7.94576 12.1459 9.20613 10.5905 9.20613C9.03516 9.20613 7.77478 7.94576 7.77478 6.3904C7.77478 4.83504 9.03516 3.57466 10.5905 3.57466C12.1459 3.57466 13.4063 4.83504 13.4063 6.3904Z" stroke="#538F7F" stroke-width="1.49536" stroke-miterlimit="10" stroke-linecap="round"/>
<path d="M14.0231 15.1594V14.2208C14.0231 13.4163 14.3985 12.6923 15.0421 12.2096L18.5283 9.63525C18.8233 9.42072 18.9842 9.07207 18.9842 8.72345C18.9842 7.78487 17.9383 7.24857 17.1875 7.81172L13.2722 10.6811" stroke="#538F7F" stroke-width="1.49536" stroke-miterlimit="10" stroke-linecap="round"/>
<path d="M7.96249 10.681L4.28864 7.73122C3.80594 7.35579 3.0819 7.38265 2.67965 7.83853C2.25058 8.32122 2.33106 9.04527 2.84057 9.44752L6.24626 12.1828C6.83622 12.6655 7.18484 13.3627 7.18484 14.1404V16.4466C7.18484 18.0824 6.97033 19.6914 6.54127 21.2736L5.28084 26.0201C5.09312 26.771 5.52224 27.5487 6.2731 27.7364C7.02397 27.9509 7.80162 27.4951 7.98934 26.7442L9.97373 19.3964C10.0542 19.1014 10.3223 18.8869 10.6441 18.8869C10.9659 18.8869 11.2341 19.1014 11.3146 19.3964L13.299 26.7442C13.5136 27.4951 14.2644 27.9241 15.0153 27.7364" stroke="#538F7F" stroke-width="1.49536" stroke-miterlimit="10" stroke-linecap="round"/>
<path d="M1.39252 6.71217C1.25844 6.71217 1.15118 6.65858 1.07074 6.55131C0.936653 6.3636 0.963482 6.12222 1.1512 5.98814C2.38476 5.04956 3.88646 4.5669 5.415 4.62053C5.62953 4.62053 5.81729 4.80825 5.79047 5.02278C5.79047 5.23731 5.57594 5.425 5.38822 5.39819C4.0474 5.34455 2.67975 5.80044 1.63391 6.60493C1.55346 6.65856 1.47297 6.68539 1.39252 6.68539V6.71217Z" fill="#FF6B2B"/>
<path d="M1.20481 4.45962C1.07073 4.45962 0.936633 4.406 0.856184 4.27192C0.748918 4.0842 0.802551 3.84283 0.990267 3.70875C2.0093 3.06515 3.21605 2.74338 4.4228 2.79701C4.63733 2.79701 4.82508 2.98469 4.79827 3.22604C4.79827 3.44057 4.61053 3.62832 4.36918 3.60151C3.32333 3.54787 2.27746 3.84283 1.39251 4.37916C1.33888 4.43279 1.25848 4.43278 1.17803 4.43278L1.20481 4.45962Z" fill="#FF6B2B"/>
<path d="M21.5853 6.25632C21.4512 6.25632 21.3171 6.2027 21.2367 6.06862C21.1294 5.8809 21.183 5.63953 21.3708 5.50544C22.4434 4.83503 23.8647 4.701 25.0715 5.15688C25.286 5.23733 25.3933 5.47865 25.3128 5.66637C25.2324 5.8809 24.991 5.98814 24.8033 5.90769C23.8379 5.53226 22.6848 5.63955 21.8267 6.2027C21.7731 6.25633 21.6926 6.25632 21.6121 6.25632H21.5853Z" fill="#FF6B2B"/>
<path d="M21.5048 4.35235C21.3439 4.35235 21.183 4.24509 21.1294 4.08419C21.049 3.86965 21.183 3.65508 21.3707 3.57463C22.3898 3.22602 23.4893 3.1724 24.5351 3.38693C24.7496 3.44056 24.8837 3.65511 24.8569 3.86964C24.8033 4.08417 24.5888 4.21824 24.3742 4.19143C23.4625 4.00371 22.5238 4.05737 21.6389 4.35235C21.5853 4.35235 21.5584 4.35235 21.5048 4.35235Z" fill="#FF6B2B"/>
<path d="M30.6494 17.1975C30.4617 17.1975 30.274 17.0634 30.2472 16.8757C30.1131 16.098 29.4695 15.4008 28.7186 15.1863C28.5041 15.1326 28.37 14.9181 28.4505 14.7036C28.5041 14.489 28.7187 14.3549 28.9332 14.4354C30.0059 14.7304 30.864 15.6689 31.0517 16.7684C31.0785 16.9829 30.9444 17.1975 30.7299 17.2243C30.7299 17.2243 30.6762 17.2243 30.6494 17.2243V17.1975Z" fill="#FF6B2B"/>
<path d="M31.7757 15.7494C31.6148 15.7494 31.4539 15.6421 31.4003 15.4812C31.1858 14.8108 30.6226 14.2744 29.9522 14.0867C29.7376 14.0331 29.6035 13.7918 29.684 13.5772C29.7644 13.3627 29.979 13.2554 30.1936 13.3091C31.1053 13.5772 31.883 14.3013 32.178 15.2131C32.2584 15.4276 32.1512 15.6421 31.9366 15.7226C31.883 15.7226 31.8562 15.7226 31.8025 15.7226L31.7757 15.7494Z" fill="#FF6B2B"/>
</svg>
