<svg width="40" height="40" viewBox="0 0 40 40" fill="none" xmlns="http://www.w3.org/2000/svg">
<path d="M35.9595 8.46508C36.2413 6.72517 35.0592 5.08627 33.3193 4.80446C31.5794 4.52266 29.9404 5.70465 29.6586 7.44456C29.3768 9.18448 30.5589 10.8234 32.2988 11.1052C34.0387 11.387 35.6776 10.205 35.9595 8.46508Z" stroke="#538F7F" stroke-width="1.5" stroke-miterlimit="10" stroke-linecap="round"/>
<path d="M32.8948 9.82154C32.0549 9.82154 31.3831 9.14968 31.3831 8.30983C31.3831 7.46997 32.0549 6.79811 32.8948 6.79811C33.7347 6.79811 34.4065 7.46997 34.4065 8.30983C34.4065 9.14968 33.7347 9.82154 32.8948 9.82154Z" fill="#FF6B2B"/>
<path d="M18.0294 14.3288L26.232 10.7453C27.0998 10.3814 28.0797 10.5774 28.7236 11.2493L30.4313 13.041C30.6552 13.2929 30.8512 13.6009 30.9352 13.9369L33.7067 23.2592C33.9586 24.0711 33.3428 24.8829 32.5029 24.8829C31.971 24.8829 31.4671 24.519 31.2991 24.0151L29.1155 17.2963C28.9475 16.7644 28.3596 16.5124 27.8557 16.7364L22.6206 18.976C21.8927 19.2839 21.3888 20.0117 21.3888 20.8236V33.0295C21.3888 33.9533 20.6329 34.7372 19.6811 34.7372C18.7572 34.7372 17.9734 33.9813 17.9734 33.0295V16.9883" stroke="#538F7F" stroke-width="1.5" stroke-miterlimit="10" stroke-linecap="round"/>
<path d="M18.0294 14.3288L10.8627 16.7084C10.4987 16.8204 10.1068 16.8204 9.74284 16.7084L3.16397 14.7207C2.35211 14.4687 1.51226 14.8886 1.17632 15.6725C0.812378 16.5684 1.28828 17.5763 2.21213 17.8562L9.68687 20.1798C10.0228 20.2917 10.3867 20.2917 10.7227 20.1798L16.8816 18.472" stroke="#538F7F" stroke-width="1.5" stroke-miterlimit="10" stroke-linecap="round"/>
<path d="M34.6305 21.7475C37.206 22.6714 39.0537 25.1349 39.0537 28.0465C39.0537 30.958 36.0582 34.7373 32.3629 34.7373C28.6675 34.7373 25.672 31.7418 25.672 28.0465C25.672 24.3511 27.2117 23.1193 29.4234 22.0275" stroke="#538F7F" stroke-width="1.5" stroke-miterlimit="10" stroke-linecap="round"/>
</svg>
