<svg width="40" height="40" viewBox="0 0 40 40" fill="none" xmlns="http://www.w3.org/2000/svg">
<path d="M19.6693 12.3709C21.6227 12.3709 23.2063 10.7873 23.2063 8.83395C23.2063 6.88056 21.6227 5.297 19.6693 5.297C17.7159 5.297 16.1324 6.88056 16.1324 8.83395C16.1324 10.7873 17.7159 12.3709 19.6693 12.3709Z" stroke="#538F7F" stroke-width="1.5" stroke-miterlimit="10" stroke-linecap="round"/>
<path d="M19.6694 10.6171C18.6755 10.6171 17.8864 9.79856 17.8864 8.83395C17.8864 7.86933 18.7048 7.05084 19.6694 7.05084C20.634 7.05084 21.4525 7.86933 21.4525 8.83395C21.4525 9.79856 20.634 10.6171 19.6694 10.6171Z" fill="#FF6B2B"/>
<path d="M20.9847 39H21.4231C22.417 39 23.2063 38.2109 23.2063 37.217V18.3632C23.2063 17.837 23.7909 17.5154 24.2293 17.8077L27.3278 19.7662C27.5032 19.8831 27.7078 19.9416 27.8832 19.9416H32.9693C33.7001 19.9416 34.2847 19.357 34.2847 18.6262C34.2847 17.8955 33.7001 17.3109 32.9693 17.3109H28.6432C28.4386 17.3109 28.234 17.2524 28.0586 17.1354L24.0539 14.5339C23.4985 14.1832 22.8555 13.9786 22.1832 13.9786H17.1262C16.4539 13.9786 15.8109 14.1832 15.2555 14.5339L11.2509 17.1354C11.0755 17.2524 10.8709 17.3109 10.6662 17.3109H6.57393C5.84316 17.3109 5.25854 17.8955 5.25854 18.6262C5.25854 19.357 5.84316 19.9416 6.57393 19.9416H11.397C11.6016 19.9416 11.8062 19.8831 11.9524 19.7662L15.0509 17.8077C15.4894 17.5154 16.074 17.837 16.074 18.3632V37.1293C16.074 38.0939 16.8339 38.9417 17.7986 38.9709C18.7924 39.0001 19.6401 38.1816 19.6401 37.1878V26.7231" stroke="#538F7F" stroke-width="1.5" stroke-miterlimit="10" stroke-linecap="round"/>
<path d="M33.0279 16.0831C33.4079 15.9077 33.8463 15.7908 34.2847 15.7908C35.8632 15.7908 37.1494 17.077 37.1494 18.6555C37.1494 20.234 35.8632 21.5201 34.2847 21.5201C32.7063 21.5201 33.3494 21.4031 32.9694 21.1985" stroke="#538F7F" stroke-width="1.5" stroke-miterlimit="10" stroke-linecap="round"/>
<path d="M34.2847 15.7908L31.2155 1" stroke="#538F7F" stroke-width="1.5" stroke-miterlimit="10" stroke-linecap="round"/>
<path d="M6.22317 16.0538C5.84317 15.8785 5.43392 15.7615 4.99545 15.7615C3.41699 15.7615 2.13086 17.0478 2.13086 18.6262C2.13086 20.2047 3.41699 21.4908 4.99545 21.4908C6.57392 21.4908 5.93087 21.3738 6.3401 21.1692" stroke="#538F7F" stroke-width="1.5" stroke-miterlimit="10" stroke-linecap="round"/>
<path d="M4.99536 15.7908L8.03537 1" stroke="#538F7F" stroke-width="1.5" stroke-miterlimit="10" stroke-linecap="round"/>
</svg>
