<svg width="40" height="40" viewBox="0 0 40 40" fill="none" xmlns="http://www.w3.org/2000/svg">
<g clip-path="url(#clip0_5134_380375)">
<path d="M30.4178 9.23832C30.8188 7.39929 29.653 5.58336 27.814 5.18238C25.975 4.78141 24.1591 5.94724 23.7581 7.78627C23.3572 9.6253 24.5229 11.4412 26.3619 11.8421C28.201 12.2431 30.0168 11.0774 30.4178 9.23832Z" stroke="#538F7F" stroke-width="1.5" stroke-linecap="round" stroke-linejoin="round"/>
<path d="M27.2496 10.5067C26.3174 10.5067 25.5892 9.74932 25.5892 8.84632C25.5892 7.94332 26.3466 7.18591 27.2496 7.18591C28.1526 7.18591 28.91 7.94332 28.91 8.84632C28.91 9.74932 28.1526 10.5067 27.2496 10.5067Z" fill="#FF6B2B"/>
<path d="M29.8713 23.7312C30.483 23.236 30.6578 22.3913 30.25 21.7213L27.2206 16.7402L26.9293 14.0604" stroke="#538F7F" stroke-width="1.5" stroke-linecap="round" stroke-linejoin="round"/>
<path d="M22.6763 18.4879L20.6665 20.1483C20.2295 20.4978 20.113 21.1095 20.3752 21.6047L22.7929 25.8284C23.0259 26.2362 23.0841 26.7315 22.9094 27.1684L20.7829 33.2272C20.5208 33.9555 19.8508 34.4506 19.0644 34.4506C17.7827 34.4506 16.9088 33.169 17.3749 31.9747L18.977 27.7801C19.1517 27.3141 19.1226 26.7606 18.8313 26.3237L16.5592 22.8573L12.1317 26.7897C11.6073 27.1975 10.9082 27.2849 10.2965 27.0519L2.69386 23.9642C1.67434 23.5564 1.17917 22.3913 1.6161 21.3718C2.05303 20.3522 3.2182 19.8861 4.20859 20.3231L9.65569 22.6826C10.3548 23.003 11.1995 22.6825 11.5491 22.0126L12.2482 20.6726C13.2094 18.8375 14.4911 17.1771 16.0349 15.7789L20.6955 11.5261C21.5112 10.7688 22.8511 11.2057 23.055 12.3126L24.1328 17.8471L32.8715 31.8873C33.3958 32.732 34.5318 32.9651 35.3474 32.4116L38.7555 30.1104C39.4837 29.6152 39.6877 28.6248 39.1634 27.8675C38.6682 27.1392 37.6487 26.9354 36.9204 27.4597L34.0658 29.4405" stroke="#538F7F" stroke-width="1.5" stroke-linecap="round" stroke-linejoin="round"/>
</g>
<defs>
<clipPath id="clip0_5134_380375">
<rect width="40" height="40" fill="white"/>
</clipPath>
</defs>
</svg>
