<svg width="40" height="40" viewBox="0 0 40 40" fill="none" xmlns="http://www.w3.org/2000/svg">
<path d="M12.7099 18.4865C11.7639 18.6217 10.845 19.0001 10.0882 19.7569C10.0882 19.7569 2.03414 18.0812 3.43955 28.0001C3.43955 28.0001 6.19635 27.2973 6.06122 23.8649" stroke="#538F7F" stroke-width="1.5" stroke-miterlimit="10" stroke-linecap="round" stroke-linejoin="round"/>
<path d="M31.764 11C30.0072 11.2703 27.7099 12.2974 25.6288 15.5406C25.6288 15.5406 23.4936 18.8649 20.4396 18.8649" stroke="#538F7F" stroke-width="1.5" stroke-miterlimit="10" stroke-linecap="round" stroke-linejoin="round"/>
<path d="M24.1963 30.1352L23.4395 32.4055C22.7368 34.5406 22.8989 36.8649 23.8719 38.8649V38.946H27.2503L26.7639 37.973C26.0071 36.4595 25.899 34.7028 26.4665 33.1082C27.4936 30.2974 28.3314 27.9731 28.3314 27.9731L29.2503 28.0541C33.034 28.3514 35.1152 30.973 35.1152 34.4595H37.926C37.926 34.2974 37.926 34.1351 37.926 33.973C37.7908 30.2162 35.5205 26.8108 32.0611 25.3243C31.4394 25.0541 30.8178 24.8649 30.1962 24.7838H30.1422C31.7098 22.2162 31.3584 19.7028 31.1422 17.946C31.0881 17.4865 31.6287 17.1892 31.98 17.5135L34.4125 19.7569C35.4395 20.7028 37.0611 19.7028 36.6827 18.3514L34.4125 11.2163" stroke="#538F7F" stroke-width="1.5" stroke-miterlimit="10" stroke-linecap="round" stroke-linejoin="round"/>
<path d="M9.22326 21.6217C9.22326 21.6217 8.1152 24.919 11.5747 27.5676C12.953 28.6217 13.8719 30.1352 14.0881 31.8379C14.0881 31.9189 14.0881 32 14.0881 32.0811C14.1151 32.4324 14.1692 32.7839 14.2233 33.1352C14.5476 34.6487 14.8989 35.5676 15.8449 36.8379C16.2773 37.4054 17.0071 38.2973 17.2774 38.973H20.8179L19.3854 36.7839C18.2773 35.1082 17.5206 33.2432 17.1423 31.2703L16.8449 29.7838" stroke="#538F7F" stroke-width="1.5" stroke-miterlimit="10" stroke-linecap="round" stroke-linejoin="round"/>
<path d="M9.79087 25.5946C8.2233 27.5946 6.62868 29.5946 5.57463 31.8379C4.89895 33.2973 4.89895 34.973 5.57463 36.4325C5.92598 37.1622 6.33149 38.0541 6.62879 39H9.49354L8.25041 34.946C7.98014 34.0811 8.14227 33.1622 8.62876 32.4325L11.0341 28.973" stroke="#538F7F" stroke-width="1.5" stroke-miterlimit="10" stroke-linecap="round" stroke-linejoin="round"/>
<path d="M23.4935 22.8919C23.4935 22.8919 23.4935 27.7569 28.3043 28.0001" stroke="#538F7F" stroke-width="1.5" stroke-miterlimit="10" stroke-linecap="round" stroke-linejoin="round"/>
<path d="M34.3584 11.2163L33.8449 9.4325C33.7098 9.00007 33.1422 8.91896 32.899 9.27031L31.7639 11" stroke="#538F7F" stroke-width="1.5" stroke-miterlimit="10" stroke-linecap="round" stroke-linejoin="round"/>
<path d="M20.8449 6.67567C22.4122 6.67567 23.6828 5.40513 23.6828 3.83784C23.6828 2.27054 22.4122 1 20.8449 1C19.2776 1 18.0071 2.27054 18.0071 3.83784C18.0071 5.40513 19.2776 6.67567 20.8449 6.67567Z" stroke="#538F7F" stroke-width="1.5" stroke-miterlimit="10" stroke-linecap="round" stroke-linejoin="round"/>
<path d="M20.8449 5.05404C21.5166 5.05404 22.0611 4.50952 22.0611 3.83783C22.0611 3.16613 21.5166 2.62161 20.8449 2.62161C20.1732 2.62161 19.6287 3.16613 19.6287 3.83783C19.6287 4.50952 20.1732 5.05404 20.8449 5.05404Z" fill="#FF6B2B"/>
<path d="M25.8989 12.0811L17.7098 7.43252C17.2503 7.16225 16.6557 7.32436 16.3584 7.78382L12.4395 14.0541C11.8179 15.0541 12.0341 16.3243 12.926 17.0811L17.5476 20.9731L17.8718 26.5946C17.9259 27.3514 18.5476 27.946 19.3044 27.946C20.1422 27.946 20.7908 27.2433 20.7367 26.4325L20.4125 19.1081L16.8449 15.8379L19.4935 11.3514L24.5746 14.0541" stroke="#538F7F" stroke-width="1.5" stroke-miterlimit="10" stroke-linecap="round" stroke-linejoin="round"/>
</svg>
