<svg width="40" height="40" viewBox="0 0 40 40" fill="none" xmlns="http://www.w3.org/2000/svg">
<g clip-path="url(#clip0_5134_380381)">
<path d="M9.16796 26.3727L5.70211 29.8385C5.37903 30.1615 4.85046 30.1909 4.49801 29.8972C3.11758 28.693 0.356625 25.5796 3.96925 21.9376L7.20005 19.2943C8.37489 18.325 9.43222 17.1796 10.2546 15.9166C11.635 13.8313 14.161 10.4243 17.0687 8.75012" stroke="#538F7F" stroke-width="1.5" stroke-linecap="round" stroke-linejoin="round"/>
<path d="M6.23083 31.2482C6.40706 31.3363 6.61263 31.3951 6.78885 31.4538C7.58187 31.6594 8.49243 31.6007 9.19733 31.1601C9.90223 30.7196 10.4309 29.9559 10.4602 29.1335L13.6616 26.4901" stroke="#538F7F" stroke-width="1.5" stroke-linecap="round" stroke-linejoin="round"/>
<path d="M24.382 17.7375C24.382 17.7375 26.0268 26.4901 15.3358 26.1377" stroke="#538F7F" stroke-width="1.5" stroke-linecap="round" stroke-linejoin="round"/>
<path d="M21.3275 24.9335C21.3275 24.9335 28.1416 28.2524 28.1416 35.5658" stroke="#538F7F" stroke-width="1.5" stroke-linecap="round" stroke-linejoin="round"/>
<path d="M15.8644 15.476H15.9232V15.5348H15.8644V15.476Z" stroke="#538F7F" stroke-width="1.5" stroke-linecap="round" stroke-linejoin="round"/>
<path d="M16.0701 13.6844C15.5708 13.7432 15.0715 13.9781 14.719 14.3599C14.3666 14.7417 14.161 15.2411 14.1316 15.7697" stroke="#538F7F" stroke-width="1.5" stroke-linecap="round" stroke-linejoin="round"/>
<path d="M4.32163 24.3754C3.93981 24.9922 3.91035 25.844 4.23343 26.4901" stroke="#538F7F" stroke-width="1.5" stroke-linecap="round" stroke-linejoin="round"/>
<path d="M21.0044 10.3361C19.8002 9.77807 18.8016 8.8382 18.2141 7.69273C17.6267 6.51789 17.5386 4.49131 17.7736 3.22836C19.1246 3.96264 20.5639 5.16682 21.68 6.57662C22.1206 7.16404 22.7666 7.54588 23.4715 7.69273C25.0575 8.07455 26.5262 8.89697 27.701 10.0718L35.3667 17.7376L37.2466 19.4705" stroke="#538F7F" stroke-width="1.5" stroke-linecap="round" stroke-linejoin="round"/>
<path d="M14.5133 10.7179L11.8407 8.04517C11.8407 8.04517 13.1623 5.98923 16.3344 4.4032" stroke="#538F7F" stroke-width="1.5" stroke-linecap="round" stroke-linejoin="round"/>
<path d="M15.3358 26.1377C15.3358 26.1377 12.8393 20.3516 7.87561 18.6775" stroke="#538F7F" stroke-width="1.5" stroke-linecap="round" stroke-linejoin="round"/>
<path d="M15.3358 26.1377C16.3638 28.6049 16.8337 31.9826 16.1875 34.5672C15.9819 35.3309 15.7176 36.1238 15.1596 36.6818C14.6015 37.2693 13.7204 37.563 12.9861 37.2693C12.2519 36.9755 11.8407 36.1239 11.8407 35.3015C11.8407 34.5085 12.193 33.7448 12.6042 33.0399C13.1329 32.1587 13.7498 31.3657 14.4547 30.6314" stroke="#538F7F" stroke-width="1.5" stroke-linecap="round" stroke-linejoin="round"/>
<path d="M12.3694 21.7026C12.3694 21.7026 21.3275 18.2369 25.5863 8.48572" stroke="#538F7F" stroke-width="1.5" stroke-linecap="round" stroke-linejoin="round"/>
<path d="M20.5933 3.14022L22.5612 2.78779C24.4703 2.43533 26.438 2.96401 27.9066 4.25633L40.1837 15.0942" stroke="#538F7F" stroke-width="1.5" stroke-linecap="round" stroke-linejoin="round"/>
<path d="M28.9934 30.7782C28.9934 30.6607 29.0521 30.5434 29.0521 30.4259C29.3458 28.1056 28.9933 25.7265 28.0241 23.6118C27.5248 22.5544 26.8787 21.5558 26.0857 20.7335C25.8801 21.9964 25.3514 23.4649 24.2646 24.7279C25.8213 25.9321 27.8479 27.8999 28.9934 30.7782Z" fill="#FF6B2B"/>
</g>
<defs>
<clipPath id="clip0_5134_380381">
<rect width="40" height="40" fill="white"/>
</clipPath>
</defs>
</svg>
