<svg width="40" height="40" viewBox="0 0 40 40" fill="none" xmlns="http://www.w3.org/2000/svg">
<path d="M13.8215 8.23535C15.8195 8.23535 17.4391 6.61567 17.4391 4.61768C17.4391 2.61968 15.8195 1 13.8215 1C11.8235 1 10.2037 2.61968 10.2037 4.61768C10.2037 6.61567 11.8235 8.23535 13.8215 8.23535Z" stroke="#538F7F" stroke-width="1.5" stroke-linecap="round" stroke-linejoin="round"/>
<path d="M13.8216 6.52623C12.7676 6.52623 11.913 5.67167 11.913 4.6177C11.913 3.56373 12.7676 2.70917 13.8216 2.70917C14.8755 2.70917 15.73 3.56373 15.73 4.6177C15.73 5.67167 14.8755 6.52623 13.8216 6.52623Z" fill="#FF6B2B"/>
<path d="M16.1004 16.6672L11.6851 17.3224L5.58902 21.6807C4.79142 22.2504 4.59213 23.3613 5.13336 24.1874C5.70307 25.042 6.87099 25.2414 7.69708 24.6432L13.8784 20.2279L20.7435 22.1934" stroke="#538F7F" stroke-width="1.5" stroke-linecap="round" stroke-linejoin="round"/>
<path d="M15.4164 14.3314L21.9681 21.1964L22.5378 27.1784C22.6233 28.0045 23.307 28.6597 24.1616 28.6597H33.8752C34.7868 28.6597 35.5844 27.9476 35.6129 27.0645C35.6129 26.1245 34.9007 25.3554 33.9606 25.3554H28.2066C27.5229 25.3554 26.9531 24.7857 26.9531 24.102V18.0346C26.9531 17.4933 26.7537 16.9521 26.3834 16.5248L19.5753 8.74818C19.0911 8.17846 18.2651 8.06456 17.6384 8.43488L12.5394 11.4543H5.67436C5.01918 11.4543 4.42096 11.9386 4.36398 12.5938C4.27853 13.3344 4.8767 13.9611 5.61733 13.9611H13.8782L18.9487 11.027" stroke="#538F7F" stroke-width="1.5" stroke-linecap="round" stroke-linejoin="round"/>
<path d="M19.3475 35.5533V25.8396H15.5304V35.5533H9.12116C8.2381 35.5533 7.55444 36.2654 7.55444 37.12V39H27.3235V37.12C27.3235 36.2369 26.6114 35.5533 25.7568 35.5533H19.3475Z" stroke="#538F7F" stroke-width="1.5" stroke-linecap="round" stroke-linejoin="round"/>
</svg>
