<svg width="40" height="40" viewBox="0 0 40 40" fill="none" xmlns="http://www.w3.org/2000/svg">
<path d="M25.6943 30.7323L27.2717 33.5492C27.666 34.2534 27.1591 35.0985 26.3704 35.0985H11.6943C10.8774 35.0985 10.3704 34.169 10.8211 33.4647L11.5817 32.2816" stroke="#538F7F" stroke-width="1.5" stroke-linecap="round" stroke-linejoin="round"/>
<path d="M26.9619 11.2112C26.9619 11.2112 27.1027 9.1549 25.8069 7.32392C24.9619 6.14083 23.5816 5.46475 22.145 5.46475C21.2717 5.46475 20.5957 6.22532 20.7365 7.09856L21.1027 9.8028C21.2717 10.9296 21.2999 12.0844 21.1872 13.2112C20.8211 16.845 19.2435 18.4788 16.8773 19.8309C14.5393 21.1548 10.5957 23.1267 6.06047 24.3098C4.59569 24.7042 3.55347 25.9999 3.55347 27.521V30.7041H10.7647C13.7506 30.7041 16.7084 30.3943 19.6098 29.8027C26.9055 28.2816 29.6379 28.5069 35.1027 28.5069C35.1027 28.5069 37.5815 25.2957 35.6379 21.8027C34.99 20.6196 34.4829 19.3802 34.2294 18.0844C33.6097 14.9295 32.7365 9.23937 32.99 3.69009C33.0182 2.81685 32.3702 2.11267 31.497 2.11267C31.0181 2.11267 30.5674 2.33801 30.2858 2.73237L29.7506 3.52112C29.2999 4.169 29.0464 4.92958 29.0464 5.71831C29.0464 6.39436 29.2153 7.04223 29.5533 7.60561C29.9477 8.28167 30.3984 9.21121 30.4266 9.83093C30.4266 9.83093 30.3703 11.0986 28.7929 11.2112C28.7929 11.2112 26.5956 11.1549 23.9196 11.4647" stroke="#538F7F" stroke-width="1.5" stroke-linecap="round" stroke-linejoin="round"/>
<path d="M20.5112 16.1126L22.6803 17.3239" stroke="#538F7F" stroke-width="1.5" stroke-linecap="round" stroke-linejoin="round"/>
<path d="M22.9055 15.8873C23.6097 15.9999 24.1451 16.5915 24.1451 17.3239C24.1451 18.0563 23.4971 18.7605 22.7084 18.7605C21.9197 18.7605 21.7506 18.507 21.4971 18.1127" stroke="#538F7F" stroke-width="1.5" stroke-linecap="round" stroke-linejoin="round"/>
<path d="M17.7507 19.3802L19.2436 21.4084" stroke="#538F7F" stroke-width="1.5" stroke-linecap="round" stroke-linejoin="round"/>
<path d="M20.0325 20.1689C20.624 20.5633 20.8775 21.3238 20.5676 21.9999C20.2296 22.7323 19.3846 23.0421 18.6522 22.7041C18.2015 22.4788 17.8915 22.0563 17.8352 21.6056" stroke="#538F7F" stroke-width="1.5" stroke-linecap="round" stroke-linejoin="round"/>
<path d="M13.469 21.6901L14.4549 23.9999" stroke="#538F7F" stroke-width="1.5" stroke-linecap="round" stroke-linejoin="round"/>
<path d="M15.4969 23.014C15.9758 23.521 16.0321 24.3379 15.5814 24.9013C15.0744 25.521 14.173 25.6337 13.5533 25.1548C13.159 24.845 12.9618 24.3661 13.0181 23.8872" stroke="#538F7F" stroke-width="1.5" stroke-linecap="round" stroke-linejoin="round"/>
<path d="M35.1027 28.507L38.5675 33.5492C38.9055 33.9999 39.0746 34.5633 39.0746 35.1267C39.0746 36.6478 37.8351 37.8872 36.3139 37.8872H3.83522C2.3141 37.8872 1.07458 36.6478 1.07458 35.1267C1.07458 34.5633 1.24368 33.9999 1.58171 33.5492L3.58173 30.7041" stroke="#538F7F" stroke-width="1.5" stroke-linecap="round" stroke-linejoin="round"/>
<path d="M32.9902 19.9436C30.7367 20.5915 26.8494 22.3661 25.6945 27.0985C27.9198 26.845 29.7508 26.8168 31.7226 26.8168C33.6944 26.8168 32.7367 26.8168 33.2719 26.8168C33.5536 26.8168 33.8633 26.8168 34.1732 26.8168C34.5957 25.9436 35.1309 24.3098 34.1732 22.6197C33.6662 21.7182 33.2719 20.8168 32.9902 19.9436Z" fill="#FF6B2B"/>
</svg>
