<svg width="40" height="40" viewBox="0 0 40 40" fill="none" xmlns="http://www.w3.org/2000/svg">
<path d="M9.36401 19.1205C10.26 19.1504 11.1262 18.8218 11.7833 18.2245" stroke="#538F7F" stroke-width="1.5" stroke-linecap="round" stroke-linejoin="round"/>
<path d="M8.25916 21.271C10.2304 21.5398 12.2912 20.7632 13.5755 19.2997" stroke="#538F7F" stroke-width="1.5" stroke-linecap="round" stroke-linejoin="round"/>
<path d="M26.3277 6.64692C26.8589 4.39952 25.4677 2.14697 23.2203 1.61571C20.9729 1.08445 18.7204 2.47565 18.1891 4.72305C17.6578 6.97045 19.0491 9.223 21.2964 9.75426C23.5438 10.2855 25.7964 8.89432 26.3277 6.64692Z" stroke="#538F7F" stroke-width="1.5" stroke-linecap="round" stroke-linejoin="round"/>
<path d="M21.7889 7.77096C20.4748 7.77096 19.3995 6.69574 19.3995 5.38157C19.3995 4.06741 20.4748 2.99219 21.7889 2.99219C23.1031 2.99219 24.1783 4.06741 24.1783 5.38157C24.1783 6.69574 23.1031 7.77096 21.7889 7.77096Z" fill="#FF6B2B"/>
<path d="M10.1406 10.6681L16.801 13.4756L19.758 11.1759" stroke="#538F7F" stroke-width="1.5" stroke-linecap="round" stroke-linejoin="round"/>
<path d="M26.747 9.20457L32.9893 4.36608C33.7359 3.76873 34.841 3.94795 35.3487 4.75437C35.7968 5.44131 35.6773 6.39708 35.0202 6.9347L28.3897 12.2809L30.3907 18.8517L34.0047 27.9613C34.0644 28.1405 34.1242 28.3197 34.154 28.4989L35.6474 36.1449C35.9162 37.4591 34.9008 38.6538 33.5866 38.6538C32.601 38.6538 31.7349 37.9668 31.5258 36.9812L30.0025 29.7832C29.9428 29.5443 29.8831 29.3053 29.7636 29.0663L28.2404 25.094C27.9716 24.407 26.986 24.437 26.7769 25.1538L25.851 28.3794C25.7315 28.7677 25.5523 29.156 25.2835 29.4845L18.3543 37.8175C17.6374 38.7135 16.3233 38.8629 15.4273 38.1461C14.5014 37.4292 14.3222 36.0553 15.0987 35.1593L20.4151 28.8274C20.654 28.5287 20.8332 28.2002 20.9825 27.8418L21.9383 25.0044C22.8045 22.3761 22.8344 19.5686 21.9383 16.9403L21.1021 14.4015L17.3984 17.2687L9.42395 13.8937" stroke="#538F7F" stroke-width="1.5" stroke-linecap="round" stroke-linejoin="round"/>
<path d="M13.6353 1.20016L4.43604 25.8109" stroke="#538F7F" stroke-width="1.5" stroke-linecap="round" stroke-linejoin="round"/>
</svg>
