<svg width="40" height="40" viewBox="0 0 40 40" fill="none" xmlns="http://www.w3.org/2000/svg">
<path d="M16.1346 5.74258L11.9761 7.60962C10.788 8.1471 9.91103 9.13719 9.51499 10.3536L3.8291 27.9491L9.71306 29.8444L12.372 20.7072C12.5135 20.198 12.9944 19.8868 13.5036 19.9717" stroke="#538F7F" stroke-width="1.5" stroke-miterlimit="10" stroke-linecap="round"/>
<path d="M17.8883 2.88547C16.9265 3.22493 16.2759 4.10185 16.191 5.09195L16.1346 5.7426C16.1346 5.7426 19.2746 7.60965 20.6042 9.9576" stroke="#538F7F" stroke-width="1.5" stroke-miterlimit="10" stroke-linecap="round"/>
<path d="M24.6212 5.74259C24.6212 5.74259 15.6537 12.9279 13.3906 25.7426L11.5518 35.5304C11.3821 36.3791 12.0327 37.1712 12.9096 37.1712H27.8459C28.7229 37.1712 29.3734 36.3791 29.2037 35.5304L27.3649 25.7426L26.5729 20.1698C26.5163 19.7737 26.7427 19.4059 27.1387 19.2645C27.563 19.1231 28.0441 19.3777 28.1572 19.802L31.0709 29.7879L36.9549 27.8925L31.269 10.297C30.8729 9.08063 29.9677 8.06226 28.8078 7.55307L24.6494 5.68599L24.5927 5.03538C24.5079 4.01699 23.8289 3.16832 22.8954 2.82886" stroke="#538F7F" stroke-width="1.5" stroke-miterlimit="10" stroke-linecap="round"/>
<path d="M22.8388 2.88547H17.8883" stroke="#538F7F" stroke-width="1.5" stroke-miterlimit="10" stroke-linecap="round"/>
<path d="M13.8431 23.5361C18.0581 24.2716 22.7258 24.3282 26.9125 23.5361H27.0258" stroke="#538F7F" stroke-width="1.5" stroke-miterlimit="10" stroke-linecap="round"/>
<path d="M13.3058 26.4215L14.5221 26.6195C18.5108 27.2702 22.6127 27.2702 26.6014 26.563L27.3934 26.4215" stroke="#538F7F" stroke-width="1.5" stroke-miterlimit="10" stroke-linecap="round"/>
<path d="M21.3114 27.1287V33.3239H24.6212V26.8741" stroke="#538F7F" stroke-width="1.5" stroke-miterlimit="10" stroke-linecap="round"/>
<path d="M21.3114 30.7213H18.5392V27.0721" stroke="#538F7F" stroke-width="1.5" stroke-miterlimit="10" stroke-linecap="round"/>
<path d="M32.1741 27.6945L34.7767 26.8741L33.136 21.7539C32.5702 22.6309 31.9195 23.4795 31.184 24.2433L32.2025 27.7228L32.1741 27.6945Z" fill="#FF6B2B"/>
<path d="M8.38349 27.6945L5.78088 26.8741L7.42156 21.7539C7.98734 22.6309 8.63808 23.4795 9.37358 24.2433L8.35531 27.7228L8.38349 27.6945Z" fill="#FF6B2B"/>
</svg>
