<svg width="40" height="40" viewBox="0 0 40 40" fill="none" xmlns="http://www.w3.org/2000/svg">
<path d="M7.21886 11.4596C9.15354 11.4596 10.7219 9.89124 10.7219 7.95655C10.7219 6.02187 9.15354 4.45349 7.21886 4.45349C5.28418 4.45349 3.7157 6.02187 3.7157 7.95655C3.7157 9.89124 5.28418 11.4596 7.21886 11.4596Z" stroke="#538F7F" stroke-width="1.5" stroke-miterlimit="10" stroke-linecap="round"/>
<path d="M7.21893 9.83026C6.18702 9.83026 5.34509 8.98847 5.34509 7.95656C5.34509 6.92465 6.18702 6.08282 7.21893 6.08282C8.25083 6.08282 9.09263 6.92465 9.09263 7.95656C9.09263 8.98847 8.25083 9.83026 7.21893 9.83026Z" fill="#FF6B2B"/>
<path d="M12.4055 8.79839L19.5203 7.35913L24.3269 3.20437C24.87 2.71557 25.7118 2.76985 26.2006 3.31296C26.6894 3.85607 26.6621 4.69789 26.119 5.21385L21.1224 9.77598L15.8543 11.0523" stroke="#538F7F" stroke-width="1.5" stroke-miterlimit="10" stroke-linecap="round"/>
<path d="M15.8543 11.1066L20.9595 14.9084L32.4192 8.55398C33.3696 8.03802 34.5644 8.39104 35.0803 9.36864C35.5691 10.3191 35.2434 11.4596 34.3472 12.0027L25.5759 17.298C23.1591 18.7644 21.3669 21.0998 20.6065 23.8153L19.7647 26.8024C19.4931 27.8072 19.3302 28.8663 19.3302 29.9253V35.3293C19.3302 36.4155 18.4613 37.2845 17.3751 37.2845C16.2888 37.2845 15.4198 36.4155 15.4198 35.3293V29.1378C15.4198 28.5676 15.4741 27.9973 15.5556 27.427L16.5876 20.6653L10.8849 16.076V25.5533C10.8849 26.2865 10.2875 26.9111 9.52716 26.9111H9.2556C8.5224 26.9111 7.89783 26.3136 7.89783 25.5533V13.2247" stroke="#538F7F" stroke-width="1.5" stroke-miterlimit="10" stroke-linecap="round"/>
</svg>
