<svg width="40" height="40" viewBox="0 0 40 40" fill="none" xmlns="http://www.w3.org/2000/svg">
<path d="M5.01868 33.7378H35.6517" stroke="#538F7F" stroke-width="1.5" stroke-linecap="round" stroke-linejoin="round"/>
<path d="M37.8554 28.606H36.5017C36.0322 28.606 35.6516 28.9866 35.6516 29.4561V38.0509C35.6516 38.5204 36.0322 38.901 36.5017 38.901H37.8554C38.3249 38.901 38.7055 38.5204 38.7055 38.0509V29.4561C38.7055 28.9866 38.3249 28.606 37.8554 28.606Z" stroke="#538F7F" stroke-width="1.5" stroke-linecap="round" stroke-linejoin="round"/>
<path d="M4.16866 28.606H2.81489C2.34542 28.606 1.96484 28.9866 1.96484 29.4561V38.0509C1.96484 38.5204 2.34542 38.901 2.81489 38.901H4.16866C4.63812 38.901 5.0187 38.5204 5.0187 38.0509V29.4561C5.0187 28.9866 4.63812 28.606 4.16866 28.606Z" stroke="#538F7F" stroke-width="1.5" stroke-linecap="round" stroke-linejoin="round"/>
<path d="M27.0888 31.8488L26.3332 29.0153C25.7035 26.6541 25.3572 24.2299 25.3572 21.7743V17.0518L30.5519 21.6483C31.2445 22.278 32.2835 22.215 32.9131 21.5224C33.5428 20.8297 33.4798 19.7908 32.7872 19.1612L26.8369 13.6516L24.759 11.7941" stroke="#538F7F" stroke-width="1.5" stroke-miterlimit="10" stroke-linecap="round"/>
<path d="M23.8146 35.6268L24.2868 37.3583C24.6017 38.4602 25.735 39.1214 26.8369 38.8065C27.9388 38.4917 28.6 37.3583 28.2852 36.2564" stroke="#538F7F" stroke-width="1.5" stroke-miterlimit="10" stroke-linecap="round"/>
<path d="M17.8958 31.8488L19.344 26.4967C19.4699 26.0559 19.8792 25.7411 20.3199 25.7411C20.7922 25.7411 21.17 26.0559 21.2959 26.4967L22.7441 31.8488" stroke="#538F7F" stroke-width="1.5" stroke-miterlimit="10" stroke-linecap="round"/>
<path d="M12.5749 35.6268L12.4174 36.2564C12.1026 37.3583 12.7638 38.4917 13.8657 38.8065C14.9676 39.1214 16.101 38.4602 16.4158 37.3583L16.888 35.6268" stroke="#538F7F" stroke-width="1.5" stroke-miterlimit="10" stroke-linecap="round"/>
<path d="M15.9438 11.8256L13.8659 13.6831L7.9156 19.1926C7.22298 19.8223 7.16 20.8612 7.78966 21.5539C8.41932 22.2465 9.45826 22.3094 10.1509 21.6798L15.3456 17.0832V18.7833V21.8057C15.3456 24.2614 15.0308 26.6856 14.3696 29.0468L13.614 31.8803" stroke="#538F7F" stroke-width="1.5" stroke-miterlimit="10" stroke-linecap="round"/>
<path d="M20.3514 10.9756C23.1334 10.9756 25.3887 8.7203 25.3887 5.93828C25.3887 3.15627 23.1334 0.901001 20.3514 0.901001C17.5694 0.901001 15.3141 3.15627 15.3141 5.93828C15.3141 8.7203 17.5694 10.9756 20.3514 10.9756Z" stroke="#538F7F" stroke-width="1.5" stroke-miterlimit="10" stroke-linecap="round"/>
<path d="M20.3514 9.08655C18.6199 9.08655 17.2031 7.66982 17.2031 5.93825C17.2031 4.20668 18.6199 2.78995 20.3514 2.78995C22.083 2.78995 23.4997 4.20668 23.4997 5.93825C23.4997 7.66982 22.083 9.08655 20.3514 9.08655Z" fill="#FF6B2B"/>
</svg>
