<svg width="40" height="40" viewBox="0 0 40 40" fill="none" xmlns="http://www.w3.org/2000/svg">
<g clip-path="url(#clip0_5134_380360)">
<path d="M17.0673 6.41837V16.3521C17.0673 16.8511 16.9247 17.3027 16.7346 17.7067C16.4257 18.3721 15.8791 18.8949 15.2375 19.2514C14.7384 19.5366 14.0967 20.1307 13.9779 21.319" stroke="#538F7F" stroke-width="1.5" stroke-linecap="round" stroke-linejoin="round"/>
<path d="M21.5115 24.6936V26.9988C21.5115 27.6642 20.9649 28.2108 20.2994 28.2108" stroke="#538F7F" stroke-width="1.5" stroke-linecap="round" stroke-linejoin="round"/>
<path d="M23.9591 24.5035V26.5235C23.9591 27.1889 23.4125 27.7355 22.7471 27.7355" stroke="#538F7F" stroke-width="1.5" stroke-linecap="round" stroke-linejoin="round"/>
<path d="M24.8384 26.7849C25.5038 26.7849 26.0504 25.7155 26.0504 25.0501C26.0504 24.3846 26.0504 24.0044 24.8859 20.3208C24.6482 19.6079 24.5532 19.0375 24.5532 19.0375C24.5532 19.0375 24.3631 18.6097 24.4106 16.3521V6.41837" stroke="#538F7F" stroke-width="1.5" stroke-linecap="round" stroke-linejoin="round"/>
<path d="M24.8384 26.7849H23.9591" stroke="#538F7F" stroke-width="1.5" stroke-linecap="round" stroke-linejoin="round"/>
<path d="M22.7471 27.7592H21.4401" stroke="#538F7F" stroke-width="1.5" stroke-linecap="round" stroke-linejoin="round"/>
<path d="M20.2994 28.2108H19.0636" stroke="#538F7F" stroke-width="1.5" stroke-linecap="round" stroke-linejoin="round"/>
<path d="M9.05847 26.1195H16.6157" stroke="#538F7F" stroke-width="1.5" stroke-linecap="round" stroke-linejoin="round"/>
<path d="M19.0634 24.7886V27.5929C19.0634 28.2583 18.5168 28.8049 17.8514 28.8049C17.186 28.8049 16.6394 28.2583 16.6394 27.5929V23.9331C16.6394 22.4835 15.4749 21.319 14.0253 21.319H9.08215" stroke="#538F7F" stroke-width="1.5" stroke-linecap="round" stroke-linejoin="round"/>
<path d="M25.2428 21.319H31.8732" stroke="#538F7F" stroke-width="1.5" stroke-linecap="round" stroke-linejoin="round"/>
<path d="M25.7181 26.1432H31.8733" stroke="#538F7F" stroke-width="1.5" stroke-linecap="round" stroke-linejoin="round"/>
<path d="M34.7011 13.8568H33.2514C32.4901 13.8568 31.873 14.4739 31.873 15.2352V32.2033C31.873 32.9646 32.4901 33.5817 33.2514 33.5817H34.7011C35.4623 33.5817 36.0794 32.9646 36.0794 32.2033V15.2352C36.0794 14.4739 35.4623 13.8568 34.7011 13.8568Z" stroke="#538F7F" stroke-width="1.5" stroke-linecap="round" stroke-linejoin="round"/>
<path d="M34.6296 32.1557V15.2827H33.2751V32.1557H34.6296Z" fill="#FF6B2B"/>
<path d="M36.0557 21.319H38.3133C38.9312 21.319 39.4541 21.818 39.4541 22.4597V25.0025C39.4541 25.6204 38.955 26.1433 38.3133 26.1433H36.0557" stroke="#538F7F" stroke-width="1.5" stroke-linecap="round" stroke-linejoin="round"/>
<path d="M6.23081 33.5817H7.68046C8.44171 33.5817 9.05884 32.9645 9.05884 32.2033L9.05884 15.2351C9.05884 14.4739 8.44171 13.8568 7.68046 13.8568H6.23081C5.46956 13.8568 4.85243 14.4739 4.85243 15.2351L4.85243 32.2033C4.85243 32.9645 5.46956 33.5817 6.23081 33.5817Z" stroke="#538F7F" stroke-width="1.5" stroke-linecap="round" stroke-linejoin="round"/>
<path d="M7.63293 32.1795L7.63293 15.3064H6.27835L6.27835 32.1795H7.63293Z" fill="#FF6B2B"/>
<path d="M4.85234 21.319H2.59468C1.97679 21.319 1.45398 21.818 1.45398 22.4597V25.0025C1.45398 25.6204 1.95303 26.1433 2.59468 26.1433H4.85234" stroke="#538F7F" stroke-width="1.5" stroke-linecap="round" stroke-linejoin="round"/>
</g>
<defs>
<clipPath id="clip0_5134_380360">
<rect width="40" height="40" fill="white"/>
</clipPath>
</defs>
</svg>
