<svg width="40" height="40" viewBox="0 0 40 40" fill="none" xmlns="http://www.w3.org/2000/svg">
<path d="M24.2867 12.2315L26.2763 13.9937L27.1858 14.9033C27.4985 15.2159 27.9532 15.2443 28.3227 15.0169L30.6818 13.4821" stroke="#538F7F" stroke-width="1.5" stroke-miterlimit="10" stroke-linecap="round"/>
<path d="M15.7315 12.2315L13.7419 13.9937L12.8324 14.9033C12.5197 15.2159 12.065 15.2443 11.6955 15.0169L9.33643 13.4821" stroke="#538F7F" stroke-width="1.5" stroke-miterlimit="10" stroke-linecap="round"/>
<path d="M7.37537 15.8696L12.3777 18.8824C12.7188 19.0814 13.1735 19.0529 13.4578 18.7687L15.1631 17.2055V18.8255V21.6962C15.1631 24.0269 14.8505 26.3291 14.2536 28.5744L12.3777 35.4527C12.0935 36.5043 12.7188 37.5843 13.7704 37.8686C14.822 38.1528 15.9021 37.5275 16.1863 36.4759L19.0001 26.1585C19.1138 25.7322 19.4833 25.448 19.9381 25.448H20.1086C20.5349 25.448 20.9329 25.7322 21.0466 26.1585L23.8604 36.4759C24.1446 37.5275 25.2246 38.1528 26.2763 37.8686C27.3279 37.5843 27.9532 36.5043 27.669 35.4527L25.7931 28.5744C25.1962 26.3291 24.8836 24.0269 24.8836 21.6962V17.2055L26.5605 18.7687C26.8731 19.0529 27.2995 19.0814 27.6406 18.8824L32.6429 15.8696" stroke="#538F7F" stroke-width="1.5" stroke-miterlimit="10" stroke-linecap="round"/>
<path d="M20.0801 11.4073C22.7173 11.4073 24.8551 9.26948 24.8551 6.63234C24.8551 3.9952 22.7173 1.85736 20.0801 1.85736C17.443 1.85736 15.3052 3.9952 15.3052 6.63234C15.3052 9.26948 17.443 11.4073 20.0801 11.4073Z" stroke="#538F7F" stroke-width="1.5" stroke-miterlimit="10" stroke-linecap="round"/>
<path d="M20.0801 9.73036C18.3748 9.73036 17.0105 8.33768 17.0105 6.66076C17.0105 4.98384 18.4032 3.59113 20.0801 3.59113C21.757 3.59113 23.1497 4.98384 23.1497 6.66076C23.1497 8.33768 21.757 9.73036 20.0801 9.73036Z" fill="#FF6B2B"/>
<path d="M8.71074 10.8957L4.78845 16.4949" stroke="#538F7F" stroke-width="1.5" stroke-miterlimit="10" stroke-linecap="round"/>
<path d="M6.47225 19.9814L6.9601 19.2821C7.20259 18.9345 7.11737 18.4561 6.76976 18.2136L2.76033 15.4166C2.41273 15.1741 1.93435 15.2593 1.69186 15.6069L1.204 16.3062C0.961514 16.6538 1.04674 17.1322 1.39434 17.3747L5.40377 20.1717C5.75137 20.4142 6.22976 20.329 6.47225 19.9814Z" stroke="#538F7F" stroke-width="1.5" stroke-miterlimit="10" stroke-linecap="round"/>
<path d="M11.7514 12.4136L12.2393 11.7142C12.4818 11.3666 12.3965 10.8882 12.0489 10.6458L8.03951 7.84874C7.69191 7.60625 7.21355 7.69147 6.97106 8.03907L6.48321 8.7384C6.24072 9.086 6.32592 9.56434 6.67353 9.80683L10.683 12.6038C11.0306 12.8463 11.5089 12.7612 11.7514 12.4136Z" stroke="#538F7F" stroke-width="1.5" stroke-miterlimit="10" stroke-linecap="round"/>
<path d="M31.1655 10.8957L35.0878 16.4949" stroke="#538F7F" stroke-width="1.5" stroke-miterlimit="10" stroke-linecap="round"/>
<path d="M38.3258 15.8714L37.838 15.1721C37.5955 14.8245 37.1171 14.7393 36.7695 14.9818L32.7601 17.7788C32.4125 18.0213 32.3273 18.4997 32.5698 18.8473L33.0576 19.5466C33.3001 19.8942 33.7785 19.9794 34.1261 19.7369L38.1355 16.9399C38.4831 16.6974 38.5683 16.219 38.3258 15.8714Z" stroke="#538F7F" stroke-width="1.5" stroke-miterlimit="10" stroke-linecap="round"/>
<path d="M33.0319 8.29003L32.544 7.59071C32.3015 7.24311 31.8232 7.15792 31.4756 7.40041L27.4661 10.1974C27.1185 10.4399 27.0333 10.9183 27.2758 11.2659L27.7637 11.9652C28.0062 12.3128 28.4845 12.398 28.8321 12.1555L32.8416 9.3585C33.1892 9.11601 33.2744 8.63764 33.0319 8.29003Z" stroke="#538F7F" stroke-width="1.5" stroke-miterlimit="10" stroke-linecap="round"/>
</svg>
