<svg width="40" height="40" viewBox="0 0 40 40" fill="none" xmlns="http://www.w3.org/2000/svg">
<g clip-path="url(#clip0_5134_380363)">
<path d="M35.4919 32.0469L38.6963 35.2513C39.1195 35.6746 39.1195 36.3699 38.6963 36.7931L36.822 38.6674C36.3988 39.0907 35.7035 39.0907 35.2802 38.6674L32.0758 35.4629" stroke="#538F7F" stroke-width="1.5" stroke-linecap="round" stroke-linejoin="round"/>
<path d="M18.4719 15.027L25.0017 21.5266" stroke="#538F7F" stroke-width="1.5" stroke-linecap="round" stroke-linejoin="round"/>
<path d="M4.53554 7.95308L1.33109 4.74862C0.907865 4.32539 0.907865 3.63009 1.33109 3.20686L3.2054 1.33256C3.62863 0.909329 4.32393 0.909329 4.74716 1.33256L7.9516 4.53702" stroke="#538F7F" stroke-width="1.5" stroke-linecap="round" stroke-linejoin="round"/>
<path d="M21.5555 24.9729L15.0559 18.4431" stroke="#538F7F" stroke-width="1.5" stroke-linecap="round" stroke-linejoin="round"/>
<path d="M5.14032 21.829C4.05202 20.7406 4.05202 18.957 5.14032 17.8687L17.8977 5.11139C18.986 4.02309 20.7696 4.02309 21.8579 5.11139C22.9462 6.1997 22.9462 7.98332 21.8579 9.07162L9.10055 21.829C8.01225 22.9173 6.22863 22.9173 5.14032 21.829Z" stroke="#538F7F" stroke-width="1.5" stroke-linecap="round" stroke-linejoin="round"/>
<path d="M7.58896 15.3596C6.50065 16.4479 4.71703 16.4479 3.62873 15.3596C2.54042 14.2713 2.54042 12.4877 3.62873 11.3994L11.4585 3.56965C12.5468 2.48134 14.3304 2.48134 15.4187 3.56965C16.507 4.65795 16.507 6.44155 15.4187 7.52986" stroke="#538F7F" stroke-width="1.5" stroke-linecap="round" stroke-linejoin="round"/>
<path d="M18.2 34.8583C19.2883 35.9467 21.0719 35.9467 22.1602 34.8583L34.9176 22.101C36.0059 21.0127 36.0059 19.2291 34.9176 18.1408C33.8293 17.0525 32.0457 17.0525 30.9574 18.1408L18.2 30.8981C17.1117 31.9864 17.1117 33.77 18.2 34.8583Z" stroke="#538F7F" stroke-width="1.5" stroke-linecap="round" stroke-linejoin="round"/>
<path d="M20.1649 33.8608C19.8928 33.8608 19.6509 33.7701 19.4696 33.5585C19.0766 33.1655 19.0766 32.5609 19.4696 32.1679L32.2269 19.4105C32.4083 19.2291 32.6501 19.1082 32.9222 19.1082C33.1943 19.1082 33.4361 19.1989 33.6175 19.4105C34.0105 19.8035 34.0105 20.4081 33.6175 20.8011L20.8602 33.5585C20.6788 33.7398 20.4369 33.8608 20.1649 33.8608Z" fill="#FF6B2B"/>
<path d="M7.13545 20.8313C6.86338 20.8313 6.62152 20.7406 6.44013 20.529C6.04714 20.136 6.04714 19.5314 6.44013 19.1384L19.1975 6.38107C19.3789 6.19969 19.6207 6.07877 19.8928 6.07877C20.1649 6.07877 20.4067 6.16946 20.5881 6.38107C20.9811 6.77407 20.9811 7.37868 20.5881 7.77168L7.83076 20.529C7.64937 20.7104 7.40753 20.8313 7.13545 20.8313Z" fill="#FF6B2B"/>
<path d="M24.6391 32.4399C23.5508 33.5282 23.5508 35.3119 24.6391 36.4002C25.7274 37.4885 27.511 37.4885 28.5993 36.4002L36.4291 28.5704C37.5174 27.4821 37.5174 25.6985 36.4291 24.6102C35.3408 23.5219 33.5572 23.5219 32.4689 24.6102" stroke="#538F7F" stroke-width="1.5" stroke-linecap="round" stroke-linejoin="round"/>
</g>
<defs>
<clipPath id="clip0_5134_380363">
<rect width="40" height="40" fill="white"/>
</clipPath>
</defs>
</svg>
