<svg width="40" height="40" viewBox="0 0 40 40" fill="none" xmlns="http://www.w3.org/2000/svg">
<path d="M31.1943 1.97867H32.9559C33.3194 1.97867 33.599 2.2583 33.599 2.6218V10.5629C33.599 10.9264 33.3194 11.206 32.9559 11.206H31.1943V1.95071V1.97867Z" stroke="#538F7F" stroke-width="1.5" stroke-linecap="round" stroke-linejoin="round"/>
<path d="M33.5992 3.51657H35.3329C35.6964 3.51657 36.0039 3.82416 36.0039 4.18766V8.99708C36.0039 9.36058 35.6964 9.66815 35.3329 9.66815H33.5992" stroke="#538F7F" stroke-width="1.5" stroke-linecap="round" stroke-linejoin="round"/>
<path d="M31.1942 6.59238H8.62915" stroke="#538F7F" stroke-width="1.5" stroke-linecap="round" stroke-linejoin="round"/>
<path d="M36.0039 6.59238H38.9119" stroke="#538F7F" stroke-width="1.5" stroke-linecap="round" stroke-linejoin="round"/>
<path d="M8.65735 11.234H6.89575C6.53224 11.234 6.25261 10.9544 6.25261 10.5909L6.25261 2.64976C6.25261 2.28626 6.53224 2.00664 6.89575 2.00664H8.65735L8.65735 11.262V11.234Z" stroke="#538F7F" stroke-width="1.5" stroke-linecap="round" stroke-linejoin="round"/>
<path d="M6.22465 3.51657H4.49103C4.12753 3.51657 3.81995 3.82416 3.81995 4.18766V8.99708C3.81995 9.36058 4.12753 9.66815 4.49103 9.66815H6.22465" stroke="#538F7F" stroke-width="1.5" stroke-linecap="round" stroke-linejoin="round"/>
<path d="M3.81989 6.59238H0.911865" stroke="#538F7F" stroke-width="1.5" stroke-linecap="round" stroke-linejoin="round"/>
<path d="M24.3158 26.0258H15.8154L16.6822 13.471H23.1414L24.3158 26.0258Z" stroke="#538F7F" stroke-width="1.5" stroke-linecap="round" stroke-linejoin="round"/>
<path d="M17.6051 24.3481L18.2482 15.1487H21.6036L22.4704 24.3481H17.6051Z" fill="#FF6B2B"/>
<path d="M21.4358 33.6313H24.3438L25.9656 38.0493H14.1378L15.3681 33.6313H18.6676" stroke="#538F7F" stroke-width="1.5" stroke-linecap="round" stroke-linejoin="round"/>
<path d="M29.7963 6.59238H28.4262V16.379H23.421" stroke="#538F7F" stroke-width="1.5" stroke-linecap="round" stroke-linejoin="round"/>
<path d="M23.6729 19.1192H28.4263V28.5144C28.4263 28.7101 28.5941 28.8779 28.7899 28.8779H30.831C31.0268 28.8779 31.1946 28.7101 31.1946 28.5144V12.8279" stroke="#538F7F" stroke-width="1.5" stroke-linecap="round" stroke-linejoin="round"/>
<path d="M8.62915 12.744V28.5423C8.62915 28.7381 8.7969 28.9058 8.99263 28.9058H11.0339C11.2296 28.9058 11.3973 28.7381 11.3973 28.5423V19.1472H16.2906" stroke="#538F7F" stroke-width="1.5" stroke-linecap="round" stroke-linejoin="round"/>
<path d="M16.4866 16.379H11.3975V6.59238H9.85962" stroke="#538F7F" stroke-width="1.5" stroke-linecap="round" stroke-linejoin="round"/>
<path d="M21.4358 28.3466V35.8403" stroke="#538F7F" stroke-width="1.5" stroke-linecap="round" stroke-linejoin="round"/>
<path d="M18.6676 35.8403V28.3466" stroke="#538F7F" stroke-width="1.5" stroke-linecap="round" stroke-linejoin="round"/>
<path d="M24.3158 26.0258V27.312C24.3158 27.8992 23.8404 28.3466 23.2812 28.3466H16.85C16.2628 28.3466 15.8154 27.8712 15.8154 27.312V26.0258" stroke="#538F7F" stroke-width="1.5" stroke-linecap="round" stroke-linejoin="round"/>
</svg>
