<svg width="40" height="40" viewBox="0 0 40 40" fill="none" xmlns="http://www.w3.org/2000/svg">
<path d="M22.7657 13.0525C23.9173 11.5624 23.643 9.42086 22.1529 8.26921C20.6629 7.11755 18.5213 7.39189 17.3697 8.88195C16.218 10.372 16.4924 12.5136 17.9824 13.6652C19.4725 14.8169 21.614 14.5425 22.7657 13.0525Z" stroke="#538F7F" stroke-width="1.5" stroke-linecap="round" stroke-linejoin="round"/>
<path d="M19.9742 12.9346C18.9921 12.9346 18.201 12.1435 18.201 11.1615C18.201 10.1794 18.9921 9.38834 19.9742 9.38834C20.9563 9.38834 21.7474 10.1794 21.7474 11.1615C21.7474 12.1435 20.9563 12.9346 19.9742 12.9346Z" fill="#FF6B2B"/>
<path d="M16.1278 26.9017L18.3102 27.6382" stroke="#538F7F" stroke-width="1.5" stroke-linecap="round" stroke-linejoin="round"/>
<path d="M23.8481 26.9017L21.693 27.6382" stroke="#538F7F" stroke-width="1.5" stroke-linecap="round" stroke-linejoin="round"/>
<path d="M30.4768 7.888L24.639 13.7258" stroke="#538F7F" stroke-width="1.5" stroke-linecap="round" stroke-linejoin="round"/>
<path d="M6.00741 7.88798C5.95285 8.32445 6.11652 8.76092 6.44388 9.11555L14.7368 17.5176C15.637 18.4451 16.1553 19.6999 16.1553 20.982V26.9017L14.8732 26.5198C13.2091 26.0287 11.5724 27.2836 11.5724 29.0022V36.313C11.5724 37.186 12.2544 37.9498 13.1273 37.9771C14.0275 37.9771 14.7641 37.2678 14.7641 36.3948V31.3209C14.7641 30.748 15.3369 30.3661 15.8552 30.5844L16.6191 30.8844C18.8014 31.7574 21.2292 31.7574 23.4116 30.8844L24.1754 30.5844C24.6937 30.3661 25.2666 30.748 25.2666 31.3209V36.3948C25.2666 37.2678 25.9758 37.9771 26.8488 37.9771C27.7217 37.9771 28.431 37.2678 28.431 36.3948V29.0022C28.431 27.2836 26.7669 26.056 25.1302 26.5198L23.8481 26.9017V21.0093C23.8481 19.7272 24.3664 18.4724 25.2666 17.5449L33.2867 9.41563C33.7232 8.95189 33.8323 8.29717 33.614 7.75159" stroke="#538F7F" stroke-width="1.5" stroke-linecap="round" stroke-linejoin="round"/>
<path d="M15.3915 13.7258L9.55371 7.888" stroke="#538F7F" stroke-width="1.5" stroke-linecap="round" stroke-linejoin="round"/>
<path d="M3.63403 6.49673H36.3419" stroke="#538F7F" stroke-width="1.5" stroke-linecap="round" stroke-linejoin="round"/>
<path d="M38.2513 2.02295H37.0783C36.6716 2.02295 36.3418 2.35271 36.3418 2.75949V10.2067C36.3418 10.6135 36.6716 10.9433 37.0783 10.9433H38.2513C38.6581 10.9433 38.9879 10.6135 38.9879 10.2067V2.75949C38.9879 2.35271 38.6581 2.02295 38.2513 2.02295Z" stroke="#538F7F" stroke-width="1.5" stroke-linecap="round" stroke-linejoin="round"/>
<path d="M2.89734 2.02295H1.72433C1.31755 2.02295 0.987793 2.35271 0.987793 2.75949V10.2067C0.987793 10.6135 1.31755 10.9433 1.72433 10.9433H2.89734C3.30412 10.9433 3.63388 10.6135 3.63388 10.2067V2.75949C3.63388 2.35271 3.30412 2.02295 2.89734 2.02295Z" stroke="#538F7F" stroke-width="1.5" stroke-linecap="round" stroke-linejoin="round"/>
</svg>
