<svg width="40" height="41" viewBox="0 0 40 41" fill="none" xmlns="http://www.w3.org/2000/svg">
<path d="M23.4214 26.4349C20.2902 24.724 16.0938 25.1114 13.3499 27.371C13.3499 27.371 12.2201 28.3717 11.5422 29.7275" stroke="#538F7F" stroke-width="1.5" stroke-miterlimit="10" stroke-linecap="round"/>
<path d="M22.3237 25.9184C23.9055 24.498 25.81 23.2714 27.8759 22.5612C27.8759 22.5612 33.1699 20.6244 38.9481 23.3037" stroke="#538F7F" stroke-width="1.5" stroke-miterlimit="10" stroke-linecap="round"/>
<path d="M12.8332 25.9184C11.7034 22.0125 12.0584 18.7198 13.3174 14.8462C13.8339 13.2645 14.7377 11.7473 16.0612 10.3915C18.0303 8.42245 19.612 10.8112 24.9706 7.48632C25.3256 7.26036 25.5839 6.90528 25.6807 6.48564L25.939 5.12984C26.1004 4.29055 25.3579 3.51582 24.4864 3.7095C24.4864 3.7095 24.4864 3.7095 24.4541 3.7095" stroke="#538F7F" stroke-width="1.5" stroke-miterlimit="10" stroke-linecap="round"/>
<path d="M22.4205 3.80634L21.2584 4.19369C20.871 4.32281 20.6451 4.74245 20.7419 5.1621C20.871 5.58174 21.323 5.80773 21.7103 5.67861L23.8085 5.03301C24.0022 4.96845 24.1636 4.80703 24.2282 4.61335L24.9061 2.16005C25.0029 1.83725 24.777 1.48214 24.4219 1.44986L19.3539 0.771981C18.7083 0.67514 18.0304 0.90111 17.5784 1.38531L12.2845 6.67929C11.0578 7.90595 9.96029 9.22945 9.05644 10.6821C5.47333 16.3634 3.31054 24.3044 1.85793 31.1801C1.34144 33.6979 2.79406 36.2158 5.24736 37.0228C10.3799 38.7014 29.2962 40.1862 38.8834 36.2481" stroke="#538F7F" stroke-width="1.5" stroke-miterlimit="10" stroke-linecap="round"/>
<path d="M22.5499 3.38668L22.6145 3.16074L22.1948 3.09619L22.324 3.48354L22.5499 3.38668Z" stroke="#538F7F" stroke-width="1.5" stroke-miterlimit="10"/>
<path d="M5.89315 35.1828C8.79838 36.1189 16.0292 36.9582 23.3891 36.7968C23.0663 36.4094 22.7112 36.0866 22.3238 35.7961C21.2909 35.1182 19.9997 34.86 18.773 34.634C15.9323 34.1176 13.0594 33.6011 10.2187 33.0846C9.02435 32.8586 7.73313 32.6004 6.92612 31.6643C6.24824 30.8895 6.08684 29.792 5.95771 28.759C5.79631 27.4678 5.60263 26.1443 5.44123 24.8531C4.89246 26.919 4.3437 29.1464 3.85949 31.5351C3.53669 33.0846 4.44054 34.634 5.95771 35.1505L5.89315 35.1828Z" fill="#FF6B2B"/>
</svg>
