<svg width="40" height="40" viewBox="0 0 40 40" fill="none" xmlns="http://www.w3.org/2000/svg">
<g clip-path="url(#clip0_5134_380352)">
<path d="M26.0699 24.0684H13.4124V34.7849H26.0699V24.0684Z" stroke="#538F7F" stroke-width="1.5" stroke-linecap="round" stroke-linejoin="round"/>
<path d="M15.8726 25.9547L15.0525 25.7087H24.4294V33.1446C22.7345 29.6454 19.618 27.0209 15.8726 25.9547Z" fill="#FF6B2B"/>
<path d="M13.4123 34.7849H0.727295V26.8022H3.1605" stroke="#538F7F" stroke-width="1.5" stroke-linecap="round" stroke-linejoin="round"/>
<path d="M26.0697 34.7849H38.7272V29.0439H35.9934" stroke="#538F7F" stroke-width="1.5" stroke-linecap="round" stroke-linejoin="round"/>
<path d="M20.3018 9.04937C21.492 8.76802 22.2287 7.57509 21.9474 6.38492C21.666 5.19474 20.4731 4.45804 19.283 4.73938C18.0928 5.02073 17.356 6.2136 17.6373 7.40377C17.9187 8.59394 19.1116 9.33071 20.3018 9.04937Z" stroke="#538F7F" stroke-width="1.5" stroke-linecap="round" stroke-linejoin="round"/>
<path d="M24.4024 24.0684L22.8442 18.8467C22.5161 17.5892 22.3246 16.3043 22.3246 15.0194V13.4338C22.3246 12.8051 22.6255 12.2309 23.1175 11.8755L25.8514 9.85253C26.0701 9.6885 26.2067 9.41509 26.2067 9.14171C26.2067 8.40358 25.3865 7.99354 24.7851 8.43095L21.7233 10.6727" stroke="#538F7F" stroke-width="1.5" stroke-linecap="round" stroke-linejoin="round"/>
<path d="M17.4584 24.0684L19.1534 17.4798C19.2081 17.2338 19.4267 17.0971 19.6728 17.0971C19.9188 17.0971 20.1375 17.2611 20.1922 17.4798L21.8598 24.0684" stroke="#538F7F" stroke-width="1.5" stroke-linecap="round" stroke-linejoin="round"/>
<path d="M17.5951 10.6727L14.7246 8.37629C14.3419 8.07557 13.7951 8.10286 13.467 8.45825C13.1389 8.84099 13.1936 9.41512 13.5763 9.71584L16.2282 11.8482C16.6929 12.231 16.9664 12.7777 16.9664 13.3791V15.1835C16.9664 16.4684 16.8023 17.7259 16.4742 18.9561L15.0253 24.0684" stroke="#538F7F" stroke-width="1.5" stroke-linecap="round" stroke-linejoin="round"/>
<path d="M33.0437 13.3833C34.2339 13.102 34.9706 11.9091 34.6892 10.719C34.4079 9.52879 33.2151 8.79199 32.0249 9.07334C30.8347 9.35468 30.098 10.5476 30.3793 11.7378C30.6606 12.928 31.8536 13.6647 33.0437 13.3833Z" stroke="#538F7F" stroke-width="1.5" stroke-linecap="round" stroke-linejoin="round"/>
<path d="M34.7907 18.3V27.841C34.7907 28.4972 34.2439 29.0439 33.5878 29.0439H33.1777" stroke="#538F7F" stroke-width="1.5" stroke-linecap="round" stroke-linejoin="round"/>
<path d="M32.4122 22.9748V27.841C32.4122 28.4972 31.8653 29.0439 31.2092 29.0439C30.5531 29.0439 30.0063 28.4972 30.0063 27.841V18.3" stroke="#538F7F" stroke-width="1.5" stroke-linecap="round" stroke-linejoin="round"/>
<path d="M34.5994 14.8281C35.7202 14.8281 36.595 15.7302 36.595 16.8238V19.9403C36.595 20.8971 35.8022 21.69 34.8454 21.69" stroke="#538F7F" stroke-width="1.5" stroke-linecap="round" stroke-linejoin="round"/>
<path d="M29.9519 21.7173C28.9951 21.7173 28.2021 20.9245 28.2021 19.9677V16.8511C28.2021 15.7303 29.1044 14.8554 30.1979 14.8554" stroke="#538F7F" stroke-width="1.5" stroke-linecap="round" stroke-linejoin="round"/>
<path d="M7.16837 11.1642C8.35854 10.8829 9.09531 9.68996 8.81397 8.49978C8.53262 7.30961 7.3397 6.57291 6.14953 6.85425C4.95936 7.1356 4.22257 8.32846 4.50392 9.51864C4.78526 10.7088 5.97819 11.4456 7.16837 11.1642Z" stroke="#538F7F" stroke-width="1.5" stroke-linecap="round" stroke-linejoin="round"/>
<path d="M8.9286 16.0583V25.5994C8.9286 26.2555 8.38186 26.8022 7.72575 26.8022H7.31567" stroke="#538F7F" stroke-width="1.5" stroke-linecap="round" stroke-linejoin="round"/>
<path d="M6.55037 20.7332V25.5994C6.55037 26.2555 6.00363 26.8022 5.34752 26.8022C4.6914 26.8022 4.14453 26.2555 4.14453 25.5994V16.0583" stroke="#538F7F" stroke-width="1.5" stroke-linecap="round" stroke-linejoin="round"/>
<path d="M8.73755 12.5863C9.85841 12.5863 10.7332 13.4885 10.7332 14.582V17.6986C10.7332 18.6554 9.9404 19.4482 8.98357 19.4482" stroke="#538F7F" stroke-width="1.5" stroke-linecap="round" stroke-linejoin="round"/>
<path d="M4.08995 19.4755C3.13311 19.4755 2.34033 18.6828 2.34033 17.7259V14.6093C2.34033 13.4885 3.24244 12.6137 4.33596 12.6137" stroke="#538F7F" stroke-width="1.5" stroke-linecap="round" stroke-linejoin="round"/>
<path d="M13.4123 26.8022H10.0222" stroke="#538F7F" stroke-width="1.5" stroke-linecap="round" stroke-linejoin="round"/>
<path d="M26.0697 29.0439H28.6942" stroke="#538F7F" stroke-width="1.5" stroke-linecap="round" stroke-linejoin="round"/>
</g>
<defs>
<clipPath id="clip0_5134_380352">
<rect width="40" height="40" fill="white"/>
</clipPath>
</defs>
</svg>
