<svg width="40" height="40" viewBox="0 0 40 40" fill="none" xmlns="http://www.w3.org/2000/svg">
<path d="M29.3192 25.8551H15.8146" stroke="#538F7F" stroke-width="1.5" stroke-linecap="round" stroke-linejoin="round"/>
<path d="M36.773 19.3366H38.2636C38.6729 19.3366 39.0237 19.6874 39.0237 20.0966C39.0237 20.5059 38.9067 20.8859 38.7021 21.2074C37.3867 23.312 35.3114 24.832 32.9437 25.5043" stroke="#538F7F" stroke-width="1.5" stroke-linecap="round" stroke-linejoin="round"/>
<path d="M27.5942 19.3366H33.5574" stroke="#538F7F" stroke-width="1.5" stroke-linecap="round" stroke-linejoin="round"/>
<path d="M17.6266 22.0844C17.7727 22.0844 17.8896 22.0843 18.0358 22.0551C19.6435 21.9089 20.6081 21.149 20.9589 19.8043L21.0758 19.3659H27.5942" stroke="#538F7F" stroke-width="1.5" stroke-linecap="round" stroke-linejoin="round"/>
<path d="M11.956 25.8551H9.70528C6.28528 25.8551 3.12833 24.1013 1.34525 21.2074C1.14063 20.8566 1.02368 20.4766 1.02368 20.0966C1.02368 19.6874 1.37448 19.3366 1.78371 19.3366H10.173C11.0792 19.3366 11.9561 19.7459 12.5115 20.4766C12.9207 21.032 13.6222 21.6166 14.9668 21.9089" stroke="#538F7F" stroke-width="1.5" stroke-linecap="round" stroke-linejoin="round"/>
<path d="M33.4994 6.97202C33.5578 5.36433 32.3009 3.99047 30.6932 3.93201C29.0855 3.87355 27.7117 5.1305 27.6532 6.7382C27.5947 8.34589 28.8517 9.7197 30.4594 9.77817C32.0671 9.83663 33.4409 8.57971 33.4994 6.97202Z" stroke="#538F7F" stroke-width="1.5" stroke-linecap="round" stroke-linejoin="round"/>
<path d="M30.5178 8.02437C29.8747 8.02437 29.3779 7.43977 29.4071 6.7967C29.4071 6.18285 29.9333 5.68591 30.5763 5.68591H30.6349C30.9564 5.68591 31.2486 5.83208 31.4533 6.06593C31.6579 6.29977 31.7748 6.59209 31.7748 6.91363C31.7748 7.5567 31.2487 8.02437 30.6056 8.02437H30.5471H30.5178Z" fill="#FF6B2B"/>
<path d="M36.3347 17.4659L29.1439 28.9828" stroke="#538F7F" stroke-width="1.5" stroke-linecap="round" stroke-linejoin="round"/>
<path d="M26.3087 29.6259L24.5548 32.6659C23.9994 33.6305 24.321 34.829 25.2856 35.3844L25.4025 35.472L25.5195 35.5598C26.4841 36.1151 27.6825 35.7936 28.2379 34.829L29.9918 31.789L29.1149 29.0121L26.2794 29.6259H26.3087Z" stroke="#538F7F" stroke-width="1.5" stroke-linecap="round" stroke-linejoin="round"/>
<path d="M34.2302 17.9336L30.9855 16.589L28.7349 14.0459" stroke="#538F7F" stroke-width="1.5" stroke-linecap="round" stroke-linejoin="round"/>
<path d="M22.2455 19.3366L25.4901 12.4382C26.0747 11.2105 27.4777 10.6258 28.7639 11.0935L29.6993 11.4443C30.1963 11.6197 30.6348 11.9705 30.9271 12.4089L31.8624 13.7536C32.1547 14.192 32.5932 14.5428 33.0901 14.7474L35.7209 15.8582C36.3347 16.1212 36.627 16.8228 36.3931 17.4659" stroke="#538F7F" stroke-width="1.5" stroke-linecap="round" stroke-linejoin="round"/>
<path d="M30.1084 15.5951L28.267 19.3367" stroke="#538F7F" stroke-width="1.5" stroke-linecap="round" stroke-linejoin="round"/>
<path d="M16.2819 6.97202C16.3404 5.36433 15.0835 3.99047 13.4758 3.93201C11.8681 3.87355 10.4943 5.1305 10.4358 6.7382C10.3773 8.34589 11.6343 9.7197 13.242 9.77817C14.8497 9.83663 16.2235 8.57971 16.2819 6.97202Z" stroke="#538F7F" stroke-width="1.5" stroke-linecap="round" stroke-linejoin="round"/>
<path d="M13.3003 8.02437C12.6572 8.02437 12.1604 7.43977 12.1896 6.7967C12.1896 6.18285 12.7157 5.68591 13.3588 5.68591H13.4172C13.7387 5.68591 14.0311 5.83208 14.2357 6.06593C14.4403 6.29977 14.5573 6.59209 14.5573 6.91363C14.5573 7.5567 14.0311 8.02437 13.3881 8.02437H13.3296H13.3003Z" fill="#FF6B2B"/>
<path d="M19.117 17.4659L11.8971 28.9828" stroke="#538F7F" stroke-width="1.5" stroke-linecap="round" stroke-linejoin="round"/>
<path d="M9.06197 29.6259L7.30812 32.6659C6.75274 33.6305 7.07428 34.829 8.03889 35.3844L8.15579 35.472L8.27283 35.5598C9.23744 36.1151 10.4358 35.7936 10.9912 34.829L12.7451 31.789L11.8682 29.0121L9.03271 29.6259H9.06197Z" stroke="#538F7F" stroke-width="1.5" stroke-linecap="round" stroke-linejoin="round"/>
<path d="M16.9834 17.9336L13.768 16.589L11.488 14.0459" stroke="#538F7F" stroke-width="1.5" stroke-linecap="round" stroke-linejoin="round"/>
<path d="M4.99878 19.3366L8.24342 12.4382C8.82804 11.2105 10.231 10.6258 11.5172 11.0935L12.4526 11.4443C12.9495 11.6197 13.3881 11.9705 13.6804 12.4089L14.6157 13.7536C14.908 14.192 15.3465 14.5428 15.8434 14.7474L18.4742 15.8582C19.088 16.1212 19.3803 16.8228 19.1464 17.4659" stroke="#538F7F" stroke-width="1.5" stroke-linecap="round" stroke-linejoin="round"/>
<path d="M12.8616 15.5951L11.0201 19.3367" stroke="#538F7F" stroke-width="1.5" stroke-linecap="round" stroke-linejoin="round"/>
</svg>
