<svg width="40" height="40" viewBox="0 0 40 40" fill="none" xmlns="http://www.w3.org/2000/svg">
<g clip-path="url(#clip0_5134_380335)">
<path d="M23.6525 24.2814H30.5802C34.0002 24.2814 37.1572 22.5276 38.9403 19.6337C39.1449 19.283 39.2618 18.903 39.2618 18.523C39.2618 18.1138 38.911 17.763 38.5018 17.763H27.8326" stroke="#538F7F" stroke-width="1.5" stroke-linecap="round" stroke-linejoin="round"/>
<path d="M24.0323 5.39835C24.0908 3.79066 22.8338 2.41681 21.2261 2.35834C19.6184 2.29988 18.2446 3.55682 18.1862 5.16451C18.1277 6.7722 19.3847 8.14604 20.9923 8.2045C22.6 8.26296 23.9739 7.00605 24.0323 5.39835Z" stroke="#538F7F" stroke-width="1.5" stroke-linecap="round" stroke-linejoin="round"/>
<path d="M26.8678 15.863L19.6771 27.4092" stroke="#538F7F" stroke-width="1.5" stroke-linecap="round" stroke-linejoin="round"/>
<path d="M16.8418 28.023L15.0879 31.063C14.5325 32.0276 14.8541 33.2261 15.8187 33.7814L15.9356 33.8691L16.0525 33.9568C17.0171 34.5122 18.2156 34.1907 18.771 33.226L20.5249 30.1861L19.6479 27.4091L16.8125 28.023H16.8418Z" stroke="#538F7F" stroke-width="1.5" stroke-linecap="round" stroke-linejoin="round"/>
<path d="M18.5956 24.2814H9.9433C6.5233 24.2814 3.36634 22.5276 1.58327 19.6337C1.37865 19.283 1.26184 18.903 1.26184 18.523C1.26184 18.1138 1.6125 17.763 2.02173 17.763H10.411C11.3172 17.763 12.1941 18.1722 12.7495 18.903C13.3926 19.7799 14.8541 20.7737 18.3326 20.4522C19.9403 20.3061 20.9049 19.546 21.2557 18.2014L21.3726 17.763H23.4772" stroke="#538F7F" stroke-width="1.5" stroke-linecap="round" stroke-linejoin="round"/>
<path d="M38.1216 37.6984C36.2216 37.6984 34.5555 36.6753 33.6493 35.126C32.7432 36.6753 31.1063 37.6984 29.1771 37.6984C27.2479 37.6984 25.6108 36.6753 24.7047 35.126C23.7985 36.6753 22.1617 37.6984 20.2324 37.6984C18.3032 37.6984 16.6662 36.6753 15.76 35.126C14.8539 36.6753 13.217 37.6984 11.2878 37.6984C9.35856 37.6984 7.72169 36.6753 6.81553 35.126C5.90938 36.6753 4.27237 37.6984 2.34314 37.6984" stroke="#538F7F" stroke-width="1.5" stroke-linecap="round" stroke-linejoin="round"/>
<path d="M22.1909 31.1214C23.2725 30.683 24.1494 29.923 24.7341 28.9291C25.6402 30.4784 27.2771 31.5015 29.2063 31.5015C31.1355 31.5015 32.7725 30.4784 33.6787 28.9291C34.5849 30.4784 36.2217 31.5015 38.151 31.5015" stroke="#538F7F" stroke-width="1.5" stroke-linecap="round" stroke-linejoin="round"/>
<path d="M2.43103 31.5015C4.33103 31.5015 5.99713 30.4784 6.90328 28.9291C7.80944 30.4784 9.4463 31.5015 11.3755 31.5015C13.3048 31.5015 12.7202 31.3553 13.3341 31.1214" stroke="#538F7F" stroke-width="1.5" stroke-linecap="round" stroke-linejoin="round"/>
<path d="M24.7633 16.3599L21.5186 14.986L19.2678 12.4722" stroke="#538F7F" stroke-width="1.5" stroke-linecap="round" stroke-linejoin="round"/>
<path d="M12.4866 18.3476L15.9943 10.8646C16.5789 9.63686 17.9819 9.05224 19.268 9.51993L20.2035 9.8707C20.7004 10.0461 21.1389 10.3969 21.4312 10.8353L22.3665 12.1799C22.6588 12.6184 23.0973 12.9692 23.5943 13.1738L26.225 14.2846C26.8389 14.5476 27.1311 15.2492 26.8973 15.8923" stroke="#538F7F" stroke-width="1.5" stroke-linecap="round" stroke-linejoin="round"/>
<path d="M20.6418 13.9922L18.8003 17.763" stroke="#538F7F" stroke-width="1.5" stroke-linecap="round" stroke-linejoin="round"/>
<path d="M9.97233 22.5276H12.2232C11.6093 21.8553 11.083 21.1538 10.6446 20.3645C10.4984 20.1015 10.3523 19.8092 10.2354 19.5461H3.65845C5.17845 21.4461 7.48771 22.5568 9.97233 22.5568V22.5276Z" fill="#FF6B2B"/>
</g>
<defs>
<clipPath id="clip0_5134_380335">
<rect width="40" height="40" fill="white"/>
</clipPath>
</defs>
</svg>
