<svg width="40" height="40" viewBox="0 0 40 40" fill="none" xmlns="http://www.w3.org/2000/svg">
<g clip-path="url(#clip0_5134_380366)">
<path d="M4.13587 38.5224C7.34663 39.1783 13.9753 39.7652 21.7778 35.8985C27.8887 32.8603 32.8601 27.8889 35.8983 21.778C39.765 14.0101 39.1781 7.38136 38.5222 4.13607C38.246 2.78962 37.2102 1.75391 35.8637 1.47771C32.653 0.821747 26.0242 0.234825 18.2217 4.10155C12.1109 7.1397 7.13945 12.1112 4.10131 18.222C0.234579 25.99 0.82146 32.6187 1.47742 35.864C1.75362 37.2104 2.78942 38.2462 4.13587 38.5224Z" stroke="#538F7F" stroke-width="1.5" stroke-linecap="round" stroke-linejoin="round"/>
<path d="M9.14209 20.7768C10.385 18.2911 12.0076 16.0124 13.9755 14.0446C15.9434 12.0767 18.222 10.454 20.7077 9.21115" stroke="#538F7F" stroke-width="1.5" stroke-linecap="round" stroke-linejoin="round"/>
<path d="M12.6637 12.6636L15.1839 15.2184" stroke="#538F7F" stroke-width="1.5" stroke-linecap="round" stroke-linejoin="round"/>
<path d="M9.66003 16.2886L12.6981 18.1184" stroke="#538F7F" stroke-width="1.5" stroke-linecap="round" stroke-linejoin="round"/>
<path d="M18.1186 12.7326L16.2543 9.65994" stroke="#538F7F" stroke-width="1.5" stroke-linecap="round" stroke-linejoin="round"/>
<path d="M1.68481 24.9543C5.0682 30.3746 9.62548 34.9318 15.0458 38.3152" stroke="#538F7F" stroke-width="1.5" stroke-linecap="round" stroke-linejoin="round"/>
<path d="M24.9543 1.71933C30.3747 5.10272 34.932 9.65996 38.3153 15.0803" stroke="#538F7F" stroke-width="1.5" stroke-linecap="round" stroke-linejoin="round"/>
<path d="M6.82898 28.4757C9.31473 31.4103 12.2149 33.9996 15.4257 36.1056C17.2555 35.6223 19.0506 34.9318 20.8459 34.0687C23.09 32.9639 25.196 31.5484 27.0603 29.8912C24.0912 30.271 21.1221 30.5127 18.1185 30.4781C14.2863 30.4436 10.4195 29.8567 6.82898 28.4757Z" fill="#FF6B2B"/>
</g>
<defs>
<clipPath id="clip0_5134_380366">
<rect width="40" height="40" fill="white"/>
</clipPath>
</defs>
</svg>
