<svg width="40" height="40" viewBox="0 0 40 40" fill="none" xmlns="http://www.w3.org/2000/svg">
<g clip-path="url(#clip0_5134_380374)">
<path d="M8.76328 28.3158C10.1489 27.4002 12.747 25.2228 14.1574 21.0411C15.2708 17.7502 15.2708 14.1871 14.1574 10.8962C12.747 6.71451 10.1737 4.53705 8.76328 3.62154C8.19417 3.25038 7.45181 3.25038 6.85796 3.62154C5.47232 4.53705 2.87427 6.71451 1.46388 10.8962C0.350418 14.1871 0.350418 17.7502 1.46388 21.0411C2.87427 25.2228 5.44757 27.4002 6.85796 28.3158C7.42707 28.6869 8.16943 28.6869 8.76328 28.3158Z" stroke="#538F7F" stroke-width="1.5" stroke-linecap="round" stroke-linejoin="round"/>
<path d="M4.18571 20.1503C3.74032 18.8142 3.51758 17.4038 3.51758 15.9934C3.51758 14.583 3.74032 13.1726 4.18571 11.8365" stroke="#538F7F" stroke-width="1.5" stroke-linecap="round" stroke-linejoin="round"/>
<path d="M2.55273 15.9934H4.3591" stroke="#538F7F" stroke-width="1.5" stroke-linecap="round" stroke-linejoin="round"/>
<path d="M2.77527 18.3688L4.5321 17.9234" stroke="#538F7F" stroke-width="1.5" stroke-linecap="round" stroke-linejoin="round"/>
<path d="M4.53222 14.0386L2.77539 13.618" stroke="#538F7F" stroke-width="1.5" stroke-linecap="round" stroke-linejoin="round"/>
<path d="M3.02283 24.332C6.19002 25.0496 9.45626 25.0496 12.6235 24.332" stroke="#538F7F" stroke-width="1.5" stroke-linecap="round" stroke-linejoin="round"/>
<path d="M3.02283 7.65475C6.19002 6.93719 9.45626 6.93719 12.6235 7.65475" stroke="#538F7F" stroke-width="1.5" stroke-linecap="round" stroke-linejoin="round"/>
<path d="M5.91789 31.087C4.18583 30.1715 2.72591 28.7611 1.78564 27.0291" stroke="#538F7F" stroke-width="1.5" stroke-linecap="round" stroke-linejoin="round"/>
<path d="M5.32422 33.2397C4.16127 32.7201 3.12204 31.9036 2.35498 30.8643" stroke="#538F7F" stroke-width="1.5" stroke-linecap="round" stroke-linejoin="round"/>
<path d="M35.61 19.7792C35.61 19.7792 34.6202 22.3773 30.3643 24.233C30.3643 24.233 23.9805 26.9548 21.5556 30.8643C21.5556 30.8643 17.5719 33.116 13.5139 33.8583" stroke="#538F7F" stroke-width="1.5" stroke-linecap="round" stroke-linejoin="round"/>
<path d="M30.5376 28.2168L31.181 29.3055" stroke="#538F7F" stroke-width="1.5" stroke-linecap="round" stroke-linejoin="round"/>
<path d="M22.7681 32.6954L23.4114 33.7841" stroke="#538F7F" stroke-width="1.5" stroke-linecap="round" stroke-linejoin="round"/>
<path d="M17.7946 34.8233L18.4379 35.9121" stroke="#538F7F" stroke-width="1.5" stroke-linecap="round" stroke-linejoin="round"/>
<path d="M13.984 35.4667L14.0088 36.7533" stroke="#538F7F" stroke-width="1.5" stroke-linecap="round" stroke-linejoin="round"/>
<path d="M34.2738 26.0641L34.8924 27.1776" stroke="#538F7F" stroke-width="1.5" stroke-linecap="round" stroke-linejoin="round"/>
<path d="M37.9855 23.9361L38.6288 25.0248" stroke="#538F7F" stroke-width="1.5" stroke-linecap="round" stroke-linejoin="round"/>
<path d="M23.7577 18.7894C23.7577 18.7894 23.7825 21.0658 21.8772 22.5505" stroke="#538F7F" stroke-width="1.5" stroke-linecap="round" stroke-linejoin="round"/>
<path d="M28.1621 20.7689C28.9044 20.6205 29.5725 20.2493 30.1664 19.7792C30.4386 19.5565 30.7849 19.2843 31.1066 19.408C31.4035 19.5318 31.5026 19.9029 31.4283 20.1998C31.3541 20.4968 31.1562 20.7442 30.9582 20.9916C30.5871 21.5112 30.3643 22.1298 30.2406 22.7484C30.5622 22.6 30.8839 22.4268 31.1561 22.2783C32.6655 21.4123 33.5068 20.4968 33.9275 19.9029L30.9335 16.0924C30.8592 15.9934 30.7108 15.9687 30.5871 16.0182C30.5128 16.0676 30.4633 16.1666 30.4386 16.2656C30.4386 16.9337 30.2159 17.6017 29.82 18.2203C29.6715 18.4678 29.4735 18.7152 29.2756 18.9626C28.9292 19.3338 28.5581 19.6307 28.1127 19.9029C27.5188 20.2493 26.8507 20.4473 26.1826 20.5462C26.7765 20.8432 27.4693 20.9174 28.1373 20.7937L28.1621 20.7689Z" fill="#FF6B2B"/>
<path d="M22.3475 17.6265C22.3475 17.6265 19.799 10.5251 16.5823 6.34338" stroke="#538F7F" stroke-width="1.5" stroke-linecap="round" stroke-linejoin="round"/>
<path d="M25.985 5.15567C27.0984 7.28363 28.2613 9.26313 29.2511 10.8962C30.7109 13.2963 32.2946 15.5975 34.0267 17.7997L35.5855 19.8039C39.5939 20.7442 37.9609 23.9361 37.9609 23.9361L30.4636 28.2663C28.979 28.0683 27.4448 28.5385 26.1829 29.355C24.9209 30.1715 23.8569 31.3345 22.9414 32.5222C20.0711 34.1553 16.8545 35.145 13.5636 35.4419C12.4501 35.5409 11.2377 35.5409 10.4212 34.6749C10.1738 34.4027 9.97576 34.0811 9.87678 33.7347C9.55511 32.6707 10.0005 31.8541 10.7923 31.285C15.6916 28.0189 19.5021 23.1691 21.5559 17.6512C21.5559 17.6512 23.1889 17.3296 23.7828 18.8142L24.5745 19.0369C25.9107 19.4328 27.3706 19.0864 28.3108 18.0471C28.4593 17.8739 28.6078 17.7007 28.7068 17.5028C29.0037 17.0327 29.1027 16.5873 29.1027 16.2161C29.1027 15.6223 29.4243 15.1026 29.9192 14.8057" stroke="#538F7F" stroke-width="1.5" stroke-linecap="round" stroke-linejoin="round"/>
</g>
<defs>
<clipPath id="clip0_5134_380374">
<rect width="40" height="40" fill="white"/>
</clipPath>
</defs>
</svg>
