<svg width="40" height="40" viewBox="0 0 40 40" fill="none" xmlns="http://www.w3.org/2000/svg">
<path d="M24.8963 9.3811C27.2107 9.3811 29.0869 7.50494 29.0869 5.19057C29.0869 2.87619 27.2107 1 24.8963 1C22.5819 1 20.7057 2.87619 20.7057 5.19057C20.7057 7.50494 22.5819 9.3811 24.8963 9.3811Z" stroke="#538F7F" stroke-width="1.5" stroke-linecap="round" stroke-linejoin="round"/>
<path d="M24.8963 7.67066C23.528 7.67066 22.4161 6.5589 22.4161 5.19056C22.4161 3.82222 23.528 2.71042 24.8963 2.71042C26.2647 2.71042 27.3765 3.82222 27.3765 5.19056C27.3765 6.5589 26.2647 7.67066 24.8963 7.67066Z" fill="#FF6B2B"/>
<path d="M27.1198 16.7929L24.8963 11.9467L20.6202 9.49512C20.1641 9.23855 19.5939 9.38108 19.3089 9.80869L14.0065 19.3871C13.4649 20.3278 13.2084 21.4111 13.2084 22.4944V29.2791C13.2084 29.9632 12.6952 30.5619 12.011 30.6759L6.90828 31.5311C6.05307 31.6737 5.39746 32.4433 5.39746 33.2986C5.39746 34.4103 6.42369 35.2655 7.50696 35.066L16.1162 33.5551C16.8003 33.4411 17.2848 32.8424 17.2848 32.1583V25.2025C17.2848 24.7749 17.8551 24.6039 18.0831 25.003L21.1333 30.3623C21.3329 30.7329 21.39 31.1605 21.2189 31.5596L19.3659 36.5769C18.9383 37.7457 19.7935 39 21.0478 39H21.0764C21.8461 39 22.5017 38.5154 22.7583 37.8027L25.2954 30.8755C25.4379 30.5049 25.4095 30.0773 25.2099 29.7067L21.5325 22.8079C21.2474 22.2663 21.2474 21.5821 21.5325 21.0405L22.6157 18.9595" stroke="#538F7F" stroke-width="1.5" stroke-linecap="round" stroke-linejoin="round"/>
<path d="M21.7892 14.3413L24.6114 19.5011C24.7824 19.8432 25.1245 20.0427 25.4951 20.0998L30.8829 20.9265C31.8237 21.069 32.7074 20.4419 32.8499 19.5011C33.0209 18.5604 32.3653 17.6767 31.4245 17.5056L27.0915 16.7644" stroke="#538F7F" stroke-width="1.5" stroke-linecap="round" stroke-linejoin="round"/>
<path d="M33.1355 16.85C33.7627 15.8238 34.0762 14.5979 33.9622 13.4006C33.8196 11.8613 33.107 10.9205 32.7079 10.4929C32.5369 10.3219 32.2803 10.2649 32.0523 10.3504C31.5107 10.5499 30.4559 11.0916 29.6292 12.4029C29.002 13.4291 28.6885 14.655 28.8025 15.8523" stroke="#538F7F" stroke-width="1.5" stroke-linecap="round" stroke-linejoin="round"/>
</svg>
