<svg width="40" height="40" viewBox="0 0 40 40" fill="none" xmlns="http://www.w3.org/2000/svg">
<path d="M20.9116 12.1817C20.646 13.4208 20.4395 16.0171 21.9442 19.0559C23.1243 21.4457 25.0715 23.3634 27.4318 24.5435C30.4706 26.0482 33.0373 25.8122 34.3059 25.5761C34.837 25.4581 35.2205 25.0746 35.3386 24.5435C35.6041 23.3044 35.8106 20.7081 34.3059 17.6693C33.1258 15.2795 31.1787 13.3618 28.8185 12.1817C25.7797 10.6771 23.2128 10.9131 21.9442 11.1491C21.4131 11.2671 21.0296 11.6507 20.9116 12.1817Z" stroke="#538F7F" stroke-width="1.5" stroke-linecap="round" stroke-linejoin="round"/>
<path d="M26.1925 11.2376C24.8058 12.1227 23.5668 13.1848 22.4752 14.4239" stroke="#538F7F" stroke-width="1.5" stroke-linecap="round" stroke-linejoin="round"/>
<path d="M33.9815 22.0062C32.8604 23.3634 31.5326 24.5435 30.028 25.4581" stroke="#538F7F" stroke-width="1.5" stroke-linecap="round" stroke-linejoin="round"/>
<path d="M19.6429 18.1708H12.0605C10.5559 18.1708 9.34631 16.9612 9.34631 15.4565V1H5.83533V33.9845" stroke="#538F7F" stroke-width="1.5" stroke-linecap="round" stroke-linejoin="round"/>
<path d="M33.1257 12.8898V1H29.5853V10.5885" stroke="#538F7F" stroke-width="1.5" stroke-linecap="round" stroke-linejoin="round"/>
<path d="M33.1257 33.9845V27.5233" stroke="#538F7F" stroke-width="1.5" stroke-linecap="round" stroke-linejoin="round"/>
<path d="M29.5853 27.1988V33.9845" stroke="#538F7F" stroke-width="1.5" stroke-linecap="round" stroke-linejoin="round"/>
<path d="M9.34644 33.9845V24.396C9.34644 22.8913 10.556 21.6817 12.0606 21.6817H21.4721" stroke="#538F7F" stroke-width="1.5" stroke-linecap="round" stroke-linejoin="round"/>
<path d="M10.8805 33.9845H4.30139V39H10.8805V33.9845Z" stroke="#538F7F" stroke-width="1.5" stroke-linecap="round" stroke-linejoin="round"/>
<path d="M34.6895 33.9845H28.1102V39H34.6895V33.9845Z" stroke="#538F7F" stroke-width="1.5" stroke-linecap="round" stroke-linejoin="round"/>
<path d="M24.6585 25.6056L23.1243 27.5823" stroke="#538F7F" stroke-width="1.5" stroke-linecap="round" stroke-linejoin="round"/>
<path d="M23.1243 24.396L21.0001 25.7236" stroke="#538F7F" stroke-width="1.5" stroke-linecap="round" stroke-linejoin="round"/>
<path d="M26.1925 26.8152L25.4255 29.205" stroke="#538F7F" stroke-width="1.5" stroke-linecap="round" stroke-linejoin="round"/>
<path d="M31.8573 21.7407C30.8837 21.8292 29.9101 21.8292 28.9365 21.7407C27.7269 21.5932 26.5467 21.2982 25.3961 20.9146C26.2222 21.7407 27.1663 22.4488 28.1989 22.9798C28.7005 23.2159 29.202 23.4224 29.7036 23.5994C30.5002 23.0683 31.2082 22.4488 31.8573 21.7702V21.7407Z" fill="#FF6B2B"/>
</svg>
