<svg width="40" height="40" viewBox="0 0 40 40" fill="none" xmlns="http://www.w3.org/2000/svg">
<path d="M31.1396 22.7654L31.629 20.7305C31.732 20.2153 31.9897 19.7259 32.3503 19.4168C32.7109 19.1077 33.2003 19.082 33.6124 19.3138C33.87 19.4683 34.0246 19.7517 33.9988 20.035L33.3806 25.8049C33.2261 26.964 32.7624 28.0716 32.0411 28.9989C30.8305 30.5187 29.8259 31.7293 29.0789 32.6308C28.6668 33.146 28.4607 33.79 28.538 34.4597L29.0789 39.0447" stroke="#538F7F" stroke-width="1.5" stroke-linecap="round" stroke-linejoin="round"/>
<path d="M30.0834 27.9686L30.7274 27.0413C31.3456 26.1655 31.6805 25.1352 31.7062 24.0533V23.6412C31.7062 23.2806 31.4486 22.9715 31.0879 22.9457C31.0879 22.9457 31.088 22.9457 31.0365 22.9457C30.341 23.1003 29.8001 23.6154 29.594 24.2851C29.1561 25.573 28.1515 26.1397 28.1515 26.1397C25.2151 27.3504 24.0044 29.5914 24.0302 31.9096" stroke="#538F7F" stroke-width="1.5" stroke-linecap="round" stroke-linejoin="round"/>
<path d="M24.0558 31.9096L23.824 38.6068" stroke="#538F7F" stroke-width="1.5" stroke-linecap="round" stroke-linejoin="round"/>
<path d="M8.18889 22.7654L7.69951 20.7305C7.59648 20.2153 7.33894 19.7259 6.97833 19.4168C6.61771 19.1077 6.1282 19.082 5.71607 19.3138C5.45848 19.4683 5.30393 19.7517 5.32969 20.035L5.94799 25.8049C6.10254 26.964 6.56612 28.0716 7.28735 28.9989C8.49799 30.5187 9.50257 31.7293 10.2496 32.6308C10.6617 33.146 10.8678 33.79 10.7905 34.4597L10.2496 39.0447" stroke="#538F7F" stroke-width="1.5" stroke-linecap="round" stroke-linejoin="round"/>
<path d="M9.24516 27.9686L8.6012 27.0413C7.983 26.1655 7.64819 25.1352 7.62244 24.0533V23.6412C7.62244 23.2806 7.87999 22.9715 8.24061 22.9457C8.24061 22.9457 8.24054 22.9457 8.29205 22.9457C8.98753 23.1003 9.52848 23.6154 9.73454 24.2851C10.1724 25.573 11.177 26.1397 11.177 26.1397C14.1135 27.3504 15.3241 29.5914 15.2984 31.9096" stroke="#538F7F" stroke-width="1.5" stroke-linecap="round" stroke-linejoin="round"/>
<path d="M15.2726 31.9096L15.4787 38.6068" stroke="#538F7F" stroke-width="1.5" stroke-linecap="round" stroke-linejoin="round"/>
<path d="M20.6558 27.0412C22.0983 26.0882 24.803 23.8215 26.2712 19.4683C27.4303 16.0424 27.4303 12.3332 26.2712 8.90738C24.803 4.55423 22.124 2.28749 20.6558 1.33443C20.0634 0.948054 19.2907 0.948054 18.6725 1.33443C17.23 2.28749 14.5253 4.55423 13.0571 8.90738C11.898 12.3332 11.898 16.0424 13.0571 19.4683C14.5253 23.8215 17.2043 26.0882 18.6725 27.0412C19.2649 27.4276 20.0376 27.4276 20.6558 27.0412Z" stroke="#538F7F" stroke-width="1.5" stroke-linecap="round" stroke-linejoin="round"/>
<path d="M15.8905 18.5153C15.4268 17.1243 15.1951 15.6561 15.1951 14.1879C15.1951 12.7196 15.4268 11.2514 15.8905 9.86047" stroke="#538F7F" stroke-width="1.5" stroke-linecap="round" stroke-linejoin="round"/>
<path d="M14.1648 14.1879H16.0709" stroke="#538F7F" stroke-width="1.5" stroke-linecap="round" stroke-linejoin="round"/>
<path d="M14.3966 16.6607L16.2255 16.197" stroke="#538F7F" stroke-width="1.5" stroke-linecap="round" stroke-linejoin="round"/>
<path d="M16.2255 12.1787L14.3966 11.7151" stroke="#538F7F" stroke-width="1.5" stroke-linecap="round" stroke-linejoin="round"/>
<path d="M14.6799 22.8684C17.977 23.6154 21.377 23.6154 24.6741 22.8684" stroke="#538F7F" stroke-width="1.5" stroke-linecap="round" stroke-linejoin="round"/>
<path d="M14.6799 5.5073C17.977 4.7603 21.377 4.7603 24.6741 5.5073" stroke="#538F7F" stroke-width="1.5" stroke-linecap="round" stroke-linejoin="round"/>
<path d="M28.6409 7.13007C29.5682 8.93315 29.9546 11.0453 29.7228 13.0545" stroke="#538F7F" stroke-width="1.5" stroke-linecap="round" stroke-linejoin="round"/>
<path d="M30.4441 5.66187C31.1396 6.79523 31.526 8.13465 31.5518 9.44833" stroke="#538F7F" stroke-width="1.5" stroke-linecap="round" stroke-linejoin="round"/>
<path d="M10.61 7.13007C9.68273 8.93315 9.29643 11.0453 9.52825 13.0545" stroke="#538F7F" stroke-width="1.5" stroke-linecap="round" stroke-linejoin="round"/>
<path d="M8.8069 5.66187C8.11142 6.79523 7.7251 8.13465 7.69934 9.44833" stroke="#538F7F" stroke-width="1.5" stroke-linecap="round" stroke-linejoin="round"/>
<path d="M25.5757 13.956C24.7772 15.2697 23.9272 16.5319 22.9484 17.7167C21.609 19.3395 20.0119 20.8077 18.1831 21.8381C18.6725 21.8638 19.1618 21.8896 19.6513 21.8896C20.9907 21.8896 22.3559 21.7608 23.6696 21.5032C24.0817 20.7562 24.4681 19.932 24.8029 18.9789C25.3438 17.3561 25.6014 15.6561 25.5757 13.956Z" fill="#FF6B2B"/>
</svg>
