<svg width="40" height="40" viewBox="0 0 40 40" fill="none" xmlns="http://www.w3.org/2000/svg">
<path d="M16.2429 9.18092C18.5322 9.18092 20.388 7.325 20.388 5.03563C20.388 2.74627 18.5322 0.890381 16.2429 0.890381C13.9535 0.890381 12.0975 2.74627 12.0975 5.03563C12.0975 7.325 13.9535 9.18092 16.2429 9.18092Z" stroke="#538F7F" stroke-width="1.5" stroke-linecap="round" stroke-linejoin="round"/>
<path d="M16.243 7.42937C14.9294 7.42937 13.8492 6.34925 13.8492 5.03561C13.8492 3.72197 14.9294 2.64188 16.243 2.64188C17.5567 2.64188 18.6367 3.72197 18.6367 5.03561C18.6367 6.34925 17.5567 7.42937 16.243 7.42937Z" fill="#FF6B2B"/>
<path d="M14.5789 10.261L11.7474 14.5522C11.4847 14.9609 10.9884 15.1069 10.5505 14.9317L6.72632 13.3262C5.90894 12.9759 5.00393 13.3262 4.62444 14.1436C4.21575 14.9901 4.62444 16.0119 5.5002 16.3622L11.689 18.8143C12.3604 19.077 13.1485 18.8435 13.5572 18.2596L14.7833 16.5081" stroke="#538F7F" stroke-width="1.5" stroke-linecap="round" stroke-linejoin="round"/>
<path d="M20.3883 8.88898L25.7305 10.261C27.0734 10.5529 27.6571 12.2169 26.9565 13.4137L24.6211 17.413C24.2417 18.0553 23.4827 18.318 22.7821 18.0845C21.9063 17.7633 21.4976 16.7124 21.9939 15.8951L23.5411 13.2094" stroke="#538F7F" stroke-width="1.5" stroke-linecap="round" stroke-linejoin="round"/>
<path d="M14.754 16.4789L18.2863 23.7185C18.4323 24.0396 18.5197 24.4191 18.4905 24.7694L17.9652 30.6954C17.9068 31.2209 18.0527 31.7171 18.3738 32.1258L22.8111 38.1394C23.3949 38.9276 24.5042 39.1319 25.3216 38.5773C26.1974 37.9934 26.4308 36.8257 25.8178 35.95L22.5484 31.2209C22.2564 30.8122 22.1396 30.2867 22.1688 29.7905L22.6359 25.5576C22.6943 25.0614 23.3656 24.8862 23.6284 25.3241L26.7812 30.2867C26.9855 30.6078 27.2774 30.8705 27.5985 31.0457L32.24 33.4395C33.145 33.9065 34.2835 33.5562 34.7506 32.6221C35.2176 31.6879 34.8382 30.5786 33.9332 30.1116L30.255 28.2433C29.8463 28.0389 29.5252 27.7178 29.3208 27.3091L25.3507 19.2522" stroke="#538F7F" stroke-width="1.5" stroke-linecap="round" stroke-linejoin="round"/>
<path d="M20.3878 16.2454C19.5996 16.1286 18.8699 15.8659 18.1693 15.428C16.8265 14.5814 16.2718 13.5013 16.0674 12.9467C15.9798 12.7131 16.0674 12.4504 16.2134 12.2753C16.6513 11.8666 17.6146 11.1368 19.191 10.9908C20.3003 10.8741 21.4388 11.1076 22.4021 11.633C22.7232 11.8082 23.0443 12.0417 23.2487 12.3628C23.3654 12.5672 23.4822 12.8299 23.5406 13.1219" stroke="#538F7F" stroke-width="1.5" stroke-linecap="round" stroke-linejoin="round"/>
</svg>
