<svg width="40" height="40" viewBox="0 0 40 40" fill="none" xmlns="http://www.w3.org/2000/svg">
<path d="M17.7199 8.88436C19.3481 7.25616 19.3481 4.61633 17.7199 2.98814C16.0917 1.35994 13.4519 1.35994 11.8237 2.98814C10.1955 4.61633 10.1955 7.25616 11.8237 8.88436C13.4519 10.5126 16.0917 10.5126 17.7199 8.88436Z" stroke="#538F7F" stroke-width="1.5" stroke-linecap="round" stroke-linejoin="round"/>
<path d="M14.7759 8.31153C13.4655 8.31153 12.3934 7.23943 12.3934 5.92909C12.3934 4.61876 13.4655 3.54666 14.7759 3.54666C16.0862 3.54666 17.1583 4.61876 17.1583 5.92909C17.1583 7.23943 16.0862 8.31153 14.7759 8.31153Z" fill="#FF6B2B"/>
<path d="M13.674 11.7362L10.7555 15.7864L7.59886 13.5528C6.91391 13.0764 5.99069 13.2252 5.48443 13.8804L5.42481 13.9697C4.91854 14.6547 5.06744 15.5779 5.72261 16.0842L10.3684 19.628C11.0236 20.1343 11.9467 19.9854 12.4232 19.3302L15.3714 15.1908" stroke="#538F7F" stroke-width="1.5" stroke-linecap="round" stroke-linejoin="round"/>
<path d="M15.4013 15.1908L19.1834 22.8146L13.6741 25.5543C12.6615 26.0606 12.2148 27.2816 12.6317 28.3239L16.1756 36.8709C16.5925 37.8537 17.754 38.3302 18.7367 37.8537C19.6599 37.4367 20.0768 36.3647 19.6896 35.4415L17.1286 28.9494C17.0095 28.6218 17.1285 28.2644 17.4561 28.0857L22.1019 25.7926C22.6975 25.4948 23.3824 25.7926 23.5909 26.418L25.616 32.3741C25.7352 32.7612 25.9733 33.0888 26.3009 33.3271L32.1379 37.6452C32.9122 38.2111 34.0141 38.0324 34.5502 37.2283C34.9969 36.5434 34.9074 35.6202 34.282 35.0543L29.5172 30.7064C29.2491 30.4681 29.0705 30.1703 28.9514 29.813L27.3731 24.5716C26.837 22.7848 26.1521 21.0575 25.3182 19.3898L21.7148 12.1532L27.1943 11.7661L27.79 14.893C27.9686 15.7864 28.862 16.3523 29.7257 16.0842C30.5 15.846 30.9467 15.0419 30.768 14.2378L29.8448 9.71118C29.6959 9.02623 29.1003 8.51999 28.3856 8.54977L19.9874 8.72841" stroke="#538F7F" stroke-width="1.5" stroke-linecap="round" stroke-linejoin="round"/>
</svg>
