<svg width="40" height="40" viewBox="0 0 40 40" fill="none" xmlns="http://www.w3.org/2000/svg">
<g clip-path="url(#clip0_5134_380390)">
<path d="M38.2618 1.34814L36.3422 2.69791" stroke="#538F7F" stroke-width="1.5" stroke-miterlimit="10" stroke-linecap="round"/>
<path d="M39.4316 2.93793L13.7561 21.2647C13.0063 21.8046 12.4364 22.5545 12.1964 23.4543C11.5965 25.6439 9.28692 27.0237 9.28692 27.0237L1.81823 32.3628C1.3983 32.6627 1.30831 33.2326 1.60826 33.6525L4.8177 38.1517C5.17764 38.6616 5.9575 38.6616 6.31744 38.1517L11.5965 31.163C12.1064 31.8229 13.0663 31.9728 13.7261 31.4929L13.8761 31.373C14.446 30.953 14.686 30.2031 14.416 29.5432C13.9061 28.3135 13.5762 26.1839 15.9757 24.4742L27.8837 15.9556C28.6035 15.4457 28.7835 14.4259 28.2736 13.706" stroke="#538F7F" stroke-width="1.5" stroke-miterlimit="10" stroke-linecap="round"/>
<path d="M13.2162 18.5352L12.7063 17.8153C12.4964 17.5154 12.5564 17.1255 12.8563 16.9155L15.3759 15.1158C15.6758 14.9059 16.0658 14.9658 16.2757 15.2658L16.7856 15.9856" stroke="#538F7F" stroke-width="1.5" stroke-miterlimit="10" stroke-linecap="round"/>
<path d="M21.6746 12.5063L21.1647 11.7864C20.9547 11.4865 21.0147 11.0965 21.3147 10.8866L23.8342 9.08689C24.1342 8.87692 24.5241 8.93691 24.7341 9.23686L25.244 9.95671" stroke="#538F7F" stroke-width="1.5" stroke-miterlimit="10" stroke-linecap="round"/>
<path d="M16.7855 15.9856L21.6747 12.5062" stroke="#538F7F" stroke-width="1.5" stroke-miterlimit="10" stroke-linecap="round"/>
<path d="M5.56763 36.142L8.02721 32.8726C7.57729 32.2428 7.12736 31.6428 6.70743 31.0429L3.55798 33.2925L5.56763 36.1121V36.142Z" fill="#FF6B2B"/>
</g>
<defs>
<clipPath id="clip0_5134_380390">
<rect width="40" height="40" fill="white"/>
</clipPath>
</defs>
</svg>
