<svg width="40" height="40" viewBox="0 0 40 40" fill="none" xmlns="http://www.w3.org/2000/svg">
<path d="M12.3493 8.49824C14.4199 8.49824 16.0985 6.8197 16.0985 4.74912C16.0985 2.67854 14.4199 1 12.3493 1C10.2788 1 8.60022 2.67854 8.60022 4.74912C8.60022 6.8197 10.2788 8.49824 12.3493 8.49824Z" stroke="#538F7F" stroke-width="1.5" stroke-linecap="round" stroke-linejoin="round"/>
<path d="M12.3495 6.89146C11.1712 6.89146 10.2072 5.9274 10.2072 4.74911C10.2072 3.57081 11.1712 2.60675 12.3495 2.60675C13.5278 2.60675 14.4919 3.57081 14.4919 4.74911C14.4919 5.9274 13.5278 6.89146 12.3495 6.89146Z" fill="#FF6B2B"/>
<path d="M23.3559 11.0958L20.8654 13.5863C20.3833 14.0684 19.58 14.0684 19.0979 13.5863L16.8752 11.3636" stroke="#538F7F" stroke-width="1.5" stroke-linecap="round" stroke-linejoin="round"/>
<path d="M27.4531 11.444L21.749 17.0945C20.8118 18.0318 19.3121 18.0318 18.3748 17.0945L16.902 15.6216V36.8309C16.902 38.036 15.9379 39 14.7328 39C13.5278 39 12.5637 38.036 12.5637 36.8309V25.9317C12.5637 25.2086 12.1888 24.5123 11.5461 24.1374C10.5285 23.5215 9.88574 22.3968 9.88574 21.2185V11.4172C9.88574 10.6406 10.5285 9.99792 11.3051 9.99792H31.0951" stroke="#538F7F" stroke-width="1.5" stroke-linecap="round" stroke-linejoin="round"/>
<path d="M21.1064 9.99795V8.12338C21.1064 7.74847 20.785 7.42709 20.4101 7.42709H17.3037" stroke="#538F7F" stroke-width="1.5" stroke-linecap="round" stroke-linejoin="round"/>
</svg>
