<svg width="40" height="40" viewBox="0 0 40 40" fill="none" xmlns="http://www.w3.org/2000/svg">
<path d="M7.20825 12.4639C7.41101 13.3039 7.96142 14.0281 8.71453 14.4625" stroke="#538F7F" stroke-width="1.5" stroke-linecap="round" stroke-linejoin="round"/>
<path d="M4.89111 12.0294C5.15181 13.9412 6.45538 15.6502 8.19333 16.4612" stroke="#538F7F" stroke-width="1.5" stroke-linecap="round" stroke-linejoin="round"/>
<path d="M24.7642 8.701C26.3478 7.11734 26.3478 4.54972 24.7642 2.96606C23.1805 1.3824 20.6129 1.3824 19.0292 2.96606C17.4456 4.54972 17.4456 7.11734 19.0292 8.701C20.6129 10.2847 23.1805 10.2847 24.7642 8.701Z" stroke="#538F7F" stroke-width="1.5" stroke-linecap="round" stroke-linejoin="round"/>
<path d="M21.8936 8.14796C20.6191 8.14796 19.5763 7.10519 19.5763 5.83069C19.5763 4.5562 20.6191 3.51343 21.8936 3.51343C23.1681 3.51343 24.2108 4.5562 24.2108 5.83069C24.2108 7.10519 23.1681 8.14796 21.8936 8.14796Z" fill="#FF6B2B"/>
<path d="M15.1157 11.5949L17.5198 13.4487L19.9241 11.4501" stroke="#538F7F" stroke-width="1.5" stroke-linecap="round" stroke-linejoin="round"/>
<path d="M26.702 9.53824L32.7558 4.84579C33.4799 4.26647 34.5517 4.44028 35.0441 5.22236C35.4786 5.88857 35.3627 6.81549 34.7254 7.33688L28.2951 12.5217L30.2357 18.8942L33.7406 27.7288C33.7985 27.9026 33.8565 28.0764 33.8854 28.2502L35.3337 35.6654C35.5944 36.9399 34.6096 38.0986 33.3351 38.0986C32.3792 38.0986 31.5393 37.4323 31.3365 36.4765L29.8592 29.4957C29.8013 29.264 29.7434 29.0322 29.6275 28.8005L28.1213 24.8612C27.8895 24.224 26.9626 24.2529 26.7888 24.9191L25.862 28.1633C25.7461 28.5398 25.5722 28.9164 25.3115 29.235L18.5915 37.3165C17.8964 38.1855 16.6218 38.3303 15.7528 37.6351C14.8549 36.9399 14.6812 35.6075 15.4343 34.7385L20.5902 28.5978C20.8219 28.3081 20.9956 27.9895 21.1405 27.6419L22.0674 24.8901C22.9074 22.3411 22.9364 19.6183 22.0674 17.0694L21.2563 14.6073L18.4757 16.7218C17.8964 17.1852 17.0563 17.1563 16.4769 16.7218L13.3197 14.2597" stroke="#538F7F" stroke-width="1.5" stroke-linecap="round" stroke-linejoin="round"/>
<path d="M14.2394 11.7106C14.5338 10.4652 13.7628 9.21684 12.5173 8.92242C11.2719 8.62801 10.0235 9.39899 9.72913 10.6445C9.43472 11.8899 10.2057 13.1382 11.4512 13.4327C12.6966 13.7271 13.9449 12.9561 14.2394 11.7106Z" stroke="#538F7F" stroke-width="1.5" stroke-linecap="round" stroke-linejoin="round"/>
</svg>
