<?xml version="1.0" encoding="UTF-8"?>
<svg id="Layer_1" xmlns="http://www.w3.org/2000/svg" version="1.1" viewBox="0 0 143.6 163.1">
  <!-- Generator: Adobe Illustrator 30.1.0, SVG Export Plug-In . SVG Version: 2.1.1 Build 136)  -->
  <defs>
    <style>
      .st0 {
        fill: #65bba3;
      }

      .st1 {
        fill: none;
        stroke: #0b4b39;
        stroke-linecap: round;
        stroke-linejoin: round;
        stroke-width: 3px;
      }
    </style>
  </defs>
  <path class="st1" d="M92.77,36.95c-.99,6.55-7.14,10.95-13.69,9.97s-10.95-7.14-9.96-13.69,7.14-10.95,13.69-9.97c6.55.99,10.95,7.14,9.96,13.69Z"/>
  <path class="st1" d="M89.51,136.72l3.77-24.16c.19-1.03.08-2.02-.33-2.98l-6.8-16.95c-.97-2.41-1.27-5.09-.85-7.65l3.11-20.06,16.18,2.54c1.23.17,2.61-.09,3.62-.9l14.15-10.32c2.23-1.66,2.7-4.73,1.05-6.86h0c-1.66-2.23-4.73-2.7-6.86-1.05l-10.62,7.71c-1.03.72-2.3,1.06-3.62.9l-12.39-1.95-23.64-3.62-16.18-2.54c-1.23-.17-2.61.09-3.62.9l-14.15,10.32c-2.23,1.66-2.7,4.73-1.05,6.86h0c1.66,2.23,4.73,2.7,6.86,1.05l10.62-7.71c1.03-.72,2.3-1.06,3.62-.9l12.39,1.95-3.11,20.06c-.42,2.56-1.46,4.99-3.15,6.99l-11.51,14.15c-.62.77-1.02,1.72-1.21,2.75l-3.77,24.16"/>
  <path class="st1" d="M53.48,131.14l3.21-20.98c.19-1.03.6-1.88,1.22-2.65l14.7-18.13,8.54,21.69c.41.96.52,1.95.32,2.88l-3.21,20.98"/>
  <path class="st1" d="M112.24,132.99h0c-5.21,3.8-11.87,5.44-18.22,4.43l-55.17-8.49c-6.45-1-12.17-4.49-16.07-9.79l-1.07-1.49"/>
  <path class="st0" d="M87.28,147.65c-.38.04-.76.08-1.23,0-1.17-.16-2.23-.77-2.95-1.71-.72-.94-1-2.07-.81-3.17.32-1.92,2-3.41,3.97-3.63s.76-.08,1.23,0c2.5.38,4.19,2.51,3.76,4.88-.32,1.92-2,3.41-3.97,3.63Z"/>
  <path class="st0" d="M37.64,140.13c-.38.04-.76.08-1.23,0-1.17-.16-2.23-.77-2.95-1.71-.72-.94-1-2.07-.81-3.17.32-1.92,2-3.41,3.97-3.63s.76-.08,1.23,0c2.5.38,4.19,2.51,3.76,4.88-.32,1.92-2,3.41-3.97,3.63Z"/>
</svg>