<svg width="40" height="40" viewBox="0 0 40 40" fill="none" xmlns="http://www.w3.org/2000/svg">
<path d="M27.2606 9.33923C28.9561 7.64366 28.9562 4.8946 27.2606 3.19903C25.565 1.50345 22.8159 1.50345 21.1204 3.19903C19.4248 4.8946 19.4248 7.64366 21.1204 9.33923C22.816 11.0348 25.565 11.0348 27.2606 9.33923Z" stroke="#538F7F" stroke-width="1.5" stroke-linecap="round" stroke-linejoin="round"/>
<path d="M24.1888 8.96097C22.7137 8.96097 21.517 7.76424 21.517 6.28914C21.517 4.81405 22.7137 3.61725 24.1888 3.61725C25.6639 3.61725 26.8607 4.81405 26.8607 6.28914C26.8607 7.76424 25.6639 8.96097 24.1888 8.96097Z" fill="#FF6B2B"/>
<path d="M18.5946 38.1289V31.3379C18.5946 30.8648 18.3997 30.4195 18.0657 30.0855L10.4398 22.6543C8.85338 21.0957 8.82552 18.5631 10.4119 17.0045L18.7894 8.65488" stroke="#538F7F" stroke-width="1.5" stroke-linecap="round" stroke-linejoin="round"/>
<path d="M25.2466 12.3564L28.0576 15.251C28.3359 15.5293 28.7256 15.6962 29.1152 15.6962H32.956C34.0414 15.6962 34.9321 16.5869 34.9321 17.6723C34.9321 18.7578 34.0414 19.6484 32.956 19.6484H27.1948C26.8051 19.6484 26.4155 19.4814 26.1372 19.2031L22.2407 15.251L17.2032 20.2885C16.7857 20.706 16.8135 21.3462 17.2032 21.7358L22.4077 26.6621C22.7695 26.9961 22.9644 27.4414 22.9644 27.9145V38.0732" stroke="#538F7F" stroke-width="1.5" stroke-linecap="round" stroke-linejoin="round"/>
<path d="M5.04053 38.1289H31.0077C31.8705 38.1289 32.6776 37.6557 33.0394 36.8765C33.4012 36.0972 33.4013 35.0117 31.954 33.7871" stroke="#538F7F" stroke-width="1.5" stroke-linecap="round" stroke-linejoin="round"/>
<path d="M32.9559 19.6763L28.0575 35.958" stroke="#538F7F" stroke-width="1.5" stroke-linecap="round" stroke-linejoin="round"/>
</svg>
