<svg width="40" height="40" viewBox="0 0 40 40" fill="none" xmlns="http://www.w3.org/2000/svg">
<path d="M15.521 9.35078C17.4696 8.60666 18.4461 6.42372 17.702 4.47507C16.9579 2.52643 14.7749 1.54995 12.8263 2.29406C10.8776 3.03818 9.90121 5.2211 10.6453 7.16975C11.3894 9.11839 13.5723 10.0949 15.521 9.35078Z" stroke="#538F7F" stroke-width="1.5" stroke-linecap="round" stroke-linejoin="round"/>
<path d="M14.1859 7.80949C14.0129 7.80949 13.8687 7.80943 13.6957 7.75177C13.148 7.63645 12.7155 7.29049 12.4272 6.8292C12.1389 6.36791 12.0524 5.82015 12.1677 5.27237C12.3983 4.34978 13.2057 3.68668 14.1571 3.68668C15.1085 3.68668 14.4742 3.68666 14.6472 3.74432C15.195 3.85965 15.6274 4.2056 15.9157 4.66689C16.204 5.12819 16.2905 5.67601 16.1752 6.2238C15.9446 7.14638 15.1373 7.80949 14.1859 7.80949Z" fill="#FF6B2B"/>
<path d="M19.4043 8.6744L22.9505 6.5121L25.4299 2.18748C25.92 1.35139 26.9868 1.06303 27.8517 1.55315C28.6302 2.01444 28.9473 3.02352 28.5148 3.85961L25.8624 9.10687L21.2494 12.1341L25.0263 19.4282C25.5452 20.4085 25.8047 21.5041 25.8047 22.6285V30.3263C25.8047 30.7587 25.7182 31.1912 25.5453 31.566L22.5468 38.889" stroke="#538F7F" stroke-width="1.5" stroke-linecap="round" stroke-linejoin="round"/>
<path d="M18.3375 38.9179L21.8549 31.5084C22.0855 31.0471 22.2008 30.5282 22.2008 30.0092V23.0898" stroke="#538F7F" stroke-width="1.5" stroke-linecap="round" stroke-linejoin="round"/>
<path d="M13.2057 11.9034L5.94039 21.5617C5.33494 22.369 5.53671 23.5511 6.40164 24.0989H6.45935C7.23778 24.6178 8.24682 24.4448 8.7946 23.6952L14.0418 16.6605L17.588 23.6952C17.8186 24.1853 17.9628 24.7043 17.9628 25.2521V29.8938C17.9628 30.4128 17.8475 30.9317 17.6168 31.393L14.013 38.9467" stroke="#538F7F" stroke-width="1.5" stroke-linecap="round" stroke-linejoin="round"/>
<path d="M35.1459 35.9482L34.7999 36.2942C33.1277 37.9664 30.8501 38.9178 28.4859 38.9178H10.6685C8.3044 38.9178 6.0268 37.9664 4.35461 36.2942" stroke="#538F7F" stroke-width="1.5" stroke-linecap="round" stroke-linejoin="round"/>
</svg>
