<svg width="40" height="40" viewBox="0 0 40 40" fill="none" xmlns="http://www.w3.org/2000/svg">
<path d="M34.0062 39.1579C32.3449 39.1579 30.9247 38.2736 30.1477 36.9338C29.3706 38.2736 27.9236 39.1579 26.2891 39.1579C24.6545 39.1579 23.2075 38.2736 22.4304 36.9338C21.6533 38.2736 20.2063 39.1579 18.5718 39.1579C16.9372 39.1579 15.4903 38.2736 14.7132 36.9338C13.9361 38.2736 12.4892 39.1579 10.8546 39.1579C9.22007 39.1579 7.77312 38.2736 6.99604 36.9338C6.21896 38.2736 4.77188 39.1579 3.13733 39.1579" stroke="#538F7F" stroke-width="1.5" stroke-linecap="round" stroke-linejoin="round"/>
<path d="M3.05701 33.7719C4.71835 33.7719 6.13851 32.8876 6.91559 31.5478C7.69267 32.8876 9.13962 33.7719 10.7742 33.7719C12.4087 33.7719 13.8558 32.8876 14.6329 31.5478C15.41 32.8876 16.8569 33.7719 18.4915 33.7719" stroke="#538F7F" stroke-width="1.5" stroke-linecap="round" stroke-linejoin="round"/>
<path d="M28.0038 5.20749C27.5483 6.92242 25.7797 7.91386 24.0648 7.45833C22.3498 7.0028 21.3584 5.23428 21.8139 3.51935C22.2695 1.80441 24.038 0.812956 25.753 1.26849C27.4679 1.72402 28.4593 3.49255 28.0038 5.20749Z" stroke="#538F7F" stroke-width="1.5" stroke-linecap="round" stroke-linejoin="round"/>
<path d="M24.9224 5.95773C24.7884 5.95773 24.6544 5.95773 24.4936 5.90413C24.0917 5.79695 23.7433 5.529 23.529 5.15385C23.3146 4.77871 23.261 4.34998 23.3682 3.94804C23.5557 3.25135 24.1989 2.76901 24.8956 2.76901C25.5923 2.76901 25.1636 2.76902 25.3243 2.82261C26.1818 3.06377 26.6909 3.92124 26.4497 4.7787C26.2621 5.4754 25.6191 5.95773 24.9224 5.95773Z" fill="#FF6B2B"/>
<path d="M24.1987 31.6818L25.9136 25.358C25.994 25.09 25.994 24.8221 25.9136 24.5541L24.6006 19.838C24.4131 19.1681 24.4131 18.4446 24.6006 17.7747L26.0209 12.5228L30.2546 13.675C30.5761 13.7554 30.9513 13.7286 31.2461 13.541L35.319 11.2098C35.9621 10.8346 36.1765 10.0308 35.8014 9.41444C35.4262 8.77134 34.6223 8.55696 34.006 8.93211L30.9513 10.6738C30.6565 10.8346 30.3081 10.8882 29.9598 10.8078L26.7175 9.92356L20.5277 8.26221L16.2939 7.10999C15.9723 7.0296 15.5973 7.0564 15.3025 7.24397L11.2295 9.57521C10.5864 9.95036 10.3721 10.7542 10.7472 11.3705C11.1224 12.0136 11.9262 12.228 12.5425 11.8529L15.5972 10.1111C15.8919 9.95036 16.2403 9.89676 16.5887 9.97715L19.831 10.8614L18.4107 16.1134C18.2232 16.7833 17.8749 17.3996 17.3657 17.8819L13.8823 21.3118C13.6947 21.4994 13.5607 21.7406 13.4803 22.0085L11.7654 28.3323" stroke="#538F7F" stroke-width="1.5" stroke-linecap="round" stroke-linejoin="round"/>
<path d="M14.7666 29.1362L16.2404 23.643C16.3208 23.3751 16.4547 23.1607 16.6423 22.9731L21.0903 18.5786L22.7249 24.6077C22.8053 24.8756 22.8053 25.1436 22.7249 25.3848L21.2511 30.8779" stroke="#538F7F" stroke-width="1.5" stroke-linecap="round" stroke-linejoin="round"/>
<path d="M30.3618 31.3603C28.8612 32.2177 27.0391 32.4589 25.3777 32.0033L10.9347 28.1179C9.24661 27.6624 7.82645 26.5638 6.94219 25.0364L6.70105 24.6077" stroke="#538F7F" stroke-width="1.5" stroke-linecap="round" stroke-linejoin="round"/>
</svg>
