<svg width="40" height="40" viewBox="0 0 40 40" fill="none" xmlns="http://www.w3.org/2000/svg">
<g clip-path="url(#clip0_5134_380404)">
<path d="M38.4821 32.9299C36.4691 32.9299 34.7038 31.846 33.7438 30.2046C32.7837 31.846 31.0493 32.9299 29.0053 32.9299C26.9613 32.9299 25.227 31.846 24.267 30.2046C23.3069 31.846 21.5727 32.9299 19.5287 32.9299C17.4847 32.9299 15.7503 31.846 14.7902 30.2046C13.8301 31.846 12.0959 32.9299 10.0519 32.9299C8.00786 32.9299 6.27346 31.846 5.31339 30.2046C4.35333 31.846 2.61908 32.9299 0.575073 32.9299" stroke="#538F7F" stroke-width="1.5" stroke-linecap="round" stroke-linejoin="round"/>
<path d="M0.667847 26.3643C2.68088 26.3643 4.44625 25.2804 5.40632 23.639C6.36638 25.2804 8.10063 26.3643 10.1446 26.3643C12.1886 26.3643 13.923 25.2804 14.8831 23.639C15.8432 25.2804 17.5774 26.3643 19.6214 26.3643C21.6654 26.3643 23.3997 25.2804 24.3598 23.639C25.3198 25.2804 27.0542 26.3643 29.0982 26.3643C31.1422 26.3643 32.8765 25.2804 33.8365 23.639C34.7966 25.2804 36.531 26.3643 38.575 26.3643" stroke="#538F7F" stroke-width="1.5" stroke-linecap="round" stroke-linejoin="round"/>
<path d="M30.7085 16.6708C33.3597 16.6708 35.5088 14.5216 35.5088 11.8705C35.5088 9.21931 33.3597 7.07013 30.7085 7.07013C28.0574 7.07013 25.9082 9.21931 25.9082 11.8705C25.9082 14.5216 28.0574 16.6708 30.7085 16.6708Z" stroke="#538F7F" stroke-width="1.5" stroke-linecap="round" stroke-linejoin="round"/>
<path d="M30.7085 14.8126C29.9342 14.8126 29.191 14.5029 28.6336 13.9454C27.4877 12.7996 27.4877 10.9414 28.6336 9.79548C29.191 9.23803 29.9342 8.92831 30.7085 8.92831C31.4827 8.92831 32.226 9.23803 32.7835 9.79548C33.9294 10.9414 33.9294 12.7996 32.7835 13.9454C32.226 14.5029 31.4827 14.8126 30.7085 14.8126Z" fill="#FF6B2B"/>
<path d="M26.3727 22.9886L27.9212 21.4401C28.4787 20.8827 28.4787 20.0155 27.9212 19.458L22.13 13.6667L14.5114 9.33093L6.95475 11.344C5.90178 11.6227 5.28238 12.7066 5.56111 13.7596C5.83984 14.8126 6.92372 15.432 7.97669 15.1532L13.83 13.5738L19.1258 16.6088L11.3215 24.3203" stroke="#538F7F" stroke-width="1.5" stroke-linecap="round" stroke-linejoin="round"/>
</g>
<defs>
<clipPath id="clip0_5134_380404">
<rect width="40" height="40" fill="white"/>
</clipPath>
</defs>
</svg>
