<svg width="40" height="40" viewBox="0 0 40 40" fill="none" xmlns="http://www.w3.org/2000/svg">
<path d="M18.3397 9.64567C20.7272 9.64567 22.6625 7.71026 22.6625 5.32283C22.6625 2.9354 20.7272 1.00006 18.3397 1.00006C15.9523 1.00006 14.017 2.9354 14.017 5.32283C14.017 7.71026 15.9523 9.64567 18.3397 9.64567Z" stroke="#538F7F" stroke-width="1.5" stroke-miterlimit="10" stroke-linecap="round"/>
<path d="M18.3397 7.89315C16.9085 7.89315 15.7694 6.7248 15.7694 5.3228C15.7694 3.92081 16.9377 2.75253 18.3397 2.75253C19.7417 2.75253 20.91 3.92081 20.91 5.3228C20.91 6.7248 19.7417 7.89315 18.3397 7.89315Z" fill="#FF6B2B"/>
<path d="M10.395 9.29518L3.53102 17.123C2.09981 18.7587 2.18732 21.2414 3.70615 22.7602L9.60628 28.6603C9.81074 28.8647 9.95684 29.186 9.95684 29.4781V36.8385C9.95684 38.0361 10.9208 39 12.1184 39C13.3159 39 14.2796 38.0361 14.2796 36.8385V27.5211C14.2796 27.229 14.1628 26.9662 13.9875 26.7325L9.37267 21.6795L14.046 16.1884V19.2844C14.046 20.6864 15.1852 21.8255 16.5872 21.8255H22.1367C23.0714 21.8255 23.8017 21.0661 23.8017 20.1606C23.8017 19.226 23.0422 18.4958 22.1367 18.4958H18.6902C18.2521 18.4958 17.9015 18.1453 17.9015 17.7072V13.6764C17.9015 13.1215 17.6387 12.5957 17.1713 12.2452L12.7316 9.00309C12.0014 8.47734 10.9792 8.56494 10.3659 9.26594L10.395 9.29518Z" stroke="#538F7F" stroke-width="1.5" stroke-miterlimit="10" stroke-linecap="round"/>
<path d="M28.0369 15.1661C27.0731 16.5388 25.3789 17.0061 24.269 16.2175C23.159 15.4289 23.0421 13.6764 24.006 12.3328C24.9698 10.96 26.664 10.4927 27.7739 11.2813C28.8839 12.07 29.0008 13.8225 28.0369 15.1661Z" stroke="#538F7F" stroke-width="1.5" stroke-miterlimit="10" stroke-linecap="round"/>
<path d="M24.2688 16.2175L22.7793 18.4665" stroke="#538F7F" stroke-width="1.5" stroke-miterlimit="10" stroke-linecap="round"/>
<path d="M37.4127 20.6864H26.3136V38.9708H29.2635V23.8409H37.4127" stroke="#538F7F" stroke-width="1.5" stroke-miterlimit="10" stroke-linecap="round"/>
</svg>
