<svg width="40" height="40" viewBox="0 0 40 40" fill="none" xmlns="http://www.w3.org/2000/svg">
<path d="M9.29997 10.4819C10.4414 8.87575 9.76416 6.43484 7.78732 5.02997C5.81049 3.62511 3.28267 3.78829 2.14122 5.39447C0.999765 7.00065 1.67698 9.44152 3.65381 10.8464C5.63065 12.2512 8.15851 12.0881 9.29997 10.4819Z" stroke="#538F7F" stroke-width="1.5" stroke-miterlimit="10" stroke-linecap="round"/>
<path d="M8.80212 9.68512L13.2931 12.9036" stroke="#538F7F" stroke-width="1.5" stroke-miterlimit="10" stroke-linecap="round"/>
<path d="M21.5514 11.2569C23.2876 11.2569 24.6953 9.84944 24.6953 8.11323C24.6953 6.37702 23.2876 4.96957 21.5514 4.96957C19.8152 4.96957 18.4078 6.37702 18.4078 8.11323C18.4078 9.84944 19.8152 11.2569 21.5514 11.2569Z" stroke="#538F7F" stroke-width="1.5" stroke-miterlimit="10" stroke-linecap="round"/>
<path d="M21.5515 9.75996C20.6284 9.75996 19.9049 9.01144 19.9049 8.11324C19.9049 7.21504 20.6533 6.46658 21.5515 6.46658C22.4497 6.46658 23.1983 7.21504 23.1983 8.11324C23.1983 9.01144 22.4497 9.75996 21.5515 9.75996Z" fill="#FF6B2B"/>
<path d="M17.8838 14.8248L15.364 12.6541C14.7901 12.1551 13.9169 12.205 13.4179 12.7789L13.2932 12.9286C12.7692 13.5274 12.844 14.4256 13.4428 14.9496L17.5846 18.3427C17.884 18.5922 18.3081 18.6421 18.6574 18.4675L22.7242 16.4216L25.8678 22.9835V28.1731C25.8678 28.4974 25.7431 28.8217 25.5435 29.0712L21.8758 33.5373C21.302 34.2359 21.4019 35.2588 22.1005 35.8077C22.799 36.3815 23.7969 36.2568 24.3708 35.5832L28.8121 30.169C29.0117 29.9196 29.1364 29.5952 29.1364 29.2708V24.6301C29.1364 24.1311 29.7851 23.9565 30.0596 24.3557L32.8041 28.697C32.9538 28.9215 33.0285 29.196 33.0285 29.4704V34.5852C33.0285 35.4834 33.752 36.2069 34.6502 36.2069H34.7002C35.5984 36.2069 36.3219 35.4834 36.3219 34.5852V28.7718C36.3219 28.5473 36.2721 28.3227 36.1723 28.1231L28.9865 14.3508L33.8021 15.5733C34.1763 15.6731 34.4755 15.9725 34.6003 16.3467L35.3488 18.8916C35.5484 19.6152 36.2969 20.0393 37.0205 19.8397C37.769 19.6401 38.243 18.8667 38.0185 18.1182L36.8209 13.7021C36.7211 13.3029 36.3968 13.0034 35.9976 12.9036L27.8638 10.9576C27.1901 10.7829 26.4667 10.8827 25.8429 11.232L18.9817 14.9995C18.6075 15.1991 18.1585 15.1492 17.8341 14.8747L17.8838 14.8248Z" stroke="#538F7F" stroke-width="1.5" stroke-miterlimit="10" stroke-linecap="round"/>
</svg>
