<svg width="40" height="40" viewBox="0 0 40 40" fill="none" xmlns="http://www.w3.org/2000/svg">
<path d="M20.5606 9.64567C22.948 9.64567 24.8835 7.71026 24.8835 5.32283C24.8835 2.93541 22.948 1 20.5606 1C18.1731 1 16.2378 2.93541 16.2378 5.32283C16.2378 7.71026 18.1731 9.64567 20.5606 9.64567Z" stroke="#538F7F" stroke-width="1.5" stroke-miterlimit="10" stroke-linecap="round"/>
<path d="M20.5605 7.92235C19.1293 7.92235 17.9902 6.754 17.9902 5.35201C17.9902 3.95001 19.1585 2.78174 20.5605 2.78174C21.9625 2.78174 23.1309 3.95001 23.1309 5.35201C23.1309 6.754 21.9625 7.92235 20.5605 7.92235Z" fill="#FF6B2B"/>
<path d="M12.5867 9.29518L5.72272 17.123C4.29152 18.7587 4.37917 21.2414 5.898 22.7602L11.798 28.6603C12.0024 28.8647 12.1485 29.186 12.1485 29.4781V36.8386C12.1485 38.0361 13.1124 39 14.3099 39C15.5075 39 16.4713 38.0361 16.4713 36.8386V27.5212C16.4713 27.2291 16.3545 26.9662 16.1792 26.7326L11.5644 21.6795L16.2377 16.1884V19.2845C16.2377 20.6864 17.3767 21.8256 18.7787 21.8256H24.3283C25.263 21.8256 25.9932 21.0662 25.9932 20.1607C25.9932 19.226 25.2337 18.4958 24.3283 18.4958H20.8818C20.4436 18.4958 20.0931 18.1453 20.0931 17.7072V13.6764C20.0931 13.1215 19.8302 12.5957 19.3629 12.2452L14.9233 9.00309C14.1931 8.47735 13.1708 8.56501 12.5574 9.26601L12.5867 9.29518Z" stroke="#538F7F" stroke-width="1.5" stroke-miterlimit="10" stroke-linecap="round"/>
<path d="M34.2878 11.3689C32.915 13.2967 30.5492 13.9685 28.972 12.8586C27.3947 11.7487 27.2486 9.29513 28.6214 7.33818C29.9942 5.41043 32.3601 4.73869 33.9374 5.8486C35.5146 6.95851 35.6606 9.41198 34.2878 11.3689Z" stroke="#538F7F" stroke-width="1.5" stroke-miterlimit="10" stroke-linecap="round"/>
<path d="M28.9723 12.8586L24.9707 18.4665" stroke="#538F7F" stroke-width="1.5" stroke-miterlimit="10" stroke-linecap="round"/>
</svg>
