<svg width="40" height="40" viewBox="0 0 40 40" fill="none" xmlns="http://www.w3.org/2000/svg">
<path d="M9.90959 5.38903C7.70182 4.8815 5.01196 5.1099 2.72807 7.74906C0.444176 10.3882 0.596386 13.0781 1.40844 15.1843C2.32199 17.6205 4.25061 19.5237 6.61063 20.5896C10.8231 22.5182 15.0612 22.5944 15.0612 22.5944L17.1166 20.2343L19.172 17.8743C19.172 17.8743 18.4869 13.7126 16 9.77919C14.6042 7.5968 12.4472 5.94729 9.90959 5.36363V5.38903Z" stroke="#538F7F" stroke-width="1.5" stroke-miterlimit="10" stroke-linecap="round"/>
<path d="M23.5625 24.3199C21.71 22.7212 20.2635 20.6911 19.3753 18.4072L19.1721 17.8997" stroke="#538F7F" stroke-width="1.5" stroke-miterlimit="10" stroke-linecap="round"/>
<path d="M15.0613 22.5944L15.5941 22.7212C17.9795 23.3049 20.1873 24.4468 22.0398 26.0455" stroke="#538F7F" stroke-width="1.5" stroke-miterlimit="10" stroke-linecap="round"/>
<path d="M24.4506 29.3191L21.4559 26.7307L24.2474 23.5586L25.7447 24.929" stroke="#538F7F" stroke-width="1.5" stroke-miterlimit="10" stroke-linecap="round"/>
<path d="M3.81924 8.66256C2.70267 9.95677 2.22066 11.3017 2.32217 12.7736C2.37292 13.3826 2.49986 14.017 2.75362 14.6515C3.41341 16.3517 4.68214 17.8235 6.33162 18.8132C5.54494 17.6712 4.93591 16.4278 4.68214 15.0828C4.403 13.5603 4.60591 11.8854 5.46872 10.5912C6.00162 9.77916 6.76312 9.11937 7.57517 8.56108C8.46335 7.92667 9.42746 7.41915 10.4171 6.98775C10.138 6.88624 9.88444 6.81008 9.60529 6.75932C7.27065 6.22641 5.39259 6.83545 3.81924 8.66256Z" fill="#FF6B2B"/>
<path d="M38.8642 15.3873L31.2513 23.0003C30.9721 23.2794 30.6169 23.4825 30.287 23.6094C29.7287 23.8124 29.0942 23.8123 28.5359 23.6347C28.0791 23.5078 27.3687 23.4825 26.6074 24.0915L25.7698 24.9289" stroke="#538F7F" stroke-width="1.5" stroke-linecap="round" stroke-linejoin="round"/>
<path d="M27.7495 31.6284L26.4044 32.9733C26.0237 33.354 25.3894 33.354 24.9834 32.9733" stroke="#538F7F" stroke-width="1.5" stroke-linecap="round" stroke-linejoin="round"/>
<path d="M29.2721 32.9479L28.1046 34.1153C27.7239 34.4959 27.0896 34.4959 26.6836 34.1153" stroke="#538F7F" stroke-width="1.5" stroke-linecap="round" stroke-linejoin="round"/>
<path d="M28.46 34.7497C28.8406 35.1303 29.7796 34.8512 30.1602 34.4452C30.5409 34.0392 32.0127 32.6181 33.4592 29.8013C33.7383 29.243 33.992 28.8623 33.992 28.8623C33.992 28.8623 34.1442 28.507 35.4638 27.2382L38.8644 23.8378" stroke="#538F7F" stroke-width="1.5" stroke-linecap="round" stroke-linejoin="round"/>
<path d="M28.46 34.7497L27.9525 34.2422" stroke="#538F7F" stroke-width="1.5" stroke-linecap="round" stroke-linejoin="round"/>
<path d="M26.6837 34.1153L25.9224 33.354" stroke="#538F7F" stroke-width="1.5" stroke-linecap="round" stroke-linejoin="round"/>
<path d="M25.0086 32.9479L24.2981 32.2628" stroke="#538F7F" stroke-width="1.5" stroke-linecap="round" stroke-linejoin="round"/>
<path d="M25.8206 25.0051C26.658 25.8425 26.6327 27.2128 25.7953 28.0249L23.2577 30.4611C22.877 30.8417 22.877 31.4761 23.2577 31.8821C23.6383 32.2628 24.2726 32.2628 24.6786 31.8821L26.3028 30.258" stroke="#538F7F" stroke-width="1.5" stroke-miterlimit="10" stroke-linecap="round"/>
</svg>
