<svg width="40" height="40" viewBox="0 0 40 40" fill="none" xmlns="http://www.w3.org/2000/svg">
<path d="M18.2953 6.84785C17.0411 8.62452 14.8204 9.2515 13.3833 8.2064C11.9463 7.18743 11.7896 4.88822 13.0437 3.11155C14.2979 1.33489 16.5186 0.707905 17.9556 1.753C19.3927 2.77197 19.5494 5.07119 18.2953 6.84785Z" stroke="#538F7F" stroke-width="1.5" stroke-miterlimit="10" stroke-linecap="round"/>
<path d="M13.3832 8.20636L9.69934 13.3797" stroke="#538F7F" stroke-width="1.5" stroke-miterlimit="10" stroke-linecap="round"/>
<path d="M24.8579 10.3769C25.0057 8.57922 23.6683 7.00212 21.8706 6.85433C20.0729 6.70653 18.4958 8.04401 18.348 9.84167C18.2003 11.6393 19.5377 13.2164 21.3354 13.3642C23.1331 13.512 24.7102 12.1745 24.8579 10.3769Z" stroke="#538F7F" stroke-width="1.5" stroke-miterlimit="10" stroke-linecap="round"/>
<path d="M22.8151 12.4913C21.8745 12.4913 21.1168 11.7336 21.1168 10.793C21.1168 9.85239 21.8745 9.0947 22.8151 9.0947C23.7557 9.0947 24.5134 9.85239 24.5134 10.793C24.5134 11.7336 23.7557 12.4913 22.8151 12.4913Z" fill="#FF6B2B"/>
<path d="M18.5562 14.7644C18.1904 14.6337 17.8247 14.6599 17.4851 14.8167L12.9911 16.8546C12.7298 16.9591 12.4164 16.8807 12.2596 16.6716L10.0125 13.7193C9.54218 13.0922 8.65395 12.9877 8.02689 13.458C7.42596 13.9283 7.29532 14.7905 7.76562 15.4176L11.2145 20.016C11.5019 20.3818 11.9982 20.5124 12.4163 20.3295L17.3544 18.0303L15.6562 25.1631L12.3379 37.051C12.0244 38.1484 12.8606 39.2458 14.0102 39.2458H14.5064C15.2903 39.2458 15.9697 38.7232 16.1787 37.9917L18.8175 28.6642C18.922 28.2984 19.3922 28.1677 19.6796 28.429L23.3114 31.8256C23.5466 32.0346 23.6773 32.3482 23.6773 32.6617V37.5214C23.6773 38.4881 24.4611 39.2458 25.4016 39.2458C26.3684 39.2458 27.1259 38.462 27.1259 37.5214V31.1985C27.1259 30.885 26.9955 30.5976 26.7603 30.3885L21.8744 25.7641L23.5204 19.598L30.6271 22.1324C31.3587 22.3936 32.1687 22.0017 32.43 21.2701V21.2179C32.7174 20.4863 32.3254 19.7024 31.6199 19.415L24.1476 16.6978L18.6085 14.8167L18.5562 14.7644Z" stroke="#538F7F" stroke-width="1.5" stroke-miterlimit="10" stroke-linecap="round"/>
</svg>
