<svg width="40" height="40" viewBox="0 0 40 40" fill="none" xmlns="http://www.w3.org/2000/svg">
<path d="M14.9163 5.04124C15.0098 2.98026 13.4149 1.23372 11.354 1.14013C9.29298 1.04654 7.54637 2.64135 7.45278 4.70232C7.3592 6.7633 8.95406 8.50998 11.015 8.60357C13.076 8.69716 14.8227 7.10222 14.9163 5.04124Z" stroke="#538F7F" stroke-width="1.5" stroke-linecap="round" stroke-linejoin="round"/>
<path d="M9.95549 6.56069C8.8235 6.56069 7.91785 5.65507 7.91785 4.52308C7.91785 3.39108 8.8235 2.4855 9.95549 2.4855C11.0875 2.4855 11.993 3.39108 11.993 4.52308C11.993 5.65507 11.0875 6.56069 9.95549 6.56069Z" fill="#FF6B2B"/>
<path d="M19.9738 12.164C22.0525 12.164 23.7376 10.4789 23.7376 8.40015C23.7376 6.32142 22.0525 4.63626 19.9738 4.63626C17.8951 4.63626 16.21 6.32142 16.21 8.40015C16.21 10.4789 17.8951 12.164 19.9738 12.164Z" stroke="#538F7F" stroke-width="1.5" stroke-linecap="round" stroke-linejoin="round"/>
<path d="M10.9178 9.47549L13.2102 12.5885C13.4649 12.9281 13.8045 13.1545 14.229 13.2394L18.3325 14.0601" stroke="#538F7F" stroke-width="1.5" stroke-linecap="round" stroke-linejoin="round"/>
<path d="M23.7096 12.8432L31.6901 6.58895C32.341 6.07955 33.3032 6.19276 33.8409 6.84365C34.3786 7.52285 34.2654 8.48503 33.5862 9.02273L26.6811 14.3997C26.1717 14.7959 25.9452 15.4468 26.0584 16.0694L27.6716 23.6821L33.0767 36.2755C33.5012 37.2377 33.0485 38.3696 32.0581 38.7658L31.9166 38.8225C30.9827 39.2187 29.8789 38.7942 29.4827 37.8603L24.8416 27.644C24.502 26.9082 23.5681 26.7101 22.9738 27.2195L17.2855 32.0871C16.8044 32.4833 16.1818 32.6814 15.5592 32.5682L8.93703 31.4079C7.88994 31.2098 7.18247 30.191 7.40887 29.1439C7.60697 28.1534 8.59738 27.5025 9.58787 27.6723L14.6818 28.6062C15.0214 28.6628 15.3894 28.5779 15.6441 28.3515L18.842 25.6347C19.4646 25.097 19.7759 24.248 19.6061 23.4273L18.559 18.4749C18.4175 17.824 17.9081 17.3146 17.2572 17.1731L12.8424 16.2675C12.4462 16.1826 12.1066 15.9845 11.8802 15.6732L8.17288 10.8622C7.77668 10.3528 7.77671 9.67363 8.05971 9.13593" stroke="#538F7F" stroke-width="1.5" stroke-linecap="round" stroke-linejoin="round"/>
</svg>
