<svg width="40" height="40" viewBox="0 0 40 40" fill="none" xmlns="http://www.w3.org/2000/svg">
<path d="M20.0598 10.148C20.3452 8.34551 19.1155 6.65296 17.313 6.36748C15.5105 6.08199 13.8179 7.31168 13.5324 9.11415C13.2469 10.9166 14.4767 12.6093 16.2792 12.8948C18.0816 13.1803 19.7743 11.9505 20.0598 10.148Z" stroke="#538F7F" stroke-width="1.5" stroke-linecap="round" stroke-linejoin="round"/>
<path d="M26.2146 8.66013L24.7377 10.6127L20.4821 13.0659" stroke="#538F7F" stroke-width="1.5" stroke-linecap="round" stroke-linejoin="round"/>
<path d="M14.7495 13.917L10.7442 16.1199V11.2635C10.7442 10.6628 10.2436 10.1621 9.64281 10.1621C9.04202 10.1621 8.54138 10.6628 8.54138 11.2635V17.1463C8.54138 18.1226 9.34234 18.9236 10.3186 18.9236C10.594 18.9236 10.8443 18.8736 11.0947 18.7484L13.9735 17.3716V30.1384L11.4702 36.9724C11.1197 37.9487 11.8457 38.975 12.872 38.975C13.4728 38.975 14.0235 38.6246 14.2488 38.0738L17.6283 30.2385V25.4572C17.6283 25.1068 18.1289 25.0066 18.2291 25.3571L20.1065 30.9645V37.4981C20.1065 38.3241 20.7824 39 21.6085 39H21.7086C22.5347 39 23.2106 38.3241 23.2106 37.4981V30.6891L21.984 26.058C21.5334 24.3808 21.3082 22.6535 21.3082 20.9263V15.6443L26.1896 12.6904L29.0684 8.66013" stroke="#538F7F" stroke-width="1.5" stroke-linecap="round" stroke-linejoin="round"/>
<path d="M27.7668 7.60876C29.5917 7.60876 31.0712 6.12935 31.0712 4.30441C31.0712 2.47947 29.5917 1.00006 27.7668 1.00006C25.9419 1.00006 24.4624 2.47947 24.4624 4.30441C24.4624 6.12935 25.9419 7.60876 27.7668 7.60876Z" stroke="#538F7F" stroke-width="1.5" stroke-linecap="round" stroke-linejoin="round"/>
<path d="M27.7668 6.10679C26.7655 6.10679 25.9644 5.30574 25.9644 4.30442C25.9644 3.3031 26.7655 2.50204 27.7668 2.50204C28.7681 2.50204 29.5692 3.3031 29.5692 4.30442C29.5692 5.30574 28.7681 6.10679 27.7668 6.10679Z" fill="#FF6B2B"/>
</svg>
