<svg width="40" height="40" viewBox="0 0 40 40" fill="none" xmlns="http://www.w3.org/2000/svg">
<g clip-path="url(#clip0_5134_380340)">
<path d="M38.8704 22.2753C39.8227 12.7343 32.8602 4.22762 23.3191 3.27529C13.778 2.32296 5.27138 9.28558 4.31906 18.8267C3.36673 28.3677 10.3293 36.8742 19.8704 37.8266C29.4115 38.7789 37.9181 31.8164 38.8704 22.2753Z" stroke="#538F7F" stroke-width="1.5" stroke-linecap="round" stroke-linejoin="round"/>
<path d="M13.5157 9.15778C13.2888 9.27125 13.0901 9.38472 13.0334 9.44146C8.29587 12.1932 5.28884 16.7605 4.40942 21.7817C3.89878 24.7037 4.35262 27.4838 4.35262 27.4838" stroke="#538F7F" stroke-width="1.5" stroke-linecap="round" stroke-linejoin="round"/>
<path d="M10.2817 34.3773C10.2817 34.3773 9.0617 33.1008 8.74965 30.9447C7.75675 24.2214 10.8773 17.2428 17.1183 13.64C17.2886 13.5549 17.6007 13.3563 17.9127 13.1861" stroke="#538F7F" stroke-width="1.5" stroke-linecap="round" stroke-linejoin="round"/>
<path d="M13.8278 31.0583C14.0547 31.2001 14.2532 31.3136 14.3099 31.3419C19.0475 34.0937 24.5226 34.3774 29.3168 32.6469C32.0969 31.6256 34.2813 29.8668 34.2813 29.8668" stroke="#538F7F" stroke-width="1.5" stroke-linecap="round" stroke-linejoin="round"/>
<path d="M37.2884 21.2144C37.2884 21.2144 36.8062 22.9165 35.0757 24.2782C29.7425 28.5051 22.1397 29.271 15.8986 25.6682C15.7284 25.5831 15.4164 25.3845 15.1044 25.2143" stroke="#538F7F" stroke-width="1.5" stroke-linecap="round" stroke-linejoin="round"/>
<path d="M32.636 19.8243C32.636 19.569 32.636 19.342 32.636 19.2569C32.636 13.7818 30.168 8.87409 26.2815 5.61172C24.012 3.71103 21.3737 2.68979 21.3737 2.68979" stroke="#538F7F" stroke-width="1.5" stroke-linecap="round" stroke-linejoin="round"/>
<path d="M12.381 4.42026C12.381 4.42026 14.083 3.99474 16.1255 4.81742C22.4517 7.34222 26.9056 13.4982 26.9056 20.7321C26.9056 20.9307 26.9056 21.2995 26.9056 21.6399" stroke="#538F7F" stroke-width="1.5" stroke-linecap="round" stroke-linejoin="round"/>
<path d="M7.89868 7.56915C7.95542 7.51241 19.1326 7.88121 19.9837 20.0229" stroke="#538F7F" stroke-width="1.5" stroke-linecap="round" stroke-linejoin="round"/>
<path d="M15.2462 36.7035C15.1895 36.7035 9.91285 26.803 19.9837 20.0229" stroke="#538F7F" stroke-width="1.5" stroke-linecap="round" stroke-linejoin="round"/>
<path d="M36.8062 15.7676C36.8062 15.8243 30.9055 25.3278 19.9836 19.9945" stroke="#538F7F" stroke-width="1.5" stroke-linecap="round" stroke-linejoin="round"/>
<path d="M20.1824 21.9519C19.1044 22.7746 18.225 23.6257 17.5157 24.5902C19.7285 25.6966 22.1114 26.264 24.466 26.264C26.8206 26.264 25.8277 26.2072 26.5369 26.1221C26.7922 25.8668 27.0758 25.6399 27.3311 25.3845C28.1254 24.647 28.8347 23.8243 29.4588 22.9448C28.5226 23.1718 27.5014 23.3136 26.395 23.3136C24.5511 23.3136 22.4518 22.9448 20.1824 21.9519Z" fill="#FF6B2B"/>
<path d="M21.7142 18.8598C22.9624 19.3704 24.1539 19.7108 25.317 19.8243C25.1752 17.3562 24.4659 15.03 23.2745 12.9591C22.934 12.3634 22.5368 11.796 22.1113 11.257C21.7709 11.1719 21.4304 11.0301 21.09 10.945C20.0688 10.6329 18.9908 10.406 17.9128 10.3209C18.5937 11.0301 19.2178 11.8244 19.7568 12.7889C20.693 14.4059 21.4021 16.3917 21.7142 18.8598Z" fill="#FF6B2B"/>
<path d="M18.1965 19.0867C18.0263 17.7534 17.7141 16.5619 17.2603 15.4556C15.1894 16.7889 13.4872 18.5761 12.2958 20.6186C11.9553 21.2144 11.6434 21.8385 11.3881 22.4626C11.4732 22.803 11.5298 23.1718 11.615 23.5122C11.8419 24.5618 12.1824 25.6115 12.6362 26.576C12.9199 25.6398 13.3171 24.7037 13.8844 23.7391C14.8206 22.1221 16.2107 20.5335 18.1965 19.0583V19.0867Z" fill="#FF6B2B"/>
</g>
<defs>
<clipPath id="clip0_5134_380340">
<rect width="40" height="40" fill="white"/>
</clipPath>
</defs>
</svg>
