<svg width="40" height="40" viewBox="0 0 40 40" fill="none" xmlns="http://www.w3.org/2000/svg">
<path d="M21.9413 8.4498C23.4562 6.93495 23.4562 4.47884 21.9413 2.96398C20.4265 1.44913 17.9704 1.44917 16.4556 2.96403C14.9407 4.47889 14.9407 6.93495 16.4555 8.4498C17.9704 9.96466 20.4265 9.96466 21.9413 8.4498Z" stroke="#538F7F" stroke-width="1.5" stroke-linecap="round" stroke-linejoin="round"/>
<path d="M19.1786 7.95919C17.9406 7.95919 16.9502 6.96877 16.9502 5.73078C16.9502 4.49279 17.9406 3.50244 19.1786 3.50244C20.4166 3.50244 21.407 4.49279 21.407 5.73078C21.407 6.96877 20.4166 7.95919 19.1786 7.95919Z" fill="#FF6B2B"/>
<path d="M21.985 10.2151L29.1378 14.039C29.6055 14.2866 29.8531 14.8369 29.688 15.3596L28.6425 18.7434C28.4499 19.3212 27.8722 19.7338 27.267 19.5963C26.5792 19.4587 26.1666 18.7435 26.3867 18.0832L27.1294 15.7448L23.2779 13.984V20.4216C23.2779 21.7146 22.8928 22.9801 22.1501 24.053L12.9339 37.3133C12.4937 37.946 11.6959 38.1661 10.9806 37.891C10.1003 37.5334 9.71514 36.4604 10.1828 35.6351L17.3357 22.4299V13.6815L17.2255 13.7365L14.9422 16.9002C14.5845 17.4229 13.8693 17.5329 13.3466 17.1478L9.77016 14.4242C9.24746 14.0391 9.16484 13.2962 9.54999 12.8011L9.60507 12.7186C9.99022 12.1959 10.7055 12.0858 11.2282 12.4435L13.6491 14.1491L15.0522 12.1958L16.2077 10.5177" stroke="#538F7F" stroke-width="1.5" stroke-linecap="round" stroke-linejoin="round"/>
<path d="M21.0219 28.0146L23.8005 37.0106C24.0206 37.7259 24.6808 38.2211 25.4236 38.2211C26.5515 38.2211 27.3494 37.1482 27.0742 36.0752L23.8005 24.1356" stroke="#538F7F" stroke-width="1.5" stroke-linecap="round" stroke-linejoin="round"/>
<path d="M23.3058 14.0115L20.6923 12.9385" stroke="#538F7F" stroke-width="1.5" stroke-linecap="round" stroke-linejoin="round"/>
</svg>
