<svg width="40" height="40" viewBox="0 0 40 40" fill="none" xmlns="http://www.w3.org/2000/svg">
<g clip-path="url(#clip0_5134_380336)">
<path d="M38.3282 39C36.3474 39 34.6104 37.9335 33.6657 36.3184C32.721 37.9335 31.0146 39 29.0034 39C26.9921 39 25.2857 37.9335 24.341 36.3184C23.3964 37.9335 21.6898 39 19.6785 39C17.6673 39 15.9609 37.9335 15.0162 36.3184C14.0715 37.9335 12.3649 39 10.3537 39C8.34249 39 6.63605 37.9335 5.69139 36.3184C4.74672 37.9335 3.04028 39 1.02905 39" stroke="#538F7F" stroke-width="1.5" stroke-linecap="round" stroke-linejoin="round"/>
<path d="M1.12048 32.5397C3.10124 32.5397 4.83815 31.4732 5.78282 29.8581C6.72748 31.4732 8.43407 32.5397 10.4453 32.5397C12.4565 32.5397 14.163 31.4732 15.1076 29.8581C16.0523 31.4732 17.7589 32.5397 19.7701 32.5397C21.7813 32.5397 23.4878 31.4732 24.4324 29.8581C25.3771 31.4732 27.0836 32.5397 29.0948 32.5397C31.106 32.5397 32.8126 31.4732 33.7573 29.8581C34.7019 31.4732 36.4084 32.5397 38.4196 32.5397" stroke="#538F7F" stroke-width="1.5" stroke-linecap="round" stroke-linejoin="round"/>
<path d="M26.1996 9.22775C28.4716 9.22775 30.3134 7.38591 30.3134 5.11388C30.3134 2.84185 28.4716 1 26.1996 1C23.9275 1 22.0857 2.84185 22.0857 5.11388C22.0857 7.38591 23.9275 9.22775 26.1996 9.22775Z" stroke="#538F7F" stroke-width="1.5" stroke-linecap="round" stroke-linejoin="round"/>
<path d="M23.0303 22.3922C25.2855 22.3922 27.1136 20.564 27.1136 18.3088C27.1136 16.0536 25.2855 14.2254 23.0303 14.2254C20.7751 14.2254 18.9469 16.0536 18.9469 18.3088C18.9469 20.564 20.7751 22.3922 23.0303 22.3922Z" stroke="#538F7F" stroke-width="1.5" stroke-linecap="round" stroke-linejoin="round"/>
<path d="M23.0303 20.5638C22.4208 20.5638 21.8724 20.32 21.4458 19.8934C20.562 19.0097 20.562 17.5774 21.4458 16.7242C22.3295 15.8709 22.4208 16.0538 23.0303 16.0538C23.6397 16.0538 24.1883 16.2976 24.6149 16.7242C25.4987 17.6079 25.4987 19.0402 24.6149 19.8934C23.7312 20.7467 23.6397 20.5638 23.0303 20.5638Z" fill="#FF6B2B"/>
<path d="M7.45862 28.5477L12.2735 23.7025V13.6768C12.2735 13.2807 12.4258 12.8845 12.7001 12.6103L16.9663 8.34402C17.6367 7.67361 18.6727 7.67361 19.3431 8.34402C20.0136 9.01443 20.0136 10.0505 19.3431 10.7209L16.1435 13.9206C15.8692 14.1949 15.7169 14.591 15.7169 14.9872V20.259L20.3794 24.891C21.0193 25.5309 21.0193 26.5365 20.3794 27.1765L17.6671 29.8885" stroke="#538F7F" stroke-width="1.5" stroke-linecap="round" stroke-linejoin="round"/>
</g>
<defs>
<clipPath id="clip0_5134_380336">
<rect width="40" height="40" fill="white"/>
</clipPath>
</defs>
</svg>
