<svg width="40" height="40" viewBox="0 0 40 40" fill="none" xmlns="http://www.w3.org/2000/svg">
<path d="M22.1356 9.42894C23.6873 7.87721 23.6873 5.36137 22.1356 3.80965C20.5839 2.25793 18.068 2.25793 16.5163 3.80965C14.9646 5.36137 14.9646 7.87721 16.5163 9.42894C18.068 10.9807 20.5839 10.9807 22.1356 9.42894Z" stroke="#538F7F" stroke-width="1.5" stroke-linecap="round" stroke-linejoin="round"/>
<path d="M19.3253 8.70644C18.181 8.70644 17.2592 7.7846 17.2592 6.64025C17.2592 5.4959 18.181 4.57407 19.3253 4.57407C20.4697 4.57407 21.3915 5.4959 21.3915 6.64025C21.3915 7.7846 20.4697 8.70644 19.3253 8.70644Z" fill="#FF6B2B"/>
<path d="M27.7172 30.6081L23.5214 24.5049C23.3942 24.3141 23.2988 24.0598 23.2988 23.8055V17.3527L26.1279 20.4043L27.2723 24.1233C27.5266 24.9498 28.3531 25.4585 29.2113 25.2995C30.1967 25.1088 30.8007 24.0917 30.5146 23.1381L29.3066 19.0692L24.0617 12.7117H5.56138C4.63954 12.7117 3.90845 13.4428 3.90845 14.3647C3.90845 15.2865 4.63954 16.0175 5.56138 16.0175H15.2883V23.2015C15.2883 23.8055 14.8752 24.3142 14.2712 24.4096L8.77195 25.3314C7.119 25.6175 5.94282 27.0161 5.94282 28.7009V37.0927C5.94282 38.1417 6.80108 39 7.85007 39H7.97726C9.02625 39 9.88451 38.1417 9.88451 37.0927V30.8942C9.88451 30.0677 10.4885 29.3365 11.3149 29.2093L19.7704 27.8744L24.1253 33.7232C24.2843 33.9457 24.5068 34.1365 24.7611 34.2319L32.8351 38.0464C33.8523 38.5232 35.092 38.0464 35.4417 36.9338C35.7278 36.0438 35.378 35.0901 34.5516 34.645L28.1941 31.1484C27.9715 31.0213 27.7491 30.8306 27.6219 30.6081H27.7172Z" stroke="#538F7F" stroke-width="1.5" stroke-linecap="round" stroke-linejoin="round"/>
</svg>
